{
copyright = "Copyright (c) 2015, Cadson Demak (info@cadsondemak.com)";
customParameters = (
{
name = vendorID;
value = CDK;
},
{
name = description;
value = "Copyright (c) 2015, Cadson Demak (info@cadsondemak.com)";
},
{
name = license;

glyphs = (
{
glyphname = A;
lastChange = "2015-10-24 11:39:06 +0000";
layers = (
{
layerId = "B67427C8-F911-4143-A2F2-7B953CC18A6E";
name = "Regular Italic";
paths = (
{
closed = 1;
nodes = (
"475 259 LINE",
"278 259 LINE",
"431 518 LINE"
);
},
{
closed = 1;
nodes = (
"472 155 LINE",
"501 0 LINE",
"636 0 LINE",
"527 644 LINE",
"379 644 LINE",
"-3 0 LINE",
"143 0 LINE",
"235 155 LINE"
);
}
);
width = 713;
}
);
leftKerningGroup = A;
note = A;
rightKerningGroup = A;
unicode = 0041;
},
{
glyphname = Aacute;
lastChange = "2015-10-24 11:20:14 +0000";
layers = (
{
layerId = "B67427C8-F911-4143-A2F2-7B953CC18A6E";
name = "Regular Italic";
paths = (
{
closed = 1;
nodes = (
"475 259 LINE",
"278 259 LINE",
"431 518 LINE"
);
},
{
closed = 1;
nodes = (
"472 155 LINE",
"501 0 LINE",
"636 0 LINE",
"527 644 LINE",
"379 644 LINE",
"-3 0 LINE",
"143 0 LINE",
"235 155 LINE"
);
},
{
closed = 1;
nodes = (
"512 688 LINE",
"640 875 LINE",
"523 875 LINE",
"403 688 LINE"
);
}
);
width = 713;
}
);
leftKerningGroup = A;
note = Aacute;
rightKerningGroup = A;
unicode = 00C1;
},
{
glyphname = Abreve;
lastChange = "2015-10-24 11:20:14 +0000";
layers = (
{
layerId = "B67427C8-F911-4143-A2F2-7B953CC18A6E";
name = "Regular Italic";
paths = (
{
closed = 1;
nodes = (
"475 259 LINE",
"278 259 LINE",
"431 518 LINE"
);
},
{
closed = 1;
nodes = (
"472 155 LINE",
"501 0 LINE",
"636 0 LINE",
"527 644 LINE",
"379 644 LINE",
"-3 0 LINE",
"143 0 LINE",
"235 155 LINE"
);
},
{
closed = 1;
nodes = (
"339 845 LINE",
"318 747 OFFCURVE",
"369 688 OFFCURVE",
"461 688 CURVE SMOOTH",
"569 688 OFFCURVE",
"633 747 OFFCURVE",
"654 845 CURVE",
"559 845 LINE",
"550 803 OFFCURVE",
"519 766 OFFCURVE",
"473 766 CURVE SMOOTH",
"420 766 OFFCURVE",
"414 803 OFFCURVE",
"423 845 CURVE"
);
}
);
width = 713;
}
);
leftKerningGroup = A;
note = Abreve;
rightKerningGroup = A;
unicode = 0102;
},
{
glyphname = Abreveacute;
lastChange = "2015-10-24 11:20:14 +0000";
layers = (
{
layerId = "B67427C8-F911-4143-A2F2-7B953CC18A6E";
name = "Regular Italic";
paths = (
{
closed = 1;
nodes = (
"475 259 LINE",
"278 259 LINE",
"431 518 LINE"
);
},
{
closed = 1;
nodes = (
"472 155 LINE",
"501 0 LINE",
"636 0 LINE",
"527 644 LINE",
"379 644 LINE",
"-3 0 LINE",
"143 0 LINE",
"235 155 LINE"
);
},
{
closed = 1;
nodes = (
"411 759 OFFCURVE",
"397 789 OFFCURVE",
"409 844 CURVE",
"332 844 LINE",
"308 733 OFFCURVE",
"376 688 OFFCURVE",
"464 688 CURVE SMOOTH",
"567 688 OFFCURVE",
"637 733 OFFCURVE",
"661 844 CURVE",
"578 844 LINE",
"566 789 OFFCURVE",
"533 759 OFFCURVE",
"476 759 CURVE SMOOTH"
);
},
{
closed = 1;
nodes = (
"531 818 LINE",
"634 959 LINE",
"532 959 LINE",
"436 818 LINE"
);
}
);
width = 713;
}
);
leftKerningGroup = A;
note = Abreveacute;
rightKerningGroup = A;
unicode = 1EAE;
},
{
glyphname = Abrevedotbelow;
lastChange = "2015-10-24 11:20:14 +0000";
layers = (
{
layerId = "B67427C8-F911-4143-A2F2-7B953CC18A6E";
name = "Regular Italic";
paths = (
{
closed = 1;
nodes = (
"475 259 LINE",
"278 259 LINE",
"431 518 LINE"
);
},
{
closed = 1;
nodes = (
"472 155 LINE",
"501 0 LINE",
"636 0 LINE",
"527 644 LINE",
"379 644 LINE",
"-3 0 LINE",
"143 0 LINE",
"235 155 LINE"
);
},
{
closed = 1;
nodes = (
"338 845 LINE",
"317 747 OFFCURVE",
"368 688 OFFCURVE",
"460 688 CURVE SMOOTH",
"568 688 OFFCURVE",
"632 747 OFFCURVE",
"653 845 CURVE",
"558 845 LINE",
"549 803 OFFCURVE",
"518 766 OFFCURVE",
"472 766 CURVE SMOOTH",
"419 766 OFFCURVE",
"413 803 OFFCURVE",
"422 845 CURVE"
);
},
{
closed = 1;
nodes = (
"332 -181 LINE",
"353 -82 LINE",
"246 -82 LINE",
"225 -181 LINE"
);
}
);
width = 713;
}
);
leftKerningGroup = A;
note = Abrevedotbelow;
rightKerningGroup = A;
unicode = 1EB6;
},
{
glyphname = Abrevegrave;
lastChange = "2015-10-24 11:20:16 +0000";
layers = (
{
layerId = "B67427C8-F911-4143-A2F2-7B953CC18A6E";
name = "Regular Italic";
paths = (
{
closed = 1;
nodes = (
"475 259 LINE",
"278 259 LINE",
"431 518 LINE"
);
},
{
closed = 1;
nodes = (
"472 155 LINE",
"501 0 LINE",
"636 0 LINE",
"527 644 LINE",
"379 644 LINE",
"-3 0 LINE",
"143 0 LINE",
"235 155 LINE"
);
},
{
closed = 1;
nodes = (
"545 818 LINE",
"509 959 LINE",
"407 959 LINE",
"450 818 LINE"
);
},
{
closed = 1;
nodes = (
"411 759 OFFCURVE",
"397 789 OFFCURVE",
"409 844 CURVE",
"332 844 LINE",
"308 733 OFFCURVE",
"376 688 OFFCURVE",
"464 688 CURVE SMOOTH",
"567 688 OFFCURVE",
"637 733 OFFCURVE",
"661 844 CURVE",
"578 844 LINE",
"566 789 OFFCURVE",
"533 759 OFFCURVE",
"476 759 CURVE SMOOTH"
);
}
);
width = 713;
}
);
leftKerningGroup = A;
note = Abrevegrave;
rightKerningGroup = A;
unicode = 1EB0;
},
{
glyphname = Abrevehookabove;
lastChange = "2015-10-24 11:20:15 +0000";
layers = (
{
layerId = "B67427C8-F911-4143-A2F2-7B953CC18A6E";
name = "Regular Italic";
paths = (
{
closed = 1;
nodes = (
"475 259 LINE",
"278 259 LINE",
"431 518 LINE"
);
},
{
closed = 1;
nodes = (
"472 155 LINE",
"501 0 LINE",
"636 0 LINE",
"527 644 LINE",
"379 644 LINE",
"-3 0 LINE",
"143 0 LINE",
"235 155 LINE"
);
},
{
closed = 1;
nodes = (
"645 985 OFFCURVE",
"614 1017 OFFCURVE",
"547 1017 CURVE SMOOTH",
"514 1017 OFFCURVE",
"480 1012 OFFCURVE",
"456 1005 CURVE",
"444 948 LINE",
"461 955 OFFCURVE",
"481 960 OFFCURVE",
"501 960 CURVE SMOOTH",
"535 960 OFFCURVE",
"549 953 OFFCURVE",
"544 928 CURVE SMOOTH",
"539 904 OFFCURVE",
"518 890 OFFCURVE",
"456 887 CURVE",
"443 827 LINE",
"535 827 LINE",
"542 859 LINE",
"599 870 OFFCURVE",
"625 893 OFFCURVE",
"635 937 CURVE SMOOTH"
);
},
{
closed = 1;
nodes = (
"411 759 OFFCURVE",
"397 789 OFFCURVE",
"409 844 CURVE",
"332 844 LINE",
"308 733 OFFCURVE",
"376 688 OFFCURVE",
"464 688 CURVE SMOOTH",
"567 688 OFFCURVE",
"637 733 OFFCURVE",
"661 844 CURVE",
"578 844 LINE",
"566 789 OFFCURVE",
"533 759 OFFCURVE",
"476 759 CURVE SMOOTH"
);
}
);
width = 713;
}
);
leftKerningGroup = A;
note = Abrevehookabove;
rightKerningGroup = A;
unicode = 1EB2;
},
{
glyphname = Abrevetilde;
lastChange = "2015-10-24 11:20:16 +0000";
layers = (
{
layerId = "B67427C8-F911-4143-A2F2-7B953CC18A6E";
name = "Regular Italic";
paths = (
{
closed = 1;
nodes = (
"475 259 LINE",
"278 259 LINE",
"431 518 LINE"
);
},
{
closed = 1;
nodes = (
"472 155 LINE",
"501 0 LINE",
"636 0 LINE",
"527 644 LINE",
"379 644 LINE",
"-3 0 LINE",
"143 0 LINE",
"235 155 LINE"
);
},
{
closed = 1;
nodes = (
"624 865 OFFCURVE",
"657 879 OFFCURVE",
"674 897 CURVE",
"691 983 LINE",
"670 959 OFFCURVE",
"639 945 OFFCURVE",
"601 945 CURVE SMOOTH",
"545 945 OFFCURVE",
"510 985 OFFCURVE",
"449 985 CURVE SMOOTH",
"414 985 OFFCURVE",
"377 972 OFFCURVE",
"355 954 CURVE",
"337 868 LINE",
"365 893 OFFCURVE",
"398 905 OFFCURVE",
"435 905 CURVE SMOOTH",
"484 905 OFFCURVE",
"528 865 OFFCURVE",
"587 865 CURVE SMOOTH"
);
},
{
closed = 1;
nodes = (
"411 759 OFFCURVE",
"397 789 OFFCURVE",
"409 844 CURVE",
"332 844 LINE",
"308 733 OFFCURVE",
"376 688 OFFCURVE",
"464 688 CURVE SMOOTH",
"567 688 OFFCURVE",
"637 733 OFFCURVE",
"661 844 CURVE",
"578 844 LINE",
"566 789 OFFCURVE",
"533 759 OFFCURVE",
"476 759 CURVE SMOOTH"
);
}
);
width = 713;
}
);
leftKerningGroup = A;
note = Abrevetilde;
rightKerningGroup = A;
unicode = 1EB4;
},
{
glyphname = Acaron;
lastChange = "2015-10-24 11:20:15 +0000";
layers = (
{
layerId = "B67427C8-F911-4143-A2F2-7B953CC18A6E";
name = "Regular Italic";
paths = (
{
closed = 1;
nodes = (
"475 259 LINE",
"278 259 LINE",
"431 518 LINE"
);
},
{
closed = 1;
nodes = (
"472 155 LINE",
"501 0 LINE",
"636 0 LINE",
"527 644 LINE",
"379 644 LINE",
"-3 0 LINE",
"143 0 LINE",
"235 155 LINE"
);
},
{
closed = 1;
nodes = (
"677 862 LINE",
"568 862 LINE",
"472 762 LINE",
"422 862 LINE",
"322 862 LINE",
"419 688 LINE",
"505 688 LINE"
);
}
);
width = 713;
}
);
leftKerningGroup = A;
note = Acaron;
rightKerningGroup = A;
unicode = 01CD;
},
{
glyphname = Acircumflex;
lastChange = "2015-10-24 11:20:15 +0000";
layers = (
{
layerId = "B67427C8-F911-4143-A2F2-7B953CC18A6E";
name = "Regular Italic";
paths = (
{
closed = 1;
nodes = (
"475 259 LINE",
"278 259 LINE",
"431 518 LINE"
);
},
{
closed = 1;
nodes = (
"472 155 LINE",
"501 0 LINE",
"636 0 LINE",
"527 644 LINE",
"379 644 LINE",
"-3 0 LINE",
"143 0 LINE",
"235 155 LINE"
);
},
{
closed = 1;
nodes = (
"542 862 LINE",
"456 862 LINE",
"285 688 LINE",
"395 688 LINE",
"488 788 LINE",
"541 688 LINE",
"640 688 LINE"
);
}
);
width = 713;
}
);
leftKerningGroup = A;
note = Acircumflex;
rightKerningGroup = A;
unicode = 00C2;
},
{
glyphname = Acircumflexacute;
lastChange = "2015-10-24 11:20:14 +0000";
layers = (
{
layerId = "B67427C8-F911-4143-A2F2-7B953CC18A6E";
name = "Regular Italic";
paths = (
{
closed = 1;
nodes = (
"475 259 LINE",
"278 259 LINE",
"431 518 LINE"
);
},
{
closed = 1;
nodes = (
"472 155 LINE",
"501 0 LINE",
"636 0 LINE",
"527 644 LINE",
"379 644 LINE",
"-3 0 LINE",
"143 0 LINE",
"235 155 LINE"
);
},
{
closed = 1;
nodes = (
"538 823 LINE",
"435 823 LINE",
"281 688 LINE",
"397 688 LINE",
"481 769 LINE",
"532 688 LINE",
"636 688 LINE"
);
},
{
closed = 1;
nodes = (
"679 805 LINE",
"782 946 LINE",
"680 946 LINE",
"585 805 LINE"
);
}
);
width = 713;
}
);
leftKerningGroup = A;
note = Acircumflexacute;
rightKerningGroup = A;
unicode = 1EA4;
},
{
glyphname = Acircumflexdotbelow;
lastChange = "2015-10-24 11:20:15 +0000";
layers = (
{
layerId = "B67427C8-F911-4143-A2F2-7B953CC18A6E";
name = "Regular Italic";
paths = (
{
closed = 1;
nodes = (
"475 259 LINE",
"278 259 LINE",
"431 518 LINE"
);
},
{
closed = 1;
nodes = (
"472 155 LINE",
"501 0 LINE",
"636 0 LINE",
"527 644 LINE",
"379 644 LINE",
"-3 0 LINE",
"143 0 LINE",
"235 155 LINE"
);
},
{
closed = 1;
nodes = (
"542 862 LINE",
"456 862 LINE",
"285 688 LINE",
"395 688 LINE",
"488 788 LINE",
"541 688 LINE",
"640 688 LINE"
);
},
{
closed = 1;
nodes = (
"332 -181 LINE",
"353 -82 LINE",
"246 -82 LINE",
"225 -181 LINE"
);
}
);
width = 713;
}
);
leftKerningGroup = A;
note = Acircumflexdotbelow;
rightKerningGroup = A;
unicode = 1EAC;
},
{
glyphname = Acircumflexgrave;
lastChange = "2015-10-24 11:20:16 +0000";
layers = (
{
layerId = "B67427C8-F911-4143-A2F2-7B953CC18A6E";
name = "Regular Italic";
paths = (
{
closed = 1;
nodes = (
"475 259 LINE",
"278 259 LINE",
"431 518 LINE"
);
},
{
closed = 1;
nodes = (
"472 155 LINE",
"501 0 LINE",
"636 0 LINE",
"527 644 LINE",
"379 644 LINE",
"-3 0 LINE",
"143 0 LINE",
"235 155 LINE"
);
},
{
closed = 1;
nodes = (
"386 805 LINE",
"350 946 LINE",
"248 946 LINE",
"291 805 LINE"
);
},
{
closed = 1;
nodes = (
"542 823 LINE",
"439 823 LINE",
"285 688 LINE",
"401 688 LINE",
"485 769 LINE",
"536 688 LINE",
"640 688 LINE"
);
}
);
width = 713;
}
);
leftKerningGroup = A;
note = Acircumflexgrave;
rightKerningGroup = A;
unicode = 1EA6;
},
{
glyphname = Acircumflexhookabove;
lastChange = "2015-10-24 11:20:16 +0000";
layers = (
{
layerId = "B67427C8-F911-4143-A2F2-7B953CC18A6E";
name = "Regular Italic";
paths = (
{
closed = 1;
nodes = (
"475 259 LINE",
"278 259 LINE",
"431 518 LINE"
);
},
{
closed = 1;
nodes = (
"472 155 LINE",
"501 0 LINE",
"636 0 LINE",
"527 644 LINE",
"379 644 LINE",
"-3 0 LINE",
"143 0 LINE",
"235 155 LINE"
);
},
{
closed = 1;
nodes = (
"795 944 OFFCURVE",
"762 977 OFFCURVE",
"692 977 CURVE SMOOTH",
"655 977 OFFCURVE",
"630 972 OFFCURVE",
"608 965 CURVE",
"594 903 LINE",
"611 910 OFFCURVE",
"630 915 OFFCURVE",
"650 915 CURVE SMOOTH",
"680 915 OFFCURVE",
"693 908 OFFCURVE",
"689 888 CURVE SMOOTH",
"685 866 OFFCURVE",
"669 856 OFFCURVE",
"608 853 CURVE",
"593 783 LINE",
"685 783 LINE",
"692 817 LINE",
"747 825 OFFCURVE",
"776 852 OFFCURVE",
"785 896 CURVE SMOOTH"
);
},
{
closed = 1;
nodes = (
"542 823 LINE",
"439 823 LINE",
"285 688 LINE",
"401 688 LINE",
"485 769 LINE",
"536 688 LINE",
"640 688 LINE"
);
}
);
width = 713;
}
);
leftKerningGroup = A;
note = Acircumflexhookabove;
rightKerningGroup = A;
unicode = 1EA8;
},
{
glyphname = Acircumflextilde;
lastChange = "2015-10-24 11:20:15 +0000";
layers = (
{
layerId = "B67427C8-F911-4143-A2F2-7B953CC18A6E";
name = "Regular Italic";
paths = (
{
closed = 1;
nodes = (
"475 259 LINE",
"278 259 LINE",
"431 518 LINE"
);
},
{
closed = 1;
nodes = (
"472 155 LINE",
"501 0 LINE",
"636 0 LINE",
"527 644 LINE",
"379 644 LINE",
"-3 0 LINE",
"143 0 LINE",
"235 155 LINE"
);
},
{
closed = 1;
nodes = (
"626 838 OFFCURVE",
"658 852 OFFCURVE",
"674 870 CURVE",
"693 956 LINE",
"671 932 OFFCURVE",
"641 918 OFFCURVE",
"603 918 CURVE SMOOTH",
"547 918 OFFCURVE",
"511 958 OFFCURVE",
"450 958 CURVE SMOOTH",
"415 958 OFFCURVE",
"378 945 OFFCURVE",
"357 927 CURVE",
"338 841 LINE",
"367 866 OFFCURVE",
"399 878 OFFCURVE",
"436 878 CURVE SMOOTH",
"485 878 OFFCURVE",
"530 838 OFFCURVE",
"589 838 CURVE SMOOTH"
);
},
{
closed = 1;
nodes = (
"542 823 LINE",
"439 823 LINE",
"285 688 LINE",
"401 688 LINE",
"485 769 LINE",
"536 688 LINE",
"640 688 LINE"
);
}
);
width = 713;
}
);
leftKerningGroup = A;
note = Acircumflextilde;
rightKerningGroup = A;
unicode = 1EAA;
},
{
glyphname = Adieresis;
lastChange = "2015-10-24 11:20:14 +0000";
layers = (
{
layerId = "B67427C8-F911-4143-A2F2-7B953CC18A6E";
name = "Regular Italic";
paths = (
{
closed = 1;
nodes = (
"475 259 LINE",
"278 259 LINE",
"431 518 LINE"
);
},
{
closed = 1;
nodes = (
"472 155 LINE",
"501 0 LINE",
"636 0 LINE",
"527 644 LINE",
"379 644 LINE",
"-3 0 LINE",
"143 0 LINE",
"235 155 LINE"
);
},
{
closed = 1;
nodes = (
"421 712 LINE",
"442 810 LINE",
"337 810 LINE",
"316 712 LINE"
);
},
{
closed = 1;
nodes = (
"617 712 LINE",
"638 810 LINE",
"532 810 LINE",
"511 712 LINE"
);
}
);
width = 713;
}
);
leftKerningGroup = A;
note = Adieresis;
rightKerningGroup = A;
unicode = 00C4;
},
{
glyphname = Adotbelow;
lastChange = "2015-10-24 11:20:15 +0000";
layers = (
{
layerId = "B67427C8-F911-4143-A2F2-7B953CC18A6E";
name = "Regular Italic";
paths = (
{
closed = 1;
nodes = (
"475 259 LINE",
"278 259 LINE",
"431 518 LINE"
);
},
{
closed = 1;
nodes = (
"472 155 LINE",
"501 0 LINE",
"636 0 LINE",
"527 644 LINE",
"379 644 LINE",
"-3 0 LINE",
"143 0 LINE",
"235 155 LINE"
);
},
{
closed = 1;
nodes = (
"332 -181 LINE",
"353 -82 LINE",
"246 -82 LINE",
"225 -181 LINE"
);
}
);
width = 713;
}
);
leftKerningGroup = A;
note = Adotbelow;
rightKerningGroup = A;
unicode = 1EA0;
},
{
glyphname = Agrave;
lastChange = "2015-10-24 11:20:14 +0000";
layers = (
{
layerId = "B67427C8-F911-4143-A2F2-7B953CC18A6E";
name = "Regular Italic";
paths = (
{
closed = 1;
nodes = (
"475 259 LINE",
"278 259 LINE",
"431 518 LINE"
);
},
{
closed = 1;
nodes = (
"472 155 LINE",
"501 0 LINE",
"636 0 LINE",
"527 644 LINE",
"379 644 LINE",
"-3 0 LINE",
"143 0 LINE",
"235 155 LINE"
);
},
{
closed = 1;
nodes = (
"515 688 LINE",
"475 875 LINE",
"358 875 LINE",
"406 688 LINE"
);
}
);
width = 713;
}
);
leftKerningGroup = A;
note = Agrave;
rightKerningGroup = A;
unicode = 00C0;
},
{
glyphname = Ahookabove;
lastChange = "2015-10-24 11:20:15 +0000";
layers = (
{
layerId = "B67427C8-F911-4143-A2F2-7B953CC18A6E";
name = "Regular Italic";
paths = (
{
closed = 1;
nodes = (
"475 259 LINE",
"278 259 LINE",
"431 518 LINE"
);
},
{
closed = 1;
nodes = (
"472 155 LINE",
"501 0 LINE",
"636 0 LINE",
"527 644 LINE",
"379 644 LINE",
"-3 0 LINE",
"143 0 LINE",
"235 155 LINE"
);
},
{
closed = 1;
nodes = (
"645 887 OFFCURVE",
"607 925 OFFCURVE",
"522 925 CURVE SMOOTH",
"483 925 OFFCURVE",
"445 920 OFFCURVE",
"420 912 CURVE",
"405 845 LINE",
"423 852 OFFCURVE",
"451 856 OFFCURVE",
"470 856 CURVE SMOOTH",
"513 856 OFFCURVE",
"536 844 OFFCURVE",
"530 817 CURVE SMOOTH",
"524 787 OFFCURVE",
"504 773 OFFCURVE",
"430 769 CURVE",
"413 688 LINE",
"516 688 LINE",
"526 734 LINE",
"592 746 OFFCURVE",
"621 773 OFFCURVE",
"633 829 CURVE SMOOTH"
);
}
);
width = 713;
}
);
leftKerningGroup = A;
note = Ahookabove;
rightKerningGroup = A;
unicode = 1EA2;
},
{
glyphname = Amacron;
lastChange = "2015-10-24 11:20:14 +0000";
layers = (
{
layerId = "B67427C8-F911-4143-A2F2-7B953CC18A6E";
name = "Regular Italic";
paths = (
{
closed = 1;
nodes = (
"475 259 LINE",
"278 259 LINE",
"431 518 LINE"
);
},
{
closed = 1;
nodes = (
"472 155 LINE",
"501 0 LINE",
"636 0 LINE",
"527 644 LINE",
"379 644 LINE",
"-3 0 LINE",
"143 0 LINE",
"235 155 LINE"
);
},
{
closed = 1;
nodes = (
"330 790 LINE",
"313 707 LINE",
"620 707 LINE",
"637 790 LINE"
);
}
);
width = 713;
}
);
leftKerningGroup = A;
note = Amacron;
rightKerningGroup = A;
unicode = 0100;
},
{
glyphname = Aogonek;
lastChange = "2015-10-24 11:20:15 +0000";
layers = (
{
layerId = "B67427C8-F911-4143-A2F2-7B953CC18A6E";
name = "Regular Italic";
paths = (
{
closed = 1;
nodes = (
"555 -66 OFFCURVE",
"585 -28 OFFCURVE",
"636 0 CURVE",
"527 644 LINE",
"379 644 LINE",
"-3 0 LINE",
"143 0 LINE",
"235 155 LINE",
"478 155 LINE",
"507 0 LINE",
"477 -26 OFFCURVE",
"443 -71 OFFCURVE",
"436 -129 CURVE SMOOTH",
"428 -192 OFFCURVE",
"471 -220 OFFCURVE",
"532 -220 CURVE SMOOTH",
"565 -220 OFFCURVE",
"599 -214 OFFCURVE",
"619 -206 CURVE",
"635 -130 LINE",
"621 -137 OFFCURVE",
"601 -141 OFFCURVE",
"585 -141 CURVE SMOOTH",
"558 -141 OFFCURVE",
"541 -132 OFFCURVE",
"547 -104 CURVE SMOOTH"
);
},
{
closed = 1;
nodes = (
"475 259 LINE",
"278 259 LINE",
"431 518 LINE"
);
}
);
width = 713;
}
);
leftKerningGroup = A;
note = Aogonek;
rightKerningGroup = A;
unicode = 0104;
},
{
glyphname = Aring;
lastChange = "2015-10-24 11:20:14 +0000";
layers = (
{
layerId = "B67427C8-F911-4143-A2F2-7B953CC18A6E";
name = "Regular Italic";
paths = (
{
closed = 1;
nodes = (
"336 676 OFFCURVE",
"344 643 OFFCURVE",
"366 622 CURVE",
"-3 0 LINE",
"143 0 LINE",
"235 155 LINE",
"472 155 LINE",
"501 0 LINE",
"636 0 LINE",
"531 620 LINE",
"563 642 OFFCURVE",
"584 675 OFFCURVE",
"592 714 CURVE SMOOTH",
"606 781 OFFCURVE",
"570 834 OFFCURVE",
"492 834 CURVE SMOOTH",
"413 834 OFFCURVE",
"357 781 OFFCURVE",
"344 714 CURVE SMOOTH"
);
},
{
closed = 1;
nodes = (
"475 259 LINE",
"278 259 LINE",
"431 518 LINE"
);
},
{
closed = 1;
nodes = (
"416 746 OFFCURVE",
"440 771 OFFCURVE",
"479 771 CURVE SMOOTH",
"516 771 OFFCURVE",
"533 746 OFFCURVE",
"526 714 CURVE SMOOTH",
"519 682 OFFCURVE",
"497 657 OFFCURVE",
"455 657 CURVE SMOOTH",
"420 657 OFFCURVE",
"402 682 OFFCURVE",
"409 714 CURVE SMOOTH"
);
}
);
width = 713;
}
);
leftKerningGroup = A;
note = Aring;
rightKerningGroup = A;
unicode = 00C5;
},
{
glyphname = Aringacute;
lastChange = "2015-10-24 11:20:14 +0000";
layers = (
{
layerId = "B67427C8-F911-4143-A2F2-7B953CC18A6E";
name = "Regular Italic";
paths = (
{
closed = 1;
nodes = (
"336 676 OFFCURVE",
"344 643 OFFCURVE",
"366 622 CURVE",
"-3 0 LINE",
"143 0 LINE",
"235 155 LINE",
"472 155 LINE",
"501 0 LINE",
"636 0 LINE",
"531 620 LINE",
"563 642 OFFCURVE",
"584 675 OFFCURVE",
"592 714 CURVE SMOOTH",
"606 781 OFFCURVE",
"570 834 OFFCURVE",
"492 834 CURVE SMOOTH",
"413 834 OFFCURVE",
"357 781 OFFCURVE",
"344 714 CURVE SMOOTH"
);
},
{
closed = 1;
nodes = (
"475 259 LINE",
"278 259 LINE",
"431 518 LINE"
);
},
{
closed = 1;
nodes = (
"416 746 OFFCURVE",
"440 771 OFFCURVE",
"479 771 CURVE SMOOTH",
"516 771 OFFCURVE",
"533 746 OFFCURVE",
"526 714 CURVE SMOOTH",
"519 682 OFFCURVE",
"497 657 OFFCURVE",
"455 657 CURVE SMOOTH",
"420 657 OFFCURVE",
"402 682 OFFCURVE",
"409 714 CURVE SMOOTH"
);
},
{
closed = 1;
nodes = (
"543 854 LINE",
"671 1041 LINE",
"554 1041 LINE",
"434 854 LINE"
);
}
);
width = 713;
}
);
leftKerningGroup = A;
note = Aringacute;
rightKerningGroup = A;
unicode = 01FA;
},
{
glyphname = Atilde;
lastChange = "2015-10-24 11:20:14 +0000";
layers = (
{
layerId = "B67427C8-F911-4143-A2F2-7B953CC18A6E";
name = "Regular Italic";
paths = (
{
closed = 1;
nodes = (
"475 259 LINE",
"278 259 LINE",
"431 518 LINE"
);
},
{
closed = 1;
nodes = (
"472 155 LINE",
"501 0 LINE",
"636 0 LINE",
"527 644 LINE",
"379 644 LINE",
"-3 0 LINE",
"143 0 LINE",
"235 155 LINE"
);
},
{
closed = 1;
nodes = (
"586 689 OFFCURVE",
"619 703 OFFCURVE",
"635 721 CURVE",
"656 817 LINE",
"634 793 OFFCURVE",
"603 779 OFFCURVE",
"565 779 CURVE SMOOTH",
"509 779 OFFCURVE",
"473 819 OFFCURVE",
"412 819 CURVE SMOOTH",
"377 819 OFFCURVE",
"341 806 OFFCURVE",
"319 788 CURVE",
"298 692 LINE",
"327 717 OFFCURVE",
"359 729 OFFCURVE",
"396 729 CURVE SMOOTH",
"445 729 OFFCURVE",
"490 689 OFFCURVE",
"549 689 CURVE SMOOTH"
);
}
);
width = 713;
}
);
leftKerningGroup = A;
note = Atilde;
rightKerningGroup = A;
unicode = 00C3;
},
{
glyphname = AE;
lastChange = "2015-10-24 11:20:15 +0000";
layers = (
{
layerId = "B67427C8-F911-4143-A2F2-7B953CC18A6E";
name = "Regular Italic";
paths = (
{
closed = 1;
nodes = (
"772 0 LINE",
"794 104 LINE",
"520 104 LINE",
"555 270 LINE",
"792 270 LINE",
"814 374 LINE",
"577 374 LINE",
"612 539 LINE",
"886 539 LINE",
"908 644 LINE",
"379 644 LINE",
"-3 0 LINE",
"143 0 LINE",
"236 156 LINE",
"396 156 LINE",
"363 0 LINE"
);
},
{
closed = 1;
nodes = (
"289 260 LINE",
"452 544 LINE",
"478 544 LINE",
"418 260 LINE"
);
}
);
width = 849;
}
);
leftKerningGroup = A;
note = AE;
rightKerningGroup = E;
unicode = 00C6;
},
{
glyphname = AEacute;
lastChange = "2015-10-24 11:20:15 +0000";
layers = (
{
layerId = "B67427C8-F911-4143-A2F2-7B953CC18A6E";
name = "Regular Italic";
paths = (
{
closed = 1;
nodes = (
"772 0 LINE",
"794 104 LINE",
"520 104 LINE",
"555 270 LINE",
"792 270 LINE",
"814 374 LINE",
"577 374 LINE",
"612 539 LINE",
"886 539 LINE",
"908 644 LINE",
"379 644 LINE",
"-3 0 LINE",
"143 0 LINE",
"236 156 LINE",
"396 156 LINE",
"363 0 LINE"
);
},
{
closed = 1;
nodes = (
"289 260 LINE",
"452 544 LINE",
"478 544 LINE",
"418 260 LINE"
);
},
{
closed = 1;
nodes = (
"636 688 LINE",
"764 875 LINE",
"647 875 LINE",
"527 688 LINE"
);
}
);
width = 849;
}
);
leftKerningGroup = A;
note = AEacute;
rightKerningGroup = E;
unicode = 01FC;
},
{
glyphname = B;
lastChange = "2015-10-24 11:40:44 +0000";
layers = (
{
layerId = "B67427C8-F911-4143-A2F2-7B953CC18A6E";
name = "Regular Italic";
paths = (
{
closed = 1;
nodes = (
"615 266 OFFCURVE",
"587 311 OFFCURVE",
"531 330 CURVE",
"581 355 OFFCURVE",
"619 401 OFFCURVE",
"634 470 CURVE SMOOTH",
"656 573 OFFCURVE",
"602 644 OFFCURVE",
"479 644 CURVE SMOOTH",
"153 644 LINE",
"17 0 LINE",
"355 0 LINE SMOOTH",
"496 0 OFFCURVE",
"571 64 OFFCURVE",
"598 188 CURVE SMOOTH"
);
},
{
closed = 1;
nodes = (
"495 407 OFFCURVE",
"463 377 OFFCURVE",
"398 377 CURVE SMOOTH",
"232 377 LINE",
"267 544 LINE",
"423 544 LINE SMOOTH",
"500 544 OFFCURVE",
"518 516 OFFCURVE",
"506 459 CURVE SMOOTH"
);
},
{
closed = 1;
nodes = (
"173 99 LINE",
"211 279 LINE",
"373 279 LINE SMOOTH",
"454 279 OFFCURVE",
"475 251 OFFCURVE",
"463 194 CURVE SMOOTH",
"448 123 OFFCURVE",
"412 99 OFFCURVE",
"344 99 CURVE SMOOTH"
);
}
);
width = 636;
}
);
note = B;
unicode = 0042;
},
{
glyphname = C;
lastChange = "2015-10-24 11:41:56 +0000";
layers = (
{
layerId = "B67427C8-F911-4143-A2F2-7B953CC18A6E";
name = "Regular Italic";
paths = (
{
closed = 1;
nodes = (
"207 104 OFFCURVE",
"170 174 OFFCURVE",
"201 316 CURVE SMOOTH",
"233 466 OFFCURVE",
"307 539 OFFCURVE",
"454 539 CURVE SMOOTH",
"520 539 OFFCURVE",
"578 527 OFFCURVE",
"629 504 CURVE",
"654 622 LINE",
"603 642 OFFCURVE",
"546 654 OFFCURVE",
"469 654 CURVE SMOOTH",
"235 654 OFFCURVE",
"109 529 OFFCURVE",
"64 316 CURVE SMOOTH",
"21 115 OFFCURVE",
"128 -10 OFFCURVE",
"328 -10 CURVE SMOOTH",
"405 -10 OFFCURVE",
"468 1 OFFCURVE",
"527 19 CURVE",
"552 138 LINE",
"491 115 OFFCURVE",
"426 104 OFFCURVE",
"364 104 CURVE SMOOTH"
);
}
);
width = 600;
}
);
leftKerningGroup = C;
note = C;
rightKerningGroup = C;
unicode = 0043;
},
{
glyphname = Cacute;
lastChange = "2015-10-24 11:20:15 +0000";
layers = (
{
layerId = "B67427C8-F911-4143-A2F2-7B953CC18A6E";
name = "Regular Italic";
paths = (
{
closed = 1;
nodes = (
"207 104 OFFCURVE",
"170 174 OFFCURVE",
"201 316 CURVE SMOOTH",
"233 466 OFFCURVE",
"307 539 OFFCURVE",
"454 539 CURVE SMOOTH",
"520 539 OFFCURVE",
"578 527 OFFCURVE",
"629 504 CURVE",
"654 622 LINE",
"603 642 OFFCURVE",
"546 654 OFFCURVE",
"469 654 CURVE SMOOTH",
"235 654 OFFCURVE",
"109 529 OFFCURVE",
"64 316 CURVE SMOOTH",
"21 115 OFFCURVE",
"128 -10 OFFCURVE",
"328 -10 CURVE SMOOTH",
"405 -10 OFFCURVE",
"468 1 OFFCURVE",
"527 19 CURVE",
"552 138 LINE",
"491 115 OFFCURVE",
"426 104 OFFCURVE",
"364 104 CURVE SMOOTH"
);
},
{
closed = 1;
nodes = (
"517 688 LINE",
"645 875 LINE",
"528 875 LINE",
"408 688 LINE"
);
}
);
width = 600;
}
);
leftKerningGroup = C;
note = Cacute;
rightKerningGroup = C;
unicode = 0106;
},
{
glyphname = Ccaron;
lastChange = "2015-10-24 11:20:14 +0000";
layers = (
{
layerId = "B67427C8-F911-4143-A2F2-7B953CC18A6E";
name = "Regular Italic";
paths = (
{
closed = 1;
nodes = (
"207 104 OFFCURVE",
"170 174 OFFCURVE",
"201 316 CURVE SMOOTH",
"233 466 OFFCURVE",
"307 539 OFFCURVE",
"454 539 CURVE SMOOTH",
"520 539 OFFCURVE",
"578 527 OFFCURVE",
"629 504 CURVE",
"654 622 LINE",
"603 642 OFFCURVE",
"546 654 OFFCURVE",
"469 654 CURVE SMOOTH",
"235 654 OFFCURVE",
"109 529 OFFCURVE",
"64 316 CURVE SMOOTH",
"21 115 OFFCURVE",
"128 -10 OFFCURVE",
"328 -10 CURVE SMOOTH",
"405 -10 OFFCURVE",
"468 1 OFFCURVE",
"527 19 CURVE",
"552 138 LINE",
"491 115 OFFCURVE",
"426 104 OFFCURVE",
"364 104 CURVE SMOOTH"
);
},
{
closed = 1;
nodes = (
"694 862 LINE",
"585 862 LINE",
"489 762 LINE",
"439 862 LINE",
"339 862 LINE",
"436 688 LINE",
"522 688 LINE"
);
}
);
width = 600;
}
);
leftKerningGroup = C;
note = Ccaron;
rightKerningGroup = C;
unicode = 010C;
},
{
glyphname = Ccedilla;
lastChange = "2015-10-24 11:20:14 +0000";
layers = (
{
layerId = "B67427C8-F911-4143-A2F2-7B953CC18A6E";
name = "Regular Italic";
paths = (
{
closed = 1;
nodes = (
"442 -80 OFFCURVE",
"415 -45 OFFCURVE",
"344 -45 CURVE",
"364 -9 LINE",
"425 -6 OFFCURVE",
"477 4 OFFCURVE",
"527 19 CURVE",
"552 138 LINE",
"491 115 OFFCURVE",
"426 104 OFFCURVE",
"364 104 CURVE SMOOTH",
"207 104 OFFCURVE",
"170 174 OFFCURVE",
"201 316 CURVE SMOOTH",
"233 466 OFFCURVE",
"307 539 OFFCURVE",
"454 539 CURVE SMOOTH",
"520 539 OFFCURVE",
"578 527 OFFCURVE",
"629 504 CURVE",
"654 622 LINE",
"603 642 OFFCURVE",
"546 654 OFFCURVE",
"469 654 CURVE SMOOTH",
"235 654 OFFCURVE",
"109 529 OFFCURVE",
"64 316 CURVE SMOOTH",
"25 132 OFFCURVE",
"110 12 OFFCURVE",
"277 -7 CURVE",
"232 -98 LINE",
"276 -98 LINE SMOOTH",
"323 -98 OFFCURVE",
"351 -100 OFFCURVE",
"344 -135 CURVE SMOOTH",
"338 -167 OFFCURVE",
"315 -172 OFFCURVE",
"257 -172 CURVE SMOOTH",
"236 -172 OFFCURVE",
"215 -169 OFFCURVE",
"198 -164 CURVE",
"183 -232 LINE",
"197 -236 OFFCURVE",
"234 -240 OFFCURVE",
"257 -240 CURVE SMOOTH",
"361 -240 OFFCURVE",
"417 -202 OFFCURVE",
"431 -136 CURVE SMOOTH"
);
}
);
width = 600;
}
);
leftKerningGroup = C;
note = Ccedilla;
rightKerningGroup = C;
unicode = 00C7;
},
{
glyphname = Ccircumflex;
lastChange = "2015-10-24 11:20:15 +0000";
layers = (
{
layerId = "B67427C8-F911-4143-A2F2-7B953CC18A6E";
name = "Regular Italic";
paths = (
{
closed = 1;
nodes = (
"207 104 OFFCURVE",
"170 174 OFFCURVE",
"201 316 CURVE SMOOTH",
"233 466 OFFCURVE",
"307 539 OFFCURVE",
"454 539 CURVE SMOOTH",
"520 539 OFFCURVE",
"578 527 OFFCURVE",
"629 504 CURVE",
"654 622 LINE",
"603 642 OFFCURVE",
"546 654 OFFCURVE",
"469 654 CURVE SMOOTH",
"235 654 OFFCURVE",
"109 529 OFFCURVE",
"64 316 CURVE SMOOTH",
"21 115 OFFCURVE",
"128 -10 OFFCURVE",
"328 -10 CURVE SMOOTH",
"405 -10 OFFCURVE",
"468 1 OFFCURVE",
"527 19 CURVE",
"552 138 LINE",
"491 115 OFFCURVE",
"426 104 OFFCURVE",
"364 104 CURVE SMOOTH"
);
},
{
closed = 1;
nodes = (
"529 862 LINE",
"443 862 LINE",
"272 688 LINE",
"382 688 LINE",
"475 788 LINE",
"528 688 LINE",
"627 688 LINE"
);
}
);
width = 600;
}
);
leftKerningGroup = C;
note = Ccircumflex;
rightKerningGroup = C;
unicode = 0108;
},
{
glyphname = Cdotaccent;
lastChange = "2015-10-24 11:20:16 +0000";
layers = (
{
layerId = "B67427C8-F911-4143-A2F2-7B953CC18A6E";
name = "Regular Italic";
paths = (
{
closed = 1;
nodes = (
"207 104 OFFCURVE",
"170 174 OFFCURVE",
"201 316 CURVE SMOOTH",
"233 466 OFFCURVE",
"307 539 OFFCURVE",
"454 539 CURVE SMOOTH",
"520 539 OFFCURVE",
"578 527 OFFCURVE",
"629 504 CURVE",
"654 622 LINE",
"603 642 OFFCURVE",
"546 654 OFFCURVE",
"469 654 CURVE SMOOTH",
"235 654 OFFCURVE",
"109 529 OFFCURVE",
"64 316 CURVE SMOOTH",
"21 115 OFFCURVE",
"128 -10 OFFCURVE",
"328 -10 CURVE SMOOTH",
"405 -10 OFFCURVE",
"468 1 OFFCURVE",
"527 19 CURVE",
"552 138 LINE",
"491 115 OFFCURVE",
"426 104 OFFCURVE",
"364 104 CURVE SMOOTH"
);
},
{
closed = 1;
nodes = (
"520 713 LINE",
"541 811 LINE",
"436 811 LINE",
"415 713 LINE"
);
}
);
width = 600;
}
);
leftKerningGroup = C;
note = Cdotaccent;
rightKerningGroup = C;
unicode = 010A;
},
{
glyphname = D;
lastChange = "2015-10-24 11:20:14 +0000";
layers = (
{
layerId = "B67427C8-F911-4143-A2F2-7B953CC18A6E";
name = "Regular Italic";
paths = (
{
closed = 1;
nodes = (
"691 536 OFFCURVE",
"603 644 OFFCURVE",
"423 644 CURVE SMOOTH",
"153 644 LINE",
"17 0 LINE",
"287 0 LINE SMOOTH",
"493 0 OFFCURVE",
"600 98 OFFCURVE",
"646 319 CURVE SMOOTH"
);
},
{
closed = 1;
nodes = (
"472 144 OFFCURVE",
"396 104 OFFCURVE",
"290 104 CURVE SMOOTH",
"174 104 LINE",
"265 532 LINE",
"384 532 LINE SMOOTH",
"514 532 OFFCURVE",
"546 493 OFFCURVE",
"509 319 CURVE SMOOTH"
);
}
);
width = 656;
}
);
note = D;
rightKerningGroup = D;
unicode = 0044;
},
{
glyphname = Eth;
lastChange = "2015-10-24 11:20:14 +0000";
layers = (
{
layerId = "B67427C8-F911-4143-A2F2-7B953CC18A6E";
name = "Regular Italic";
paths = (
{
closed = 1;
nodes = (
"739 536 OFFCURVE",
"651 644 OFFCURVE",
"471 644 CURVE SMOOTH",
"201 644 LINE",
"143 368 LINE",
"75 368 LINE",
"53 264 LINE",
"121 264 LINE",
"65 0 LINE",
"335 0 LINE SMOOTH",
"541 0 OFFCURVE",
"648 98 OFFCURVE",
"694 319 CURVE SMOOTH"
);
},
{
closed = 1;
nodes = (
"520 144 OFFCURVE",
"444 104 OFFCURVE",
"338 104 CURVE SMOOTH",
"222 104 LINE",
"256 264 LINE",
"405 264 LINE",
"427 368 LINE",
"278 368 LINE",
"313 532 LINE",
"432 532 LINE SMOOTH",
"562 532 OFFCURVE",
"594 493 OFFCURVE",
"557 319 CURVE SMOOTH"
);
}
);
width = 704;
}
);
note = Eth;
rightKerningGroup = D;
unicode = 00D0;
},
{
glyphname = Dcaron;
lastChange = "2015-10-24 11:20:15 +0000";
layers = (
{
layerId = "B67427C8-F911-4143-A2F2-7B953CC18A6E";
name = "Regular Italic";
paths = (
{
closed = 1;
nodes = (
"691 536 OFFCURVE",
"603 644 OFFCURVE",
"423 644 CURVE SMOOTH",
"153 644 LINE",
"17 0 LINE",
"287 0 LINE SMOOTH",
"493 0 OFFCURVE",
"600 98 OFFCURVE",
"646 319 CURVE SMOOTH"
);
},
{
closed = 1;
nodes = (
"472 144 OFFCURVE",
"396 104 OFFCURVE",
"290 104 CURVE SMOOTH",
"174 104 LINE",
"265 532 LINE",
"384 532 LINE SMOOTH",
"514 532 OFFCURVE",
"546 493 OFFCURVE",
"509 319 CURVE SMOOTH"
);
},
{
closed = 1;
nodes = (
"632 884 LINE",
"523 884 LINE",
"427 784 LINE",
"377 884 LINE",
"277 884 LINE",
"374 710 LINE",
"460 710 LINE"
);
}
);
width = 656;
}
);
note = Dcaron;
rightKerningGroup = D;
unicode = 010E;
},
{
glyphname = Dcroat;
lastChange = "2015-10-24 11:20:15 +0000";
layers = (
{
layerId = "B67427C8-F911-4143-A2F2-7B953CC18A6E";
name = "Regular Italic";
paths = (
{
closed = 1;
nodes = (
"729 536 OFFCURVE",
"641 644 OFFCURVE",
"461 644 CURVE SMOOTH",
"191 644 LINE",
"133 368 LINE",
"65 368 LINE",
"43 264 LINE",
"111 264 LINE",
"55 0 LINE",
"325 0 LINE SMOOTH",
"531 0 OFFCURVE",
"638 98 OFFCURVE",
"684 319 CURVE SMOOTH"
);
},
{
closed = 1;
nodes = (
"510 144 OFFCURVE",
"434 104 OFFCURVE",
"328 104 CURVE SMOOTH",
"212 104 LINE",
"246 264 LINE",
"395 264 LINE",
"417 368 LINE",
"268 368 LINE",
"303 532 LINE",
"422 532 LINE SMOOTH",
"552 532 OFFCURVE",
"584 493 OFFCURVE",
"547 319 CURVE SMOOTH"
);
}
);
width = 694;
}
);
note = Dcroat;
rightKerningGroup = D;
unicode = 0110;
},
{
glyphname = Ddotbelow;
lastChange = "2015-10-24 11:20:15 +0000";
layers = (
{
layerId = "B67427C8-F911-4143-A2F2-7B953CC18A6E";
name = "Regular Italic";
paths = (
{
closed = 1;
nodes = (
"691 536 OFFCURVE",
"603 644 OFFCURVE",
"423 644 CURVE SMOOTH",
"153 644 LINE",
"17 0 LINE",
"287 0 LINE SMOOTH",
"493 0 OFFCURVE",
"600 98 OFFCURVE",
"646 319 CURVE SMOOTH"
);
},
{
closed = 1;
nodes = (
"472 144 OFFCURVE",
"396 104 OFFCURVE",
"290 104 CURVE SMOOTH",
"174 104 LINE",
"265 532 LINE",
"384 532 LINE SMOOTH",
"514 532 OFFCURVE",
"546 493 OFFCURVE",
"509 319 CURVE SMOOTH"
);
},
{
closed = 1;
nodes = (
"296 -181 LINE",
"317 -82 LINE",
"210 -82 LINE",
"189 -181 LINE"
);
}
);
width = 656;
}
);
note = Ddotbelow;
rightKerningGroup = D;
unicode = 1E0C;
},
{
glyphname = Dlinebelow;
lastChange = "2015-10-24 11:20:15 +0000";
layers = (
{
layerId = "B67427C8-F911-4143-A2F2-7B953CC18A6E";
name = "Regular Italic";
paths = (
{
closed = 1;
nodes = (
"691 536 OFFCURVE",
"603 644 OFFCURVE",
"423 644 CURVE SMOOTH",
"153 644 LINE",
"17 0 LINE",
"287 0 LINE SMOOTH",
"493 0 OFFCURVE",
"600 98 OFFCURVE",
"646 319 CURVE SMOOTH"
);
},
{
closed = 1;
nodes = (
"472 144 OFFCURVE",
"396 104 OFFCURVE",
"290 104 CURVE SMOOTH",
"174 104 LINE",
"265 532 LINE",
"384 532 LINE SMOOTH",
"514 532 OFFCURVE",
"546 493 OFFCURVE",
"509 319 CURVE SMOOTH"
);
},
{
closed = 1;
nodes = (
"63 -99 LINE",
"46 -182 LINE",
"353 -182 LINE",
"370 -99 LINE"
);
}
);
width = 656;
}
);
note = Dlinebelow;
rightKerningGroup = D;
unicode = 1E0E;
},
{
glyphname = E;
lastChange = "2015-10-24 11:41:36 +0000";
layers = (
{
layerId = "B67427C8-F911-4143-A2F2-7B953CC18A6E";
name = "Regular Italic";
paths = (
{
closed = 1;
nodes = (
"479 0 LINE",
"501 104 LINE",
"174 104 LINE",
"209 270 LINE",
"499 270 LINE",
"521 374 LINE",
"231 374 LINE",
"266 539 LINE",
"593 539 LINE",
"615 644 LINE",
"153 644 LINE",
"17 0 LINE"
);
}
);
width = 556;
}
);
leftKerningGroup = E;
note = E;
rightKerningGroup = E;
unicode = 0045;
},
{
glyphname = Eacute;
lastChange = "2015-10-24 11:20:15 +0000";
layers = (
{
layerId = "B67427C8-F911-4143-A2F2-7B953CC18A6E";
name = "Regular Italic";
paths = (
{
closed = 1;
nodes = (
"479 0 LINE",
"501 104 LINE",
"174 104 LINE",
"209 270 LINE",
"499 270 LINE",
"521 374 LINE",
"231 374 LINE",
"266 539 LINE",
"593 539 LINE",
"615 644 LINE",
"153 644 LINE",
"17 0 LINE"
);
},
{
closed = 1;
nodes = (
"437 688 LINE",
"565 875 LINE",
"448 875 LINE",
"328 688 LINE"
);
}
);
width = 556;
}
);
leftKerningGroup = E;
note = Eacute;
rightKerningGroup = E;
unicode = 00C9;
},
{
glyphname = Ebreve;
lastChange = "2015-10-24 11:20:16 +0000";
layers = (
{
layerId = "B67427C8-F911-4143-A2F2-7B953CC18A6E";
name = "Regular Italic";
paths = (
{
closed = 1;
nodes = (
"479 0 LINE",
"501 104 LINE",
"174 104 LINE",
"209 270 LINE",
"499 270 LINE",
"521 374 LINE",
"231 374 LINE",
"266 539 LINE",
"593 539 LINE",
"615 644 LINE",
"153 644 LINE",
"17 0 LINE"
);
},
{
closed = 1;
nodes = (
"278 845 LINE",
"257 747 OFFCURVE",
"308 688 OFFCURVE",
"400 688 CURVE SMOOTH",
"508 688 OFFCURVE",
"572 747 OFFCURVE",
"593 845 CURVE",
"498 845 LINE",
"489 803 OFFCURVE",
"458 766 OFFCURVE",
"412 766 CURVE SMOOTH",
"359 766 OFFCURVE",
"353 803 OFFCURVE",
"362 845 CURVE"
);
}
);
width = 556;
}
);
leftKerningGroup = E;
note = Ebreve;
rightKerningGroup = E;
unicode = 0114;
},
{
glyphname = Ecaron;
lastChange = "2015-10-24 11:20:16 +0000";
layers = (
{
layerId = "B67427C8-F911-4143-A2F2-7B953CC18A6E";
name = "Regular Italic";
paths = (
{
closed = 1;
nodes = (
"479 0 LINE",
"501 104 LINE",
"174 104 LINE",
"209 270 LINE",
"499 270 LINE",
"521 374 LINE",
"231 374 LINE",
"266 539 LINE",
"593 539 LINE",
"615 644 LINE",
"153 644 LINE",
"17 0 LINE"
);
},
{
closed = 1;
nodes = (
"618 862 LINE",
"509 862 LINE",
"413 762 LINE",
"363 862 LINE",
"263 862 LINE",
"360 688 LINE",
"446 688 LINE"
);
}
);
width = 556;
}
);
leftKerningGroup = E;
note = Ecaron;
rightKerningGroup = E;
unicode = 011A;
},
{
glyphname = Ecircumflex;
lastChange = "2015-10-24 11:20:15 +0000";
layers = (
{
layerId = "B67427C8-F911-4143-A2F2-7B953CC18A6E";
name = "Regular Italic";
paths = (
{
closed = 1;
nodes = (
"479 0 LINE",
"501 104 LINE",
"174 104 LINE",
"209 270 LINE",
"499 270 LINE",
"521 374 LINE",
"231 374 LINE",
"266 539 LINE",
"593 539 LINE",
"615 644 LINE",
"153 644 LINE",
"17 0 LINE"
);
},
{
closed = 1;
nodes = (
"473 862 LINE",
"387 862 LINE",
"216 688 LINE",
"326 688 LINE",
"419 788 LINE",
"472 688 LINE",
"571 688 LINE"
);
}
);
width = 556;
}
);
leftKerningGroup = E;
note = Ecircumflex;
rightKerningGroup = E;
unicode = 00CA;
},
{
glyphname = Ecircumflexacute;
lastChange = "2015-10-24 11:20:14 +0000";
layers = (
{
layerId = "B67427C8-F911-4143-A2F2-7B953CC18A6E";
name = "Regular Italic";
paths = (
{
closed = 1;
nodes = (
"479 0 LINE",
"501 104 LINE",
"174 104 LINE",
"209 270 LINE",
"499 270 LINE",
"521 374 LINE",
"231 374 LINE",
"266 539 LINE",
"593 539 LINE",
"615 644 LINE",
"153 644 LINE",
"17 0 LINE"
);
},
{
closed = 1;
nodes = (
"475 822 LINE",
"372 822 LINE",
"218 687 LINE",
"334 687 LINE",
"418 768 LINE",
"469 687 LINE",
"573 687 LINE"
);
},
{
closed = 1;
nodes = (
"616 804 LINE",
"719 945 LINE",
"617 945 LINE",
"522 804 LINE"
);
}
);
width = 551;
}
);
leftKerningGroup = E;
note = Ecircumflexacute;
rightKerningGroup = E;
unicode = 1EBE;
},
{
glyphname = Ecircumflexdotbelow;
lastChange = "2015-10-24 11:20:16 +0000";
layers = (
{
layerId = "B67427C8-F911-4143-A2F2-7B953CC18A6E";
name = "Regular Italic";
paths = (
{
closed = 1;
nodes = (
"479 0 LINE",
"501 104 LINE",
"174 104 LINE",
"209 270 LINE",
"499 270 LINE",
"521 374 LINE",
"231 374 LINE",
"266 539 LINE",
"593 539 LINE",
"615 644 LINE",
"153 644 LINE",
"17 0 LINE"
);
},
{
closed = 1;
nodes = (
"469 862 LINE",
"383 862 LINE",
"212 688 LINE",
"322 688 LINE",
"415 788 LINE",
"468 688 LINE",
"567 688 LINE"
);
},
{
closed = 1;
nodes = (
"259 -181 LINE",
"280 -82 LINE",
"173 -82 LINE",
"152 -181 LINE"
);
}
);
width = 556;
}
);
leftKerningGroup = E;
note = Ecircumflexdotbelow;
rightKerningGroup = E;
unicode = 1EC6;
},
{
glyphname = Ecircumflexgrave;
lastChange = "2015-10-24 11:20:16 +0000";
layers = (
{
layerId = "B67427C8-F911-4143-A2F2-7B953CC18A6E";
name = "Regular Italic";
paths = (
{
closed = 1;
nodes = (
"479 0 LINE",
"501 104 LINE",
"174 104 LINE",
"209 270 LINE",
"499 270 LINE",
"521 374 LINE",
"231 374 LINE",
"266 539 LINE",
"593 539 LINE",
"615 644 LINE",
"153 644 LINE",
"17 0 LINE"
);
},
{
closed = 1;
nodes = (
"321 804 LINE",
"285 945 LINE",
"183 945 LINE",
"226 804 LINE"
);
},
{
closed = 1;
nodes = (
"477 822 LINE",
"374 822 LINE",
"220 687 LINE",
"336 687 LINE",
"420 768 LINE",
"471 687 LINE",
"575 687 LINE"
);
}
);
width = 556;
}
);
leftKerningGroup = E;
note = Ecircumflexgrave;
rightKerningGroup = E;
unicode = 1EC0;
},
{
glyphname = Ecircumflexhookabove;
lastChange = "2015-10-24 11:20:16 +0000";
layers = (
{
layerId = "B67427C8-F911-4143-A2F2-7B953CC18A6E";
name = "Regular Italic";
paths = (
{
closed = 1;
nodes = (
"479 0 LINE",
"501 104 LINE",
"174 104 LINE",
"209 270 LINE",
"499 270 LINE",
"521 374 LINE",
"231 374 LINE",
"266 539 LINE",
"593 539 LINE",
"615 644 LINE",
"153 644 LINE",
"17 0 LINE"
);
},
{
closed = 1;
nodes = (
"728 943 OFFCURVE",
"695 976 OFFCURVE",
"625 976 CURVE SMOOTH",
"588 976 OFFCURVE",
"563 971 OFFCURVE",
"541 964 CURVE",
"527 902 LINE",
"544 909 OFFCURVE",
"563 914 OFFCURVE",
"583 914 CURVE SMOOTH",
"613 914 OFFCURVE",
"626 907 OFFCURVE",
"622 887 CURVE SMOOTH",
"618 865 OFFCURVE",
"602 855 OFFCURVE",
"541 852 CURVE",
"526 782 LINE",
"618 782 LINE",
"625 816 LINE",
"680 824 OFFCURVE",
"709 851 OFFCURVE",
"718 895 CURVE SMOOTH"
);
},
{
closed = 1;
nodes = (
"475 822 LINE",
"372 822 LINE",
"218 687 LINE",
"334 687 LINE",
"418 768 LINE",
"469 687 LINE",
"573 687 LINE"
);
}
);
width = 551;
}
);
leftKerningGroup = E;
note = Ecircumflexhookabove;
rightKerningGroup = E;
unicode = 1EC2;
},
{
glyphname = Ecircumflextilde;
lastChange = "2015-10-24 11:20:15 +0000";
layers = (
{
layerId = "B67427C8-F911-4143-A2F2-7B953CC18A6E";
name = "Regular Italic";
paths = (
{
closed = 1;
nodes = (
"479 0 LINE",
"501 104 LINE",
"174 104 LINE",
"209 270 LINE",
"499 270 LINE",
"521 374 LINE",
"231 374 LINE",
"266 539 LINE",
"593 539 LINE",
"615 644 LINE",
"153 644 LINE",
"17 0 LINE"
);
},
{
closed = 1;
nodes = (
"560 837 OFFCURVE",
"592 851 OFFCURVE",
"608 869 CURVE",
"627 955 LINE",
"605 931 OFFCURVE",
"575 917 OFFCURVE",
"537 917 CURVE SMOOTH",
"481 917 OFFCURVE",
"445 957 OFFCURVE",
"384 957 CURVE SMOOTH",
"349 957 OFFCURVE",
"312 944 OFFCURVE",
"291 926 CURVE",
"272 840 LINE",
"301 865 OFFCURVE",
"333 877 OFFCURVE",
"370 877 CURVE SMOOTH",
"419 877 OFFCURVE",
"464 837 OFFCURVE",
"523 837 CURVE SMOOTH"
);
},
{
closed = 1;
nodes = (
"476 822 LINE",
"373 822 LINE",
"219 687 LINE",
"335 687 LINE",
"419 768 LINE",
"470 687 LINE",
"574 687 LINE"
);
}
);
width = 556;
}
);
leftKerningGroup = E;
note = Ecircumflextilde;
rightKerningGroup = E;
unicode = 1EC4;
},
{
glyphname = Edieresis;
lastChange = "2015-10-24 11:20:15 +0000";
layers = (
{
layerId = "B67427C8-F911-4143-A2F2-7B953CC18A6E";
name = "Regular Italic";
paths = (
{
closed = 1;
nodes = (
"479 0 LINE",
"501 104 LINE",
"174 104 LINE",
"209 270 LINE",
"499 270 LINE",
"521 374 LINE",
"231 374 LINE",
"266 539 LINE",
"593 539 LINE",
"615 644 LINE",
"153 644 LINE",
"17 0 LINE"
);
},
{
closed = 1;
nodes = (
"358 713 LINE",
"379 811 LINE",
"274 811 LINE",
"253 713 LINE"
);
},
{
closed = 1;
nodes = (
"554 713 LINE",
"575 811 LINE",
"469 811 LINE",
"448 713 LINE"
);
}
);
width = 556;
}
);
leftKerningGroup = E;
note = Edieresis;
rightKerningGroup = E;
unicode = 00CB;
},
{
glyphname = Edotaccent;
lastChange = "2015-10-24 11:20:16 +0000";
layers = (
{
layerId = "B67427C8-F911-4143-A2F2-7B953CC18A6E";
name = "Regular Italic";
paths = (
{
closed = 1;
nodes = (
"479 0 LINE",
"501 104 LINE",
"174 104 LINE",
"209 270 LINE",
"499 270 LINE",
"521 374 LINE",
"231 374 LINE",
"266 539 LINE",
"593 539 LINE",
"615 644 LINE",
"153 644 LINE",
"17 0 LINE"
);
},
{
closed = 1;
nodes = (
"452 713 LINE",
"473 811 LINE",
"368 811 LINE",
"347 713 LINE"
);
}
);
width = 556;
}
);
leftKerningGroup = E;
note = Edotaccent;
rightKerningGroup = E;
unicode = 0116;
},
{
glyphname = Edotbelow;
lastChange = "2015-10-24 11:20:14 +0000";
layers = (
{
layerId = "B67427C8-F911-4143-A2F2-7B953CC18A6E";
name = "Regular Italic";
paths = (
{
closed = 1;
nodes = (
"479 0 LINE",
"501 104 LINE",
"174 104 LINE",
"209 270 LINE",
"499 270 LINE",
"521 374 LINE",
"231 374 LINE",
"266 539 LINE",
"593 539 LINE",
"615 644 LINE",
"153 644 LINE",
"17 0 LINE"
);
},
{
closed = 1;
nodes = (
"260 -181 LINE",
"281 -82 LINE",
"174 -82 LINE",
"153 -181 LINE"
);
}
);
width = 556;
}
);
leftKerningGroup = E;
note = Edotbelow;
rightKerningGroup = E;
unicode = 1EB8;
},
{
glyphname = Egrave;
lastChange = "2015-10-24 11:20:14 +0000";
layers = (
{
layerId = "B67427C8-F911-4143-A2F2-7B953CC18A6E";
name = "Regular Italic";
paths = (
{
closed = 1;
nodes = (
"479 0 LINE",
"501 104 LINE",
"174 104 LINE",
"209 270 LINE",
"499 270 LINE",
"521 374 LINE",
"231 374 LINE",
"266 539 LINE",
"593 539 LINE",
"615 644 LINE",
"153 644 LINE",
"17 0 LINE"
);
},
{
closed = 1;
nodes = (
"464 688 LINE",
"424 875 LINE",
"307 875 LINE",
"355 688 LINE"
);
}
);
width = 556;
}
);
leftKerningGroup = E;
note = Egrave;
rightKerningGroup = E;
unicode = 00C8;
},
{
glyphname = Ehookabove;
lastChange = "2015-10-24 11:20:15 +0000";
layers = (
{
layerId = "B67427C8-F911-4143-A2F2-7B953CC18A6E";
name = "Regular Italic";
paths = (
{
closed = 1;
nodes = (
"479 0 LINE",
"501 104 LINE",
"174 104 LINE",
"209 270 LINE",
"499 270 LINE",
"521 374 LINE",
"231 374 LINE",
"266 539 LINE",
"593 539 LINE",
"615 644 LINE",
"153 644 LINE",
"17 0 LINE"
);
},
{
closed = 1;
nodes = (
"573 886 OFFCURVE",
"535 924 OFFCURVE",
"450 924 CURVE SMOOTH",
"411 924 OFFCURVE",
"373 919 OFFCURVE",
"348 911 CURVE",
"333 844 LINE",
"351 851 OFFCURVE",
"379 855 OFFCURVE",
"398 855 CURVE SMOOTH",
"441 855 OFFCURVE",
"464 843 OFFCURVE",
"458 816 CURVE SMOOTH",
"452 786 OFFCURVE",
"432 772 OFFCURVE",
"358 768 CURVE",
"341 687 LINE",
"444 687 LINE",
"454 733 LINE",
"520 745 OFFCURVE",
"549 772 OFFCURVE",
"561 828 CURVE SMOOTH"
);
}
);
width = 556;
}
);
leftKerningGroup = E;
note = Ehookabove;
rightKerningGroup = E;
unicode = 1EBA;
},
{
glyphname = Emacron;
lastChange = "2015-10-24 11:20:13 +0000";
layers = (
{
layerId = "B67427C8-F911-4143-A2F2-7B953CC18A6E";
name = "Regular Italic";
paths = (
{
closed = 1;
nodes = (
"479 0 LINE",
"501 104 LINE",
"174 104 LINE",
"209 270 LINE",
"499 270 LINE",
"521 374 LINE",
"231 374 LINE",
"266 539 LINE",
"593 539 LINE",
"615 644 LINE",
"153 644 LINE",
"17 0 LINE"
);
},
{
closed = 1;
nodes = (
"259 805 LINE",
"242 722 LINE",
"549 722 LINE",
"566 805 LINE"
);
}
);
width = 556;
}
);
leftKerningGroup = E;
note = Emacron;
rightKerningGroup = E;
unicode = 0112;
},
{
glyphname = Eogonek;
lastChange = "2015-10-24 11:20:15 +0000";
layers = (
{
layerId = "B67427C8-F911-4143-A2F2-7B953CC18A6E";
name = "Regular Italic";
paths = (
{
closed = 1;
nodes = (
"479 0 LINE",
"501 104 LINE",
"174 104 LINE",
"209 270 LINE",
"499 270 LINE",
"521 374 LINE",
"231 374 LINE",
"266 539 LINE",
"593 539 LINE",
"615 644 LINE",
"153 644 LINE",
"17 0 LINE"
);
},
{
closed = 1;
nodes = (
"355 -66 OFFCURVE",
"389 -30 OFFCURVE",
"436 0 CURVE",
"336 0 LINE",
"283 -32 OFFCURVE",
"247 -79 OFFCURVE",
"236 -129 CURVE SMOOTH",
"223 -191 OFFCURVE",
"271 -220 OFFCURVE",
"332 -220 CURVE SMOOTH",
"365 -220 OFFCURVE",
"399 -214 OFFCURVE",
"419 -206 CURVE",
"435 -130 LINE",
"421 -137 OFFCURVE",
"401 -141 OFFCURVE",
"385 -141 CURVE SMOOTH",
"358 -141 OFFCURVE",
"341 -132 OFFCURVE",
"347 -104 CURVE SMOOTH"
);
}
);
width = 556;
}
);
leftKerningGroup = E;
note = Eogonek;
rightKerningGroup = E;
unicode = 0118;
},
{
glyphname = Etilde;
lastChange = "2015-10-24 11:20:14 +0000";
layers = (
{
layerId = "B67427C8-F911-4143-A2F2-7B953CC18A6E";
name = "Regular Italic";
paths = (
{
closed = 1;
nodes = (
"479 0 LINE",
"501 104 LINE",
"174 104 LINE",
"209 270 LINE",
"499 270 LINE",
"521 374 LINE",
"231 374 LINE",
"266 539 LINE",
"593 539 LINE",
"615 644 LINE",
"153 644 LINE",
"17 0 LINE"
);
},
{
closed = 1;
nodes = (
"520 700 OFFCURVE",
"553 714 OFFCURVE",
"569 732 CURVE",
"590 828 LINE",
"568 804 OFFCURVE",
"537 790 OFFCURVE",
"499 790 CURVE SMOOTH",
"443 790 OFFCURVE",
"407 830 OFFCURVE",
"346 830 CURVE SMOOTH",
"311 830 OFFCURVE",
"275 817 OFFCURVE",
"253 799 CURVE",
"232 703 LINE",
"261 728 OFFCURVE",
"293 740 OFFCURVE",
"330 740 CURVE SMOOTH",
"379 740 OFFCURVE",
"424 700 OFFCURVE",
"483 700 CURVE SMOOTH"
);
}
);
width = 556;
}
);
leftKerningGroup = E;
note = Etilde;
rightKerningGroup = E;
unicode = 1EBC;
},
{
glyphname = F;
lastChange = "2015-10-24 11:20:14 +0000";
layers = (
{
layerId = "B67427C8-F911-4143-A2F2-7B953CC18A6E";
name = "Regular Italic";
paths = (
{
closed = 1;
nodes = (
"152 0 LINE",
"209 270 LINE",
"490 270 LINE",
"512 374 LINE",
"231 374 LINE",
"266 539 LINE",
"584 539 LINE",
"606 644 LINE",
"153 644 LINE",
"17 0 LINE"
);
}
);
width = 527;
}
);
note = F;
unicode = 0046;
},
{
glyphname = G;
lastChange = "2015-10-24 11:41:51 +0000";
layers = (
{
layerId = "B67427C8-F911-4143-A2F2-7B953CC18A6E";
name = "Regular Italic";
paths = (
{
closed = 1;
nodes = (
"479 124 LINE",
"442 112 OFFCURVE",
"396 104 OFFCURVE",
"351 104 CURVE SMOOTH",
"201 104 OFFCURVE",
"170 174 OFFCURVE",
"200 311 CURVE SMOOTH",
"232 464 OFFCURVE",
"314 539 OFFCURVE",
"459 539 CURVE SMOOTH",
"524 539 OFFCURVE",
"585 531 OFFCURVE",
"637 511 CURVE",
"662 627 LINE",
"610 645 OFFCURVE",
"551 654 OFFCURVE",
"474 654 CURVE SMOOTH",
"250 654 OFFCURVE",
"108 524 OFFCURVE",
"63 311 CURVE SMOOTH",
"20 110 OFFCURVE",
"118 -10 OFFCURVE",
"324 -10 CURVE SMOOTH",
"443 -10 OFFCURVE",
"526 17 OFFCURVE",
"576 45 CURVE",
"643 360 LINE",
"379 360 LINE",
"361 274 LINE",
"511 274 LINE"
);
}
);
width = 644;
}
);
leftKerningGroup = G;
note = G;
unicode = 0047;
},
{
glyphname = Gbreve;
lastChange = "2015-10-24 11:20:15 +0000";
layers = (
{
layerId = "B67427C8-F911-4143-A2F2-7B953CC18A6E";
name = "Regular Italic";
paths = (
{
closed = 1;
nodes = (
"479 124 LINE",
"442 112 OFFCURVE",
"396 104 OFFCURVE",
"351 104 CURVE SMOOTH",
"201 104 OFFCURVE",
"170 174 OFFCURVE",
"200 311 CURVE SMOOTH",
"232 464 OFFCURVE",
"314 539 OFFCURVE",
"459 539 CURVE SMOOTH",
"524 539 OFFCURVE",
"585 531 OFFCURVE",
"637 511 CURVE",
"662 627 LINE",
"610 645 OFFCURVE",
"551 654 OFFCURVE",
"474 654 CURVE SMOOTH",
"250 654 OFFCURVE",
"108 524 OFFCURVE",
"63 311 CURVE SMOOTH",
"20 110 OFFCURVE",
"118 -10 OFFCURVE",
"324 -10 CURVE SMOOTH",
"443 -10 OFFCURVE",
"526 17 OFFCURVE",
"576 45 CURVE",
"643 360 LINE",
"379 360 LINE",
"361 274 LINE",
"511 274 LINE"
);
},
{
closed = 1;
nodes = (
"351 845 LINE",
"330 747 OFFCURVE",
"381 688 OFFCURVE",
"473 688 CURVE SMOOTH",
"581 688 OFFCURVE",
"645 747 OFFCURVE",
"666 845 CURVE",
"571 845 LINE",
"562 803 OFFCURVE",
"531 766 OFFCURVE",
"485 766 CURVE SMOOTH",
"432 766 OFFCURVE",
"426 803 OFFCURVE",
"435 845 CURVE"
);
}
);
width = 644;
}
);
leftKerningGroup = G;
note = Gbreve;
unicode = 011E;
},
{
glyphname = Gcaron;
lastChange = "2015-10-24 11:20:16 +0000";
layers = (
{
layerId = "B67427C8-F911-4143-A2F2-7B953CC18A6E";
name = "Regular Italic";
paths = (
{
closed = 1;
nodes = (
"479 124 LINE",
"442 112 OFFCURVE",
"396 104 OFFCURVE",
"351 104 CURVE SMOOTH",
"201 104 OFFCURVE",
"170 174 OFFCURVE",
"200 311 CURVE SMOOTH",
"232 464 OFFCURVE",
"314 539 OFFCURVE",
"459 539 CURVE SMOOTH",
"524 539 OFFCURVE",
"585 531 OFFCURVE",
"637 511 CURVE",
"662 627 LINE",
"610 645 OFFCURVE",
"551 654 OFFCURVE",
"474 654 CURVE SMOOTH",
"250 654 OFFCURVE",
"108 524 OFFCURVE",
"63 311 CURVE SMOOTH",
"20 110 OFFCURVE",
"118 -10 OFFCURVE",
"324 -10 CURVE SMOOTH",
"443 -10 OFFCURVE",
"526 17 OFFCURVE",
"576 45 CURVE",
"643 360 LINE",
"379 360 LINE",
"361 274 LINE",
"511 274 LINE"
);
},
{
closed = 1;
nodes = (
"687 861 LINE",
"578 861 LINE",
"482 761 LINE",
"432 861 LINE",
"332 861 LINE",
"429 687 LINE",
"515 687 LINE"
);
}
);
width = 644;
}
);
leftKerningGroup = G;
note = Gcaron;
unicode = 01E6;
},
{
glyphname = Gcircumflex;
lastChange = "2015-10-24 11:20:14 +0000";
layers = (
{
layerId = "B67427C8-F911-4143-A2F2-7B953CC18A6E";
name = "Regular Italic";
paths = (
{
closed = 1;
nodes = (
"479 124 LINE",
"442 112 OFFCURVE",
"396 104 OFFCURVE",
"351 104 CURVE SMOOTH",
"201 104 OFFCURVE",
"170 174 OFFCURVE",
"200 311 CURVE SMOOTH",
"232 464 OFFCURVE",
"314 539 OFFCURVE",
"459 539 CURVE SMOOTH",
"524 539 OFFCURVE",
"585 531 OFFCURVE",
"637 511 CURVE",
"662 627 LINE",
"610 645 OFFCURVE",
"551 654 OFFCURVE",
"474 654 CURVE SMOOTH",
"250 654 OFFCURVE",
"108 524 OFFCURVE",
"63 311 CURVE SMOOTH",
"20 110 OFFCURVE",
"118 -10 OFFCURVE",
"324 -10 CURVE SMOOTH",
"443 -10 OFFCURVE",
"526 17 OFFCURVE",
"576 45 CURVE",
"643 360 LINE",
"379 360 LINE",
"361 274 LINE",
"511 274 LINE"
);
},
{
closed = 1;
nodes = (
"546 862 LINE",
"460 862 LINE",
"289 688 LINE",
"399 688 LINE",
"492 788 LINE",
"545 688 LINE",
"644 688 LINE"
);
}
);
width = 644;
}
);
leftKerningGroup = G;
note = Gcircumflex;
unicode = 011C;
},
{
glyphname = Gcommaaccent;
lastChange = "2015-10-24 11:20:15 +0000";
layers = (
{
layerId = "B67427C8-F911-4143-A2F2-7B953CC18A6E";
name = "Regular Italic";
paths = (
{
closed = 1;
nodes = (
"479 124 LINE",
"442 112 OFFCURVE",
"396 104 OFFCURVE",
"351 104 CURVE SMOOTH",
"201 104 OFFCURVE",
"170 174 OFFCURVE",
"200 311 CURVE SMOOTH",
"232 464 OFFCURVE",
"314 539 OFFCURVE",
"459 539 CURVE SMOOTH",
"524 539 OFFCURVE",
"585 531 OFFCURVE",
"637 511 CURVE",
"662 627 LINE",
"610 645 OFFCURVE",
"551 654 OFFCURVE",
"474 654 CURVE SMOOTH",
"250 654 OFFCURVE",
"108 524 OFFCURVE",
"63 311 CURVE SMOOTH",
"20 110 OFFCURVE",
"118 -10 OFFCURVE",
"324 -10 CURVE SMOOTH",
"443 -10 OFFCURVE",
"526 17 OFFCURVE",
"576 45 CURVE",
"643 360 LINE",
"379 360 LINE",
"361 274 LINE",
"511 274 LINE"
);
},
{
closed = 1;
nodes = (
"292 -238 LINE",
"385 -37 LINE",
"279 -37 LINE",
"206 -238 LINE"
);
}
);
width = 644;
}
);
leftKerningGroup = G;
note = Gcommaaccent;
unicode = 0122;
},
{
glyphname = Gdotaccent;
lastChange = "2015-10-24 11:20:13 +0000";
layers = (
{
layerId = "B67427C8-F911-4143-A2F2-7B953CC18A6E";
name = "Regular Italic";
paths = (
{
closed = 1;
nodes = (
"479 124 LINE",
"442 112 OFFCURVE",
"396 104 OFFCURVE",
"351 104 CURVE SMOOTH",
"201 104 OFFCURVE",
"170 174 OFFCURVE",
"200 311 CURVE SMOOTH",
"232 464 OFFCURVE",
"314 539 OFFCURVE",
"459 539 CURVE SMOOTH",
"524 539 OFFCURVE",
"585 531 OFFCURVE",
"637 511 CURVE",
"662 627 LINE",
"610 645 OFFCURVE",
"551 654 OFFCURVE",
"474 654 CURVE SMOOTH",
"250 654 OFFCURVE",
"108 524 OFFCURVE",
"63 311 CURVE SMOOTH",
"20 110 OFFCURVE",
"118 -10 OFFCURVE",
"324 -10 CURVE SMOOTH",
"443 -10 OFFCURVE",
"526 17 OFFCURVE",
"576 45 CURVE",
"643 360 LINE",
"379 360 LINE",
"361 274 LINE",
"511 274 LINE"
);
},
{
closed = 1;
nodes = (
"538 713 LINE",
"559 811 LINE",
"454 811 LINE",
"433 713 LINE"
);
}
);
width = 644;
}
);
leftKerningGroup = G;
note = Gdotaccent;
unicode = 0120;
},
{
glyphname = Gmacron;
lastChange = "2015-10-24 11:20:16 +0000";
layers = (
{
layerId = "B67427C8-F911-4143-A2F2-7B953CC18A6E";
name = "Regular Italic";
paths = (
{
closed = 1;
nodes = (
"479 124 LINE",
"442 112 OFFCURVE",
"396 104 OFFCURVE",
"351 104 CURVE SMOOTH",
"201 104 OFFCURVE",
"170 174 OFFCURVE",
"200 311 CURVE SMOOTH",
"232 464 OFFCURVE",
"314 539 OFFCURVE",
"459 539 CURVE SMOOTH",
"524 539 OFFCURVE",
"585 531 OFFCURVE",
"637 511 CURVE",
"662 627 LINE",
"610 645 OFFCURVE",
"551 654 OFFCURVE",
"474 654 CURVE SMOOTH",
"250 654 OFFCURVE",
"108 524 OFFCURVE",
"63 311 CURVE SMOOTH",
"20 110 OFFCURVE",
"118 -10 OFFCURVE",
"324 -10 CURVE SMOOTH",
"443 -10 OFFCURVE",
"526 17 OFFCURVE",
"576 45 CURVE",
"643 360 LINE",
"379 360 LINE",
"361 274 LINE",
"511 274 LINE"
);
},
{
closed = 1;
nodes = (
"348 800 LINE",
"331 717 LINE",
"638 717 LINE",
"655 800 LINE"
);
}
);
width = 644;
}
);
leftKerningGroup = G;
note = Gmacron;
unicode = 1E20;
},
{
glyphname = H;
lastChange = "2015-10-24 11:20:16 +0000";
layers = (
{
layerId = "B67427C8-F911-4143-A2F2-7B953CC18A6E";
name = "Regular Italic";
paths = (
{
closed = 1;
nodes = (
"568 0 LINE",
"704 644 LINE",
"569 644 LINE",
"512 374 LINE",
"231 374 LINE",
"288 644 LINE",
"153 644 LINE",
"17 0 LINE",
"152 0 LINE",
"209 270 LINE",
"490 270 LINE",
"433 0 LINE"
);
}
);
width = 665;
}
);
note = H;
unicode = 0048;
},
{
glyphname = Hbar;
lastChange = "2015-10-24 11:20:15 +0000";
layers = (
{
layerId = "B67427C8-F911-4143-A2F2-7B953CC18A6E";
name = "Regular Italic";
paths = (
{
closed = 1;
nodes = (
"568 0 LINE",
"663 451 LINE",
"702 451 LINE",
"725 556 LINE",
"685 556 LINE",
"704 644 LINE",
"569 644 LINE",
"550 556 LINE",
"269 556 LINE",
"288 644 LINE",
"153 644 LINE",
"134 556 LINE",
"91 556 LINE",
"68 451 LINE",
"112 451 LINE",
"17 0 LINE",
"152 0 LINE",
"209 270 LINE",
"490 270 LINE",
"433 0 LINE"
);
},
{
closed = 1;
nodes = (
"231 374 LINE",
"247 451 LINE",
"528 451 LINE",
"512 374 LINE"
);
}
);
width = 666;
}
);
note = Hbar;
unicode = 0126;
},
{
glyphname = Hbrevebelow;
lastChange = "2015-10-24 11:20:16 +0000";
layers = (
{
layerId = "B67427C8-F911-4143-A2F2-7B953CC18A6E";
name = "Regular Italic";
paths = (
{
closed = 1;
nodes = (
"568 0 LINE",
"704 644 LINE",
"569 644 LINE",
"512 374 LINE",
"231 374 LINE",
"288 644 LINE",
"153 644 LINE",
"17 0 LINE",
"152 0 LINE",
"209 270 LINE",
"490 270 LINE",
"433 0 LINE"
);
},
{
closed = 1;
nodes = (
"121 -60 LINE",
"100 -158 OFFCURVE",
"160 -217 OFFCURVE",
"244 -217 CURVE SMOOTH",
"344 -217 OFFCURVE",
"415 -158 OFFCURVE",
"436 -60 CURVE",
"342 -60 LINE",
"333 -102 OFFCURVE",
"303 -139 OFFCURVE",
"257 -139 CURVE SMOOTH",
"205 -139 OFFCURVE",
"198 -102 OFFCURVE",
"207 -60 CURVE"
);
}
);
width = 665;
}
);
note = Hbrevebelow;
unicode = 1E2A;
},
{
glyphname = Hcircumflex;
lastChange = "2015-10-24 11:20:15 +0000";
layers = (
{
layerId = "B67427C8-F911-4143-A2F2-7B953CC18A6E";
name = "Regular Italic";
paths = (
{
closed = 1;
nodes = (
"568 0 LINE",
"704 644 LINE",
"569 644 LINE",
"512 374 LINE",
"231 374 LINE",
"288 644 LINE",
"153 644 LINE",
"17 0 LINE",
"152 0 LINE",
"209 270 LINE",
"490 270 LINE",
"433 0 LINE"
);
},
{
closed = 1;
nodes = (
"518 862 LINE",
"432 862 LINE",
"261 688 LINE",
"371 688 LINE",
"464 788 LINE",
"517 688 LINE",
"616 688 LINE"
);
}
);
width = 665;
}
);
note = Hcircumflex;
unicode = 0124;
},
{
glyphname = Hdotbelow;
lastChange = "2015-10-24 11:20:14 +0000";
layers = (
{
layerId = "B67427C8-F911-4143-A2F2-7B953CC18A6E";
name = "Regular Italic";
paths = (
{
closed = 1;
nodes = (
"568 0 LINE",
"704 644 LINE",
"569 644 LINE",
"512 374 LINE",
"231 374 LINE",
"288 644 LINE",
"153 644 LINE",
"17 0 LINE",
"152 0 LINE",
"209 270 LINE",
"490 270 LINE",
"433 0 LINE"
);
},
{
closed = 1;
nodes = (
"307 -181 LINE",
"328 -82 LINE",
"221 -82 LINE",
"200 -181 LINE"
);
}
);
width = 665;
}
);
note = Hdotbelow;
unicode = 1E24;
},
{
glyphname = I;
lastChange = "2015-10-24 11:20:14 +0000";
layers = (
{
layerId = "B67427C8-F911-4143-A2F2-7B953CC18A6E";
name = "Regular Italic";
paths = (
{
closed = 1;
nodes = (
"152 0 LINE",
"288 644 LINE",
"153 644 LINE",
"17 0 LINE"
);
}
);
width = 249;
}
);
note = I;
unicode = 0049;
},
{
glyphname = IJ;
lastChange = "2015-10-24 11:20:16 +0000";
layers = (
{
layerId = "B67427C8-F911-4143-A2F2-7B953CC18A6E";
name = "Regular Italic";
paths = (
{
closed = 1;
nodes = (
"152 0 LINE",
"288 644 LINE",
"153 644 LINE",
"17 0 LINE"
);
},
{
closed = 1;
nodes = (
"717 644 LINE",
"582 644 LINE",
"491 214 LINE SMOOTH",
"475 137 OFFCURVE",
"441 105 OFFCURVE",
"353 105 CURVE SMOOTH",
"311 105 OFFCURVE",
"270 113 OFFCURVE",
"240 127 CURVE",
"216 13 LINE",
"254 -2 OFFCURVE",
"300 -10 OFFCURVE",
"355 -10 CURVE SMOOTH",
"510 -10 OFFCURVE",
"592 55 OFFCURVE",
"620 184 CURVE SMOOTH"
);
}
);
width = 674;
}
);
note = IJ;
unicode = 0132;
},
{
glyphname = Iacute;
lastChange = "2015-10-24 11:20:15 +0000";
layers = (
{
layerId = "B67427C8-F911-4143-A2F2-7B953CC18A6E";
name = "Regular Italic";
paths = (
{
closed = 1;
nodes = (
"152 0 LINE",
"288 644 LINE",
"153 644 LINE",
"17 0 LINE"
);
},
{
closed = 1;
nodes = (
"285 688 LINE",
"413 875 LINE",
"296 875 LINE",
"176 688 LINE"
);
}
);
width = 250;
}
);
note = Iacute;
unicode = 00CD;
},
{
glyphname = Ibreve;
lastChange = "2015-10-24 11:20:15 +0000";
layers = (
{
layerId = "B67427C8-F911-4143-A2F2-7B953CC18A6E";
name = "Regular Italic";
paths = (
{
closed = 1;
nodes = (
"152 0 LINE",
"288 644 LINE",
"153 644 LINE",
"17 0 LINE"
);
},
{
closed = 1;
nodes = (
"110 858 LINE",
"89 760 OFFCURVE",
"140 701 OFFCURVE",
"232 701 CURVE SMOOTH",
"340 701 OFFCURVE",
"404 760 OFFCURVE",
"425 858 CURVE",
"330 858 LINE",
"321 816 OFFCURVE",
"290 779 OFFCURVE",
"244 779 CURVE SMOOTH",
"191 779 OFFCURVE",
"185 816 OFFCURVE",
"194 858 CURVE"
);
}
);
width = 250;
}
);
note = Ibreve;
unicode = 012C;
},
{
glyphname = Icaron;
lastChange = "2015-10-24 11:20:14 +0000";
layers = (
{
layerId = "B67427C8-F911-4143-A2F2-7B953CC18A6E";
name = "Regular Italic";
paths = (
{
closed = 1;
nodes = (
"152 0 LINE",
"288 644 LINE",
"153 644 LINE",
"17 0 LINE"
);
},
{
closed = 1;
nodes = (
"446 862 LINE",
"337 862 LINE",
"241 762 LINE",
"191 862 LINE",
"91 862 LINE",
"188 688 LINE",
"274 688 LINE"
);
}
);
width = 250;
}
);
note = Icaron;
unicode = 01CF;
},
{
glyphname = Icircumflex;
lastChange = "2015-10-24 11:20:14 +0000";
layers = (
{
layerId = "B67427C8-F911-4143-A2F2-7B953CC18A6E";
name = "Regular Italic";
paths = (
{
closed = 1;
nodes = (
"152 0 LINE",
"288 644 LINE",
"153 644 LINE",
"17 0 LINE"
);
},
{
closed = 1;
nodes = (
"311 862 LINE",
"225 862 LINE",
"54 688 LINE",
"164 688 LINE",
"257 788 LINE",
"310 688 LINE",
"409 688 LINE"
);
}
);
width = 250;
}
);
note = Icircumflex;
unicode = 00CE;
},
{
glyphname = Idieresis;
lastChange = "2015-10-24 11:20:13 +0000";
layers = (
{
layerId = "B67427C8-F911-4143-A2F2-7B953CC18A6E";
name = "Regular Italic";
paths = (
{
closed = 1;
nodes = (
"152 0 LINE",
"288 644 LINE",
"153 644 LINE",
"17 0 LINE"
);
},
{
closed = 1;
nodes = (
"192 718 LINE",
"213 816 LINE",
"108 816 LINE",
"87 718 LINE"
);
},
{
closed = 1;
nodes = (
"388 718 LINE",
"409 816 LINE",
"303 816 LINE",
"282 718 LINE"
);
}
);
width = 249;
}
);
note = Idieresis;
unicode = 00CF;
},
{
glyphname = Idotaccent;
lastChange = "2015-10-24 11:20:16 +0000";
layers = (
{
layerId = "B67427C8-F911-4143-A2F2-7B953CC18A6E";
name = "Regular Italic";
paths = (
{
closed = 1;
nodes = (
"152 0 LINE",
"288 644 LINE",
"153 644 LINE",
"17 0 LINE"
);
},
{
closed = 1;
nodes = (
"289 718 LINE",
"310 816 LINE",
"205 816 LINE",
"184 718 LINE"
);
}
);
width = 249;
}
);
note = Idotaccent;
unicode = 0130;
},
{
glyphname = Idotbelow;
lastChange = "2015-10-24 11:20:15 +0000";
layers = (
{
layerId = "B67427C8-F911-4143-A2F2-7B953CC18A6E";
name = "Regular Italic";
paths = (
{
closed = 1;
nodes = (
"152 0 LINE",
"288 644 LINE",
"153 644 LINE",
"17 0 LINE"
);
},
{
closed = 1;
nodes = (
"100 -181 LINE",
"121 -82 LINE",
"14 -82 LINE",
"-7 -181 LINE"
);
}
);
width = 249;
}
);
note = Idotbelow;
unicode = 1ECA;
},
{
glyphname = Igrave;
lastChange = "2015-10-24 11:20:14 +0000";
layers = (
{
layerId = "B67427C8-F911-4143-A2F2-7B953CC18A6E";
name = "Regular Italic";
paths = (
{
closed = 1;
nodes = (
"152 0 LINE",
"288 644 LINE",
"153 644 LINE",
"17 0 LINE"
);
},
{
closed = 1;
nodes = (
"284 688 LINE",
"244 875 LINE",
"127 875 LINE",
"175 688 LINE"
);
}
);
width = 249;
}
);
note = Igrave;
unicode = 00CC;
},
{
glyphname = Ihookabove;
lastChange = "2015-10-24 11:20:15 +0000";
layers = (
{
layerId = "B67427C8-F911-4143-A2F2-7B953CC18A6E";
name = "Regular Italic";
paths = (
{
closed = 1;
nodes = (
"152 0 LINE",
"288 644 LINE",
"153 644 LINE",
"17 0 LINE"
);
},
{
closed = 1;
nodes = (
"410 886 OFFCURVE",
"372 924 OFFCURVE",
"287 924 CURVE SMOOTH",
"248 924 OFFCURVE",
"210 919 OFFCURVE",
"185 911 CURVE",
"170 844 LINE",
"188 851 OFFCURVE",
"216 855 OFFCURVE",
"235 855 CURVE SMOOTH",
"278 855 OFFCURVE",
"301 843 OFFCURVE",
"295 816 CURVE SMOOTH",
"289 786 OFFCURVE",
"269 772 OFFCURVE",
"195 768 CURVE",
"178 687 LINE",
"281 687 LINE",
"291 733 LINE",
"357 745 OFFCURVE",
"386 772 OFFCURVE",
"398 828 CURVE SMOOTH"
);
}
);
width = 250;
}
);
note = Ihookabove;
unicode = 1EC8;
},
{
glyphname = Imacron;
lastChange = "2015-10-24 11:20:16 +0000";
layers = (
{
layerId = "B67427C8-F911-4143-A2F2-7B953CC18A6E";
name = "Regular Italic";
paths = (
{
closed = 1;
nodes = (
"152 0 LINE",
"288 644 LINE",
"153 644 LINE",
"17 0 LINE"
);
},
{
closed = 1;
nodes = (
"102 805 LINE",
"85 722 LINE",
"393 722 LINE",
"410 805 LINE"
);
}
);
width = 250;
}
);
note = Imacron;
unicode = 012A;
},
{
glyphname = Iogonek;
lastChange = "2015-10-24 11:20:15 +0000";
layers = (
{
layerId = "B67427C8-F911-4143-A2F2-7B953CC18A6E";
name = "Regular Italic";
paths = (
{
closed = 1;
nodes = (
"58 -66 OFFCURVE",
"92 -30 OFFCURVE",
"139 0 CURVE",
"152 0 LINE",
"288 644 LINE",
"153 644 LINE",
"17 0 LINE",
"39 0 LINE",
"-14 -32 OFFCURVE",
"-50 -79 OFFCURVE",
"-61 -129 CURVE SMOOTH",
"-74 -191 OFFCURVE",
"-26 -220 OFFCURVE",
"35 -220 CURVE SMOOTH",
"68 -220 OFFCURVE",
"102 -214 OFFCURVE",
"122 -206 CURVE",
"138 -130 LINE",
"124 -137 OFFCURVE",
"104 -141 OFFCURVE",
"88 -141 CURVE SMOOTH",
"61 -141 OFFCURVE",
"44 -132 OFFCURVE",
"50 -104 CURVE SMOOTH"
);
}
);
width = 250;
}
);
note = Iogonek;
unicode = 012E;
},
{
glyphname = Itilde;
lastChange = "2015-10-24 11:20:14 +0000";
layers = (
{
layerId = "B67427C8-F911-4143-A2F2-7B953CC18A6E";
name = "Regular Italic";
paths = (
{
closed = 1;
nodes = (
"152 0 LINE",
"288 644 LINE",
"153 644 LINE",
"17 0 LINE"
);
},
{
closed = 1;
nodes = (
"356 700 OFFCURVE",
"389 714 OFFCURVE",
"405 732 CURVE",
"426 828 LINE",
"404 804 OFFCURVE",
"373 790 OFFCURVE",
"335 790 CURVE SMOOTH",
"279 790 OFFCURVE",
"243 830 OFFCURVE",
"182 830 CURVE SMOOTH",
"147 830 OFFCURVE",
"111 817 OFFCURVE",
"89 799 CURVE",
"68 703 LINE",
"97 728 OFFCURVE",
"129 740 OFFCURVE",
"166 740 CURVE SMOOTH",
"215 740 OFFCURVE",
"260 700 OFFCURVE",
"319 700 CURVE SMOOTH"
);
}
);
width = 250;
}
);
note = Itilde;
unicode = 0128;
},
{
glyphname = J;
lastChange = "2015-10-24 11:20:14 +0000";
layers = (
{
layerId = "B67427C8-F911-4143-A2F2-7B953CC18A6E";
name = "Regular Italic";
paths = (
{
closed = 1;
nodes = (
"480 644 LINE",
"345 644 LINE",
"254 214 LINE SMOOTH",
"238 137 OFFCURVE",
"204 105 OFFCURVE",
"116 105 CURVE SMOOTH",
"74 105 OFFCURVE",
"33 113 OFFCURVE",
"3 127 CURVE",
"-21 13 LINE",
"17 -2 OFFCURVE",
"63 -10 OFFCURVE",
"118 -10 CURVE SMOOTH",
"273 -10 OFFCURVE",
"355 55 OFFCURVE",
"383 184 CURVE SMOOTH"
);
}
);
width = 436;
}
);
note = J;
unicode = 004A;
},
{
glyphname = Jcircumflex;
lastChange = "2015-10-24 11:20:16 +0000";
layers = (
{
layerId = "B67427C8-F911-4143-A2F2-7B953CC18A6E";
name = "Regular Italic";
paths = (
{
closed = 1;
nodes = (
"480 644 LINE",
"345 644 LINE",
"254 214 LINE SMOOTH",
"238 137 OFFCURVE",
"204 105 OFFCURVE",
"116 105 CURVE SMOOTH",
"74 105 OFFCURVE",
"33 113 OFFCURVE",
"3 127 CURVE",
"-21 13 LINE",
"17 -2 OFFCURVE",
"63 -10 OFFCURVE",
"118 -10 CURVE SMOOTH",
"273 -10 OFFCURVE",
"355 55 OFFCURVE",
"383 184 CURVE SMOOTH"
);
},
{
closed = 1;
nodes = (
"504 862 LINE",
"418 862 LINE",
"247 688 LINE",
"357 688 LINE",
"450 788 LINE",
"503 688 LINE",
"602 688 LINE"
);
}
);
width = 436;
}
);
note = Jcircumflex;
unicode = 0134;
},
{
glyphname = K;
lastChange = "2015-10-24 11:20:13 +0000";
layers = (
{
layerId = "B67427C8-F911-4143-A2F2-7B953CC18A6E";
name = "Regular Italic";
paths = (
{
closed = 1;
nodes = (
"691 644 LINE",
"536 644 LINE",
"230 371 LINE",
"288 644 LINE",
"153 644 LINE",
"17 0 LINE",
"152 0 LINE",
"195 204 LINE",
"301 297 LINE",
"423 0 LINE",
"567 0 LINE",
"403 383 LINE"
);
}
);
width = 644;
}
);
leftKerningGroup = K;
note = K;
rightKerningGroup = K;
unicode = 004B;
},
{
glyphname = Kcommaaccent;
lastChange = "2015-10-24 11:20:15 +0000";
layers = (
{
layerId = "B67427C8-F911-4143-A2F2-7B953CC18A6E";
name = "Regular Italic";
paths = (
{
closed = 1;
nodes = (
"691 644 LINE",
"536 644 LINE",
"230 371 LINE",
"288 644 LINE",
"153 644 LINE",
"17 0 LINE",
"152 0 LINE",
"195 204 LINE",
"301 297 LINE",
"423 0 LINE",
"567 0 LINE",
"403 383 LINE"
);
},
{
closed = 1;
nodes = (
"238 -238 LINE",
"331 -37 LINE",
"225 -37 LINE",
"152 -238 LINE"
);
}
);
width = 644;
}
);
leftKerningGroup = K;
note = Kcommaaccent;
rightKerningGroup = K;
unicode = 0136;
},
{
glyphname = L;
lastChange = "2015-10-24 11:20:14 +0000";
layers = (
{
layerId = "B67427C8-F911-4143-A2F2-7B953CC18A6E";
name = "Regular Italic";
paths = (
{
closed = 1;
nodes = (
"288 644 LINE",
"153 644 LINE",
"17 0 LINE",
"469 0 LINE",
"491 104 LINE",
"174 104 LINE"
);
}
);
width = 526;
}
);
note = L;
rightKerningGroup = L;
unicode = 004C;
},
{
glyphname = Lacute;
lastChange = "2015-10-24 11:20:15 +0000";
layers = (
{
layerId = "B67427C8-F911-4143-A2F2-7B953CC18A6E";
name = "Regular Italic";
paths = (
{
closed = 1;
nodes = (
"288 644 LINE",
"153 644 LINE",
"17 0 LINE",
"469 0 LINE",
"491 104 LINE",
"174 104 LINE"
);
},
{
closed = 1;
nodes = (
"288 688 LINE",
"416 875 LINE",
"299 875 LINE",
"179 688 LINE"
);
}
);
width = 526;
}
);
note = Lacute;
rightKerningGroup = L;
unicode = 0139;
},
{
glyphname = Lcaron;
lastChange = "2015-10-24 11:20:13 +0000";
layers = (
{
layerId = "B67427C8-F911-4143-A2F2-7B953CC18A6E";
name = "Regular Italic";
paths = (
{
closed = 1;
nodes = (
"288 644 LINE",
"153 644 LINE",
"17 0 LINE",
"469 0 LINE",
"491 104 LINE",
"174 104 LINE"
);
},
{
closed = 1;
nodes = (
"488 564 LINE",
"581 765 LINE",
"475 765 LINE",
"402 564 LINE"
);
}
);
width = 526;
}
);
note = Lcaron;
rightKerningGroup = L;
unicode = 013D;
},
{
glyphname = Lcommaaccent;
lastChange = "2015-10-24 11:20:13 +0000";
layers = (
{
layerId = "B67427C8-F911-4143-A2F2-7B953CC18A6E";
name = "Regular Italic";
paths = (
{
closed = 1;
nodes = (
"288 644 LINE",
"153 644 LINE",
"17 0 LINE",
"469 0 LINE",
"491 104 LINE",
"174 104 LINE"
);
},
{
closed = 1;
nodes = (
"211 -238 LINE",
"304 -37 LINE",
"198 -37 LINE",
"125 -238 LINE"
);
}
);
width = 526;
}
);
note = Lcommaaccent;
rightKerningGroup = L;
unicode = 013B;
},
{
glyphname = Ldot;
lastChange = "2015-10-24 11:20:14 +0000";
layers = (
{
layerId = "B67427C8-F911-4143-A2F2-7B953CC18A6E";
name = "Regular Italic";
paths = (
{
closed = 1;
nodes = (
"288 644 LINE",
"153 644 LINE",
"17 0 LINE",
"469 0 LINE",
"491 104 LINE",
"174 104 LINE"
);
},
{
closed = 1;
nodes = (
"432 276 LINE",
"453 374 LINE",
"348 374 LINE",
"327 276 LINE"
);
}
);
width = 526;
}
);
note = Ldot;
rightKerningGroup = L;
unicode = 013F;
},
{
glyphname = Ldotbelow;
lastChange = "2015-10-24 11:20:15 +0000";
layers = (
{
layerId = "B67427C8-F911-4143-A2F2-7B953CC18A6E";
name = "Regular Italic";
paths = (
{
closed = 1;
nodes = (
"288 644 LINE",
"153 644 LINE",
"17 0 LINE",
"469 0 LINE",
"491 104 LINE",
"174 104 LINE"
);
},
{
closed = 1;
nodes = (
"251 -181 LINE",
"272 -82 LINE",
"165 -82 LINE",
"144 -181 LINE"
);
}
);
width = 526;
}
);
note = Ldotbelow;
rightKerningGroup = L;
unicode = 1E36;
},
{
glyphname = Ldotbelowmacron;
lastChange = "2015-10-24 11:20:14 +0000";
layers = (
{
layerId = "B67427C8-F911-4143-A2F2-7B953CC18A6E";
name = "Regular Italic";
paths = (
{
closed = 1;
nodes = (
"304 644 LINE",
"169 644 LINE",
"33 0 LINE",
"485 0 LINE",
"507 104 LINE",
"190 104 LINE"
);
},
{
closed = 1;
nodes = (
"135 800 LINE",
"118 717 LINE",
"425 717 LINE",
"442 800 LINE"
);
},
{
closed = 1;
nodes = (
"267 -181 LINE",
"288 -82 LINE",
"181 -82 LINE",
"160 -181 LINE"
);
}
);
width = 542;
}
);
note = Ldotbelowmacron;
rightKerningGroup = L;
unicode = 1E38;
},
{
glyphname = Llinebelow;
lastChange = "2015-10-24 11:20:16 +0000";
layers = (
{
layerId = "B67427C8-F911-4143-A2F2-7B953CC18A6E";
name = "Regular Italic";
paths = (
{
closed = 1;
nodes = (
"288 644 LINE",
"153 644 LINE",
"17 0 LINE",
"469 0 LINE",
"491 104 LINE",
"174 104 LINE"
);
},
{
closed = 1;
nodes = (
"67 -75 LINE",
"50 -158 LINE",
"357 -158 LINE",
"374 -75 LINE"
);
}
);
width = 526;
}
);
note = Llinebelow;
rightKerningGroup = L;
unicode = 1E3A;
},
{
glyphname = Lslash;
lastChange = "2015-10-24 11:20:14 +0000";
layers = (
{
layerId = "B67427C8-F911-4143-A2F2-7B953CC18A6E";
name = "Regular Italic";
paths = (
{
closed = 1;
nodes = (
"10 322 LINE",
"-11 225 LINE",
"356 372 LINE",
"376 469 LINE"
);
},
{
closed = 1;
nodes = (
"288 644 LINE",
"153 644 LINE",
"17 0 LINE",
"469 0 LINE",
"491 104 LINE",
"174 104 LINE"
);
}
);
width = 526;
}
);
note = Lslash;
rightKerningGroup = L;
unicode = 0141;
},
{
glyphname = M;
lastChange = "2015-10-24 11:43:36 +0000";
layers = (
{
layerId = "B67427C8-F911-4143-A2F2-7B953CC18A6E";
name = "Regular Italic";
paths = (
{
closed = 1;
nodes = (
"404 111 LINE",
"620 419 LINE",
"531 0 LINE",
"666 0 LINE",
"802 644 LINE",
"662 644 LINE",
"391 257 LINE",
"284 644 LINE",
"153 644 LINE",
"17 0 LINE",
"152 0 LINE",
"241 419 LINE",
"326 111 LINE"
);
}
);
width = 763;
}
);
note = M;
unicode = 004D;
},
{
glyphname = Mdotbelow;
lastChange = "2015-10-24 11:20:15 +0000";
layers = (
{
layerId = "B67427C8-F911-4143-A2F2-7B953CC18A6E";
name = "Regular Italic";
paths = (
{
closed = 1;
nodes = (
"404 111 LINE",
"620 419 LINE",
"531 0 LINE",
"666 0 LINE",
"802 644 LINE",
"662 644 LINE",
"391 257 LINE",
"284 644 LINE",
"153 644 LINE",
"17 0 LINE",
"152 0 LINE",
"241 419 LINE",
"326 111 LINE"
);
},
{
closed = 1;
nodes = (
"370 -181 LINE",
"391 -82 LINE",
"284 -82 LINE",
"263 -181 LINE"
);
}
);
width = 763;
}
);
note = Mdotbelow;
unicode = 1E42;
},
{
glyphname = N;
lastChange = "2015-10-24 11:43:47 +0000";
layers = (
{
layerId = "B67427C8-F911-4143-A2F2-7B953CC18A6E";
name = "Regular Italic";
paths = (
{
closed = 1;
nodes = (
"457 0 LINE",
"574 0 LINE",
"710 644 LINE",
"575 644 LINE",
"484 215 LINE",
"270 644 LINE",
"153 644 LINE",
"17 0 LINE",
"152 0 LINE",
"243 429 LINE"
);
}
);
width = 671;
}
);
note = N;
unicode = 004E;
},
{
glyphname = Nacute;
lastChange = "2015-10-24 11:20:16 +0000";
layers = (
{
layerId = "B67427C8-F911-4143-A2F2-7B953CC18A6E";
name = "Regular Italic";
paths = (
{
closed = 1;
nodes = (
"457 0 LINE",
"574 0 LINE",
"710 644 LINE",
"575 644 LINE",
"484 215 LINE",
"270 644 LINE",
"153 644 LINE",
"17 0 LINE",
"152 0 LINE",
"243 429 LINE"
);
},
{
closed = 1;
nodes = (
"485 688 LINE",
"613 875 LINE",
"496 875 LINE",
"376 688 LINE"
);
}
);
width = 671;
}
);
note = Nacute;
unicode = 0143;
},
{
glyphname = Ncaron;
lastChange = "2015-10-24 11:20:15 +0000";
layers = (
{
layerId = "B67427C8-F911-4143-A2F2-7B953CC18A6E";
name = "Regular Italic";
paths = (
{
closed = 1;
nodes = (
"457 0 LINE",
"574 0 LINE",
"710 644 LINE",
"575 644 LINE",
"484 215 LINE",
"270 644 LINE",
"153 644 LINE",
"17 0 LINE",
"152 0 LINE",
"243 429 LINE"
);
},
{
closed = 1;
nodes = (
"659 862 LINE",
"550 862 LINE",
"454 762 LINE",
"404 862 LINE",
"304 862 LINE",
"401 688 LINE",
"487 688 LINE"
);
}
);
width = 671;
}
);
note = Ncaron;
unicode = 0147;
},
{
glyphname = Ncommaaccent;
lastChange = "2015-10-24 11:20:16 +0000";
layers = (
{
layerId = "B67427C8-F911-4143-A2F2-7B953CC18A6E";
name = "Regular Italic";
paths = (
{
closed = 1;
nodes = (
"457 0 LINE",
"574 0 LINE",
"710 644 LINE",
"575 644 LINE",
"484 215 LINE",
"270 644 LINE",
"153 644 LINE",
"17 0 LINE",
"152 0 LINE",
"243 429 LINE"
);
},
{
closed = 1;
nodes = (
"256 -238 LINE",
"349 -37 LINE",
"243 -37 LINE",
"170 -238 LINE"
);
}
);
width = 671;
}
);
note = Ncommaaccent;
unicode = 0145;
},
{
glyphname = Ndotaccent;
lastChange = "2015-10-24 11:20:14 +0000";
layers = (
{
layerId = "B67427C8-F911-4143-A2F2-7B953CC18A6E";
name = "Regular Italic";
paths = (
{
closed = 1;
nodes = (
"457 0 LINE",
"574 0 LINE",
"710 644 LINE",
"575 644 LINE",
"484 215 LINE",
"270 644 LINE",
"153 644 LINE",
"17 0 LINE",
"152 0 LINE",
"243 429 LINE"
);
},
{
closed = 1;
nodes = (
"507 713 LINE",
"528 811 LINE",
"423 811 LINE",
"402 713 LINE"
);
}
);
width = 671;
}
);
note = Ndotaccent;
unicode = 1E44;
},
{
glyphname = Ndotbelow;
lastChange = "2015-10-24 11:20:15 +0000";
layers = (
{
layerId = "B67427C8-F911-4143-A2F2-7B953CC18A6E";
name = "Regular Italic";
paths = (
{
closed = 1;
nodes = (
"457 0 LINE",
"574 0 LINE",
"710 644 LINE",
"575 644 LINE",
"484 215 LINE",
"270 644 LINE",
"153 644 LINE",
"17 0 LINE",
"152 0 LINE",
"243 429 LINE"
);
},
{
closed = 1;
nodes = (
"313 -181 LINE",
"334 -82 LINE",
"227 -82 LINE",
"206 -181 LINE"
);
}
);
width = 671;
}
);
note = Ndotbelow;
unicode = 1E46;
},
{
glyphname = Eng;
lastChange = "2015-10-24 11:20:13 +0000";
layers = (
{
layerId = "B67427C8-F911-4143-A2F2-7B953CC18A6E";
name = "Regular Italic";
paths = (
{
closed = 1;
nodes = (
"710 644 LINE",
"575 644 LINE",
"484 215 LINE",
"270 644 LINE",
"153 644 LINE",
"17 0 LINE",
"152 0 LINE",
"243 429 LINE",
"444 25 LINE",
"425 -64 LINE SMOOTH",
"415 -112 OFFCURVE",
"387 -133 OFFCURVE",
"333 -133 CURVE SMOOTH",
"315 -133 OFFCURVE",
"295 -130 OFFCURVE",
"275 -123 CURVE",
"256 -216 LINE",
"283 -228 OFFCURVE",
"318 -234 OFFCURVE",
"360 -234 CURVE SMOOTH",
"471 -234 OFFCURVE",
"537 -171 OFFCURVE",
"557 -77 CURVE SMOOTH"
);
}
);
width = 671;
}
);
note = Eng;
unicode = 014A;
},
{
glyphname = Nlinebelow;
lastChange = "2015-10-24 11:20:16 +0000";
layers = (
{
layerId = "B67427C8-F911-4143-A2F2-7B953CC18A6E";
name = "Regular Italic";
paths = (
{
closed = 1;
nodes = (
"457 0 LINE",
"574 0 LINE",
"710 644 LINE",
"575 644 LINE",
"484 215 LINE",
"270 644 LINE",
"153 644 LINE",
"17 0 LINE",
"152 0 LINE",
"243 429 LINE"
);
},
{
closed = 1;
nodes = (
"130 -72 LINE",
"113 -155 LINE",
"420 -155 LINE",
"437 -72 LINE"
);
}
);
width = 671;
}
);
note = Nlinebelow;
unicode = 1E48;
},
{
glyphname = Ntilde;
lastChange = "2015-10-24 11:20:16 +0000";
layers = (
{
layerId = "B67427C8-F911-4143-A2F2-7B953CC18A6E";
name = "Regular Italic";
paths = (
{
closed = 1;
nodes = (
"457 0 LINE",
"574 0 LINE",
"710 644 LINE",
"575 644 LINE",
"484 215 LINE",
"270 644 LINE",
"153 644 LINE",
"17 0 LINE",
"152 0 LINE",
"243 429 LINE"
);
},
{
closed = 1;
nodes = (
"575 700 OFFCURVE",
"608 714 OFFCURVE",
"624 732 CURVE",
"645 828 LINE",
"623 804 OFFCURVE",
"592 790 OFFCURVE",
"554 790 CURVE SMOOTH",
"498 790 OFFCURVE",
"462 830 OFFCURVE",
"401 830 CURVE SMOOTH",
"366 830 OFFCURVE",
"330 817 OFFCURVE",
"308 799 CURVE",
"287 703 LINE",
"316 728 OFFCURVE",
"348 740 OFFCURVE",
"385 740 CURVE SMOOTH",
"434 740 OFFCURVE",
"479 700 OFFCURVE",
"538 700 CURVE SMOOTH"
);
}
);
width = 671;
}
);
note = Ntilde;
unicode = 00D1;
},
{
glyphname = O;
lastChange = "2015-10-24 11:41:47 +0000";
layers = (
{
layerId = "B67427C8-F911-4143-A2F2-7B953CC18A6E";
name = "Regular Italic";
paths = (
{
closed = 1;
nodes = (
"200 105 OFFCURVE",
"170 168 OFFCURVE",
"201 319 CURVE SMOOTH",
"234 480 OFFCURVE",
"303 539 OFFCURVE",
"424 539 CURVE SMOOTH",
"559 539 OFFCURVE",
"589 484 OFFCURVE",
"553 319 CURVE SMOOTH",
"521 174 OFFCURVE",
"453 105 OFFCURVE",
"332 105 CURVE SMOOTH"
);
},
{
closed = 1;
nodes = (
"526 -10 OFFCURVE",
"643 98 OFFCURVE",
"690 319 CURVE SMOOTH",
"740 555 OFFCURVE",
"651 654 OFFCURVE",
"449 654 CURVE SMOOTH",
"230 654 OFFCURVE",
"114 555 OFFCURVE",
"64 319 CURVE SMOOTH",
"17 98 OFFCURVE",
"109 -10 OFFCURVE",
"307 -10 CURVE SMOOTH"
);
}
);
width = 700;
}
);
leftKerningGroup = O;
note = O;
rightKerningGroup = O;
unicode = 004F;
},
{
glyphname = Oacute;
lastChange = "2015-10-24 11:20:15 +0000";
layers = (
{
layerId = "B67427C8-F911-4143-A2F2-7B953CC18A6E";
name = "Regular Italic";
paths = (
{
closed = 1;
nodes = (
"200 105 OFFCURVE",
"170 168 OFFCURVE",
"201 319 CURVE SMOOTH",
"234 480 OFFCURVE",
"303 539 OFFCURVE",
"424 539 CURVE SMOOTH",
"559 539 OFFCURVE",
"589 484 OFFCURVE",
"553 319 CURVE SMOOTH",
"521 174 OFFCURVE",
"453 105 OFFCURVE",
"332 105 CURVE SMOOTH"
);
},
{
closed = 1;
nodes = (
"526 -10 OFFCURVE",
"643 98 OFFCURVE",
"690 319 CURVE SMOOTH",
"740 555 OFFCURVE",
"651 654 OFFCURVE",
"449 654 CURVE SMOOTH",
"230 654 OFFCURVE",
"114 555 OFFCURVE",
"64 319 CURVE SMOOTH",
"17 98 OFFCURVE",
"109 -10 OFFCURVE",
"307 -10 CURVE SMOOTH"
);
},
{
closed = 1;
nodes = (
"503 688 LINE",
"631 875 LINE",
"514 875 LINE",
"394 688 LINE"
);
}
);
width = 700;
}
);
leftKerningGroup = O;
note = Oacute;
rightKerningGroup = O;
unicode = 00D3;
},
{
glyphname = Obreve;
lastChange = "2015-10-24 11:20:15 +0000";
layers = (
{
layerId = "B67427C8-F911-4143-A2F2-7B953CC18A6E";
name = "Regular Italic";
paths = (
{
closed = 1;
nodes = (
"200 105 OFFCURVE",
"170 168 OFFCURVE",
"201 319 CURVE SMOOTH",
"234 480 OFFCURVE",
"303 539 OFFCURVE",
"424 539 CURVE SMOOTH",
"559 539 OFFCURVE",
"589 484 OFFCURVE",
"553 319 CURVE SMOOTH",
"521 174 OFFCURVE",
"453 105 OFFCURVE",
"332 105 CURVE SMOOTH"
);
},
{
closed = 1;
nodes = (
"526 -10 OFFCURVE",
"643 98 OFFCURVE",
"690 319 CURVE SMOOTH",
"740 555 OFFCURVE",
"651 654 OFFCURVE",
"449 654 CURVE SMOOTH",
"230 654 OFFCURVE",
"114 555 OFFCURVE",
"64 319 CURVE SMOOTH",
"17 98 OFFCURVE",
"109 -10 OFFCURVE",
"307 -10 CURVE SMOOTH"
);
},
{
closed = 1;
nodes = (
"333 845 LINE",
"312 747 OFFCURVE",
"363 688 OFFCURVE",
"455 688 CURVE SMOOTH",
"563 688 OFFCURVE",
"627 747 OFFCURVE",
"648 845 CURVE",
"553 845 LINE",
"544 803 OFFCURVE",
"513 766 OFFCURVE",
"467 766 CURVE SMOOTH",
"414 766 OFFCURVE",
"408 803 OFFCURVE",
"417 845 CURVE"
);
}
);
width = 700;
}
);
leftKerningGroup = O;
note = Obreve;
rightKerningGroup = O;
unicode = 014E;
},
{
glyphname = Ocaron;
lastChange = "2015-10-24 11:20:14 +0000";
layers = (
{
layerId = "B67427C8-F911-4143-A2F2-7B953CC18A6E";
name = "Regular Italic";
paths = (
{
closed = 1;
nodes = (
"200 105 OFFCURVE",
"170 168 OFFCURVE",
"201 319 CURVE SMOOTH",
"234 480 OFFCURVE",
"303 539 OFFCURVE",
"424 539 CURVE SMOOTH",
"559 539 OFFCURVE",
"589 484 OFFCURVE",
"553 319 CURVE SMOOTH",
"521 174 OFFCURVE",
"453 105 OFFCURVE",
"332 105 CURVE SMOOTH"
);
},
{
closed = 1;
nodes = (
"526 -10 OFFCURVE",
"643 98 OFFCURVE",
"690 319 CURVE SMOOTH",
"740 555 OFFCURVE",
"651 654 OFFCURVE",
"449 654 CURVE SMOOTH",
"230 654 OFFCURVE",
"114 555 OFFCURVE",
"64 319 CURVE SMOOTH",
"17 98 OFFCURVE",
"109 -10 OFFCURVE",
"307 -10 CURVE SMOOTH"
);
},
{
closed = 1;
nodes = (
"671 862 LINE",
"562 862 LINE",
"466 762 LINE",
"416 862 LINE",
"316 862 LINE",
"413 688 LINE",
"499 688 LINE"
);
}
);
width = 700;
}
);
leftKerningGroup = O;
note = Ocaron;
rightKerningGroup = O;
unicode = 01D1;
},
{
glyphname = Ocircumflex;
lastChange = "2015-10-24 11:20:15 +0000";
layers = (
{
layerId = "B67427C8-F911-4143-A2F2-7B953CC18A6E";
name = "Regular Italic";
paths = (
{
closed = 1;
nodes = (
"200 105 OFFCURVE",
"170 168 OFFCURVE",
"201 319 CURVE SMOOTH",
"234 480 OFFCURVE",
"303 539 OFFCURVE",
"424 539 CURVE SMOOTH",
"559 539 OFFCURVE",
"589 484 OFFCURVE",
"553 319 CURVE SMOOTH",
"521 174 OFFCURVE",
"453 105 OFFCURVE",
"332 105 CURVE SMOOTH"
);
},
{
closed = 1;
nodes = (
"526 -10 OFFCURVE",
"643 98 OFFCURVE",
"690 319 CURVE SMOOTH",
"740 555 OFFCURVE",
"651 654 OFFCURVE",
"449 654 CURVE SMOOTH",
"230 654 OFFCURVE",
"114 555 OFFCURVE",
"64 319 CURVE SMOOTH",
"17 98 OFFCURVE",
"109 -10 OFFCURVE",
"307 -10 CURVE SMOOTH"
);
},
{
closed = 1;
nodes = (
"536 862 LINE",
"450 862 LINE",
"279 688 LINE",
"389 688 LINE",
"482 788 LINE",
"535 688 LINE",
"634 688 LINE"
);
}
);
width = 700;
}
);
leftKerningGroup = O;
note = Ocircumflex;
rightKerningGroup = O;
unicode = 00D4;
},
{
glyphname = Ocircumflexacute;
lastChange = "2015-10-24 11:20:15 +0000";
layers = (
{
layerId = "B67427C8-F911-4143-A2F2-7B953CC18A6E";
name = "Regular Italic";
paths = (
{
closed = 1;
nodes = (
"200 105 OFFCURVE",
"170 168 OFFCURVE",
"201 319 CURVE SMOOTH",
"234 480 OFFCURVE",
"303 539 OFFCURVE",
"424 539 CURVE SMOOTH",
"559 539 OFFCURVE",
"589 484 OFFCURVE",
"553 319 CURVE SMOOTH",
"521 174 OFFCURVE",
"453 105 OFFCURVE",
"332 105 CURVE SMOOTH"
);
},
{
closed = 1;
nodes = (
"526 -10 OFFCURVE",
"643 98 OFFCURVE",
"690 319 CURVE SMOOTH",
"740 555 OFFCURVE",
"651 654 OFFCURVE",
"449 654 CURVE SMOOTH",
"230 654 OFFCURVE",
"114 555 OFFCURVE",
"64 319 CURVE SMOOTH",
"17 98 OFFCURVE",
"109 -10 OFFCURVE",
"307 -10 CURVE SMOOTH"
);
},
{
closed = 1;
nodes = (
"538 822 LINE",
"435 822 LINE",
"281 687 LINE",
"397 687 LINE",
"481 768 LINE",
"532 687 LINE",
"636 687 LINE"
);
},
{
closed = 1;
nodes = (
"679 804 LINE",
"782 945 LINE",
"680 945 LINE",
"585 804 LINE"
);
}
);
width = 700;
}
);
leftKerningGroup = O;
note = Ocircumflexacute;
rightKerningGroup = O;
unicode = 1ED0;
},
{
glyphname = Ocircumflexdotbelow;
lastChange = "2015-10-24 11:20:16 +0000";
layers = (
{
layerId = "B67427C8-F911-4143-A2F2-7B953CC18A6E";
name = "Regular Italic";
paths = (
{
closed = 1;
nodes = (
"200 105 OFFCURVE",
"170 168 OFFCURVE",
"201 319 CURVE SMOOTH",
"234 480 OFFCURVE",
"303 539 OFFCURVE",
"424 539 CURVE SMOOTH",
"559 539 OFFCURVE",
"589 484 OFFCURVE",
"553 319 CURVE SMOOTH",
"521 174 OFFCURVE",
"453 105 OFFCURVE",
"332 105 CURVE SMOOTH"
);
},
{
closed = 1;
nodes = (
"526 -10 OFFCURVE",
"643 98 OFFCURVE",
"690 319 CURVE SMOOTH",
"740 555 OFFCURVE",
"651 654 OFFCURVE",
"449 654 CURVE SMOOTH",
"230 654 OFFCURVE",
"114 555 OFFCURVE",
"64 319 CURVE SMOOTH",
"17 98 OFFCURVE",
"109 -10 OFFCURVE",
"307 -10 CURVE SMOOTH"
);
},
{
closed = 1;
nodes = (
"538 872 LINE",
"452 872 LINE",
"281 698 LINE",
"391 698 LINE",
"484 798 LINE",
"537 698 LINE",
"636 698 LINE"
);
},
{
closed = 1;
nodes = (
"326 -181 LINE",
"347 -82 LINE",
"240 -82 LINE",
"219 -181 LINE"
);
}
);
width = 700;
}
);
leftKerningGroup = O;
note = Ocircumflexdotbelow;
rightKerningGroup = O;
unicode = 1ED8;
},
{
glyphname = Ocircumflexgrave;
lastChange = "2015-10-24 11:20:13 +0000";
layers = (
{
layerId = "B67427C8-F911-4143-A2F2-7B953CC18A6E";
name = "Regular Italic";
paths = (
{
closed = 1;
nodes = (
"200 105 OFFCURVE",
"170 168 OFFCURVE",
"201 319 CURVE SMOOTH",
"234 480 OFFCURVE",
"303 539 OFFCURVE",
"424 539 CURVE SMOOTH",
"559 539 OFFCURVE",
"589 484 OFFCURVE",
"553 319 CURVE SMOOTH",
"521 174 OFFCURVE",
"453 105 OFFCURVE",
"332 105 CURVE SMOOTH"
);
},
{
closed = 1;
nodes = (
"526 -10 OFFCURVE",
"643 98 OFFCURVE",
"690 319 CURVE SMOOTH",
"740 555 OFFCURVE",
"651 654 OFFCURVE",
"449 654 CURVE SMOOTH",
"230 654 OFFCURVE",
"114 555 OFFCURVE",
"64 319 CURVE SMOOTH",
"17 98 OFFCURVE",
"109 -10 OFFCURVE",
"307 -10 CURVE SMOOTH"
);
},
{
closed = 1;
nodes = (
"377 804 LINE",
"341 945 LINE",
"239 945 LINE",
"282 804 LINE"
);
},
{
closed = 1;
nodes = (
"533 822 LINE",
"430 822 LINE",
"276 687 LINE",
"392 687 LINE",
"476 768 LINE",
"527 687 LINE",
"631 687 LINE"
);
}
);
width = 700;
}
);
leftKerningGroup = O;
note = Ocircumflexgrave;
rightKerningGroup = O;
unicode = 1ED2;
},
{
glyphname = Ocircumflexhookabove;
lastChange = "2015-10-24 11:20:16 +0000";
layers = (
{
layerId = "B67427C8-F911-4143-A2F2-7B953CC18A6E";
name = "Regular Italic";
paths = (
{
closed = 1;
nodes = (
"200 105 OFFCURVE",
"170 168 OFFCURVE",
"201 319 CURVE SMOOTH",
"234 480 OFFCURVE",
"303 539 OFFCURVE",
"424 539 CURVE SMOOTH",
"559 539 OFFCURVE",
"589 484 OFFCURVE",
"553 319 CURVE SMOOTH",
"521 174 OFFCURVE",
"453 105 OFFCURVE",
"332 105 CURVE SMOOTH"
);
},
{
closed = 1;
nodes = (
"526 -10 OFFCURVE",
"643 98 OFFCURVE",
"690 319 CURVE SMOOTH",
"740 555 OFFCURVE",
"651 654 OFFCURVE",
"449 654 CURVE SMOOTH",
"230 654 OFFCURVE",
"114 555 OFFCURVE",
"64 319 CURVE SMOOTH",
"17 98 OFFCURVE",
"109 -10 OFFCURVE",
"307 -10 CURVE SMOOTH"
);
},
{
closed = 1;
nodes = (
"785 943 OFFCURVE",
"752 976 OFFCURVE",
"682 976 CURVE SMOOTH",
"645 976 OFFCURVE",
"620 971 OFFCURVE",
"598 964 CURVE",
"584 902 LINE",
"601 909 OFFCURVE",
"620 914 OFFCURVE",
"640 914 CURVE SMOOTH",
"670 914 OFFCURVE",
"683 907 OFFCURVE",
"679 887 CURVE SMOOTH",
"675 865 OFFCURVE",
"659 855 OFFCURVE",
"598 852 CURVE",
"583 782 LINE",
"675 782 LINE",
"682 816 LINE",
"737 824 OFFCURVE",
"766 851 OFFCURVE",
"775 895 CURVE SMOOTH"
);
},
{
closed = 1;
nodes = (
"532 822 LINE",
"429 822 LINE",
"275 687 LINE",
"391 687 LINE",
"475 768 LINE",
"526 687 LINE",
"630 687 LINE"
);
}
);
width = 700;
}
);
leftKerningGroup = O;
note = Ocircumflexhookabove;
rightKerningGroup = O;
unicode = 1ED4;
},
{
glyphname = Ocircumflextilde;
lastChange = "2015-10-24 11:20:16 +0000";
layers = (
{
layerId = "B67427C8-F911-4143-A2F2-7B953CC18A6E";
name = "Regular Italic";
paths = (
{
closed = 1;
nodes = (
"200 105 OFFCURVE",
"170 168 OFFCURVE",
"201 319 CURVE SMOOTH",
"234 480 OFFCURVE",
"303 539 OFFCURVE",
"424 539 CURVE SMOOTH",
"559 539 OFFCURVE",
"589 484 OFFCURVE",
"553 319 CURVE SMOOTH",
"521 174 OFFCURVE",
"453 105 OFFCURVE",
"332 105 CURVE SMOOTH"
);
},
{
closed = 1;
nodes = (
"526 -10 OFFCURVE",
"643 98 OFFCURVE",
"690 319 CURVE SMOOTH",
"740 555 OFFCURVE",
"651 654 OFFCURVE",
"449 654 CURVE SMOOTH",
"230 654 OFFCURVE",
"114 555 OFFCURVE",
"64 319 CURVE SMOOTH",
"17 98 OFFCURVE",
"109 -10 OFFCURVE",
"307 -10 CURVE SMOOTH"
);
},
{
closed = 1;
nodes = (
"617 865 OFFCURVE",
"650 879 OFFCURVE",
"667 897 CURVE",
"684 983 LINE",
"663 959 OFFCURVE",
"632 945 OFFCURVE",
"594 945 CURVE SMOOTH",
"538 945 OFFCURVE",
"503 985 OFFCURVE",
"442 985 CURVE SMOOTH",
"407 985 OFFCURVE",
"370 972 OFFCURVE",
"348 954 CURVE",
"330 868 LINE",
"358 893 OFFCURVE",
"391 905 OFFCURVE",
"428 905 CURVE SMOOTH",
"477 905 OFFCURVE",
"521 865 OFFCURVE",
"580 865 CURVE SMOOTH"
);
},
{
closed = 1;
nodes = (
"404 759 OFFCURVE",
"390 789 OFFCURVE",
"402 844 CURVE",
"325 844 LINE",
"301 733 OFFCURVE",
"369 688 OFFCURVE",
"457 688 CURVE SMOOTH",
"560 688 OFFCURVE",
"630 733 OFFCURVE",
"654 844 CURVE",
"571 844 LINE",
"559 789 OFFCURVE",
"526 759 OFFCURVE",
"469 759 CURVE SMOOTH"
);
}
);
width = 700;
}
);
leftKerningGroup = O;
note = Ocircumflextilde;
rightKerningGroup = O;
unicode = 1ED6;
},
{
glyphname = Odieresis;
lastChange = "2015-10-24 11:20:14 +0000";
layers = (
{
layerId = "B67427C8-F911-4143-A2F2-7B953CC18A6E";
name = "Regular Italic";
paths = (
{
closed = 1;
nodes = (
"200 105 OFFCURVE",
"170 168 OFFCURVE",
"201 319 CURVE SMOOTH",
"234 480 OFFCURVE",
"303 539 OFFCURVE",
"424 539 CURVE SMOOTH",
"559 539 OFFCURVE",
"589 484 OFFCURVE",
"553 319 CURVE SMOOTH",
"521 174 OFFCURVE",
"453 105 OFFCURVE",
"332 105 CURVE SMOOTH"
);
},
{
closed = 1;
nodes = (
"526 -10 OFFCURVE",
"643 98 OFFCURVE",
"690 319 CURVE SMOOTH",
"740 555 OFFCURVE",
"651 654 OFFCURVE",
"449 654 CURVE SMOOTH",
"230 654 OFFCURVE",
"114 555 OFFCURVE",
"64 319 CURVE SMOOTH",
"17 98 OFFCURVE",
"109 -10 OFFCURVE",
"307 -10 CURVE SMOOTH"
);
},
{
closed = 1;
nodes = (
"416 713 LINE",
"437 811 LINE",
"332 811 LINE",
"311 713 LINE"
);
},
{
closed = 1;
nodes = (
"612 713 LINE",
"633 811 LINE",
"527 811 LINE",
"506 713 LINE"
);
}
);
width = 700;
}
);
leftKerningGroup = O;
note = Odieresis;
rightKerningGroup = O;
unicode = 00D6;
},
{
glyphname = Odotbelow;
lastChange = "2015-10-24 11:20:16 +0000";
layers = (
{
layerId = "B67427C8-F911-4143-A2F2-7B953CC18A6E";
name = "Regular Italic";
paths = (
{
closed = 1;
nodes = (
"200 105 OFFCURVE",
"170 168 OFFCURVE",
"201 319 CURVE SMOOTH",
"234 480 OFFCURVE",
"303 539 OFFCURVE",
"424 539 CURVE SMOOTH",
"559 539 OFFCURVE",
"589 484 OFFCURVE",
"553 319 CURVE SMOOTH",
"521 174 OFFCURVE",
"453 105 OFFCURVE",
"332 105 CURVE SMOOTH"
);
},
{
closed = 1;
nodes = (
"526 -10 OFFCURVE",
"643 98 OFFCURVE",
"690 319 CURVE SMOOTH",
"740 555 OFFCURVE",
"651 654 OFFCURVE",
"449 654 CURVE SMOOTH",
"230 654 OFFCURVE",
"114 555 OFFCURVE",
"64 319 CURVE SMOOTH",
"17 98 OFFCURVE",
"109 -10 OFFCURVE",
"307 -10 CURVE SMOOTH"
);
},
{
closed = 1;
nodes = (
"326 -181 LINE",
"347 -82 LINE",
"240 -82 LINE",
"219 -181 LINE"
);
}
);
width = 700;
}
);
leftKerningGroup = O;
note = Odotbelow;
rightKerningGroup = O;
unicode = 1ECC;
},
{
glyphname = Ograve;
lastChange = "2015-10-24 11:20:14 +0000";
layers = (
{
layerId = "B67427C8-F911-4143-A2F2-7B953CC18A6E";
name = "Regular Italic";
paths = (
{
closed = 1;
nodes = (
"200 105 OFFCURVE",
"170 168 OFFCURVE",
"201 319 CURVE SMOOTH",
"234 480 OFFCURVE",
"303 539 OFFCURVE",
"424 539 CURVE SMOOTH",
"559 539 OFFCURVE",
"589 484 OFFCURVE",
"553 319 CURVE SMOOTH",
"521 174 OFFCURVE",
"453 105 OFFCURVE",
"332 105 CURVE SMOOTH"
);
},
{
closed = 1;
nodes = (
"526 -10 OFFCURVE",
"643 98 OFFCURVE",
"690 319 CURVE SMOOTH",
"740 555 OFFCURVE",
"651 654 OFFCURVE",
"449 654 CURVE SMOOTH",
"230 654 OFFCURVE",
"114 555 OFFCURVE",
"64 319 CURVE SMOOTH",
"17 98 OFFCURVE",
"109 -10 OFFCURVE",
"307 -10 CURVE SMOOTH"
);
},
{
closed = 1;
nodes = (
"516 688 LINE",
"476 875 LINE",
"359 875 LINE",
"407 688 LINE"
);
}
);
width = 700;
}
);
leftKerningGroup = O;
note = Ograve;
rightKerningGroup = O;
unicode = 00D2;
},
{
glyphname = Ohookabove;
lastChange = "2015-10-24 11:20:16 +0000";
layers = (
{
layerId = "B67427C8-F911-4143-A2F2-7B953CC18A6E";
name = "Regular Italic";
paths = (
{
closed = 1;
nodes = (
"200 105 OFFCURVE",
"170 168 OFFCURVE",
"201 319 CURVE SMOOTH",
"234 480 OFFCURVE",
"303 539 OFFCURVE",
"424 539 CURVE SMOOTH",
"559 539 OFFCURVE",
"589 484 OFFCURVE",
"553 319 CURVE SMOOTH",
"521 174 OFFCURVE",
"453 105 OFFCURVE",
"332 105 CURVE SMOOTH"
);
},
{
closed = 1;
nodes = (
"526 -10 OFFCURVE",
"643 98 OFFCURVE",
"690 319 CURVE SMOOTH",
"740 555 OFFCURVE",
"651 654 OFFCURVE",
"449 654 CURVE SMOOTH",
"230 654 OFFCURVE",
"114 555 OFFCURVE",
"64 319 CURVE SMOOTH",
"17 98 OFFCURVE",
"109 -10 OFFCURVE",
"307 -10 CURVE SMOOTH"
);
},
{
closed = 1;
nodes = (
"637 886 OFFCURVE",
"599 924 OFFCURVE",
"514 924 CURVE SMOOTH",
"475 924 OFFCURVE",
"437 919 OFFCURVE",
"412 911 CURVE",
"397 844 LINE",
"415 851 OFFCURVE",
"443 855 OFFCURVE",
"462 855 CURVE SMOOTH",
"505 855 OFFCURVE",
"528 843 OFFCURVE",
"522 816 CURVE SMOOTH",
"516 786 OFFCURVE",
"496 772 OFFCURVE",
"422 768 CURVE",
"405 687 LINE",
"508 687 LINE",
"518 733 LINE",
"584 745 OFFCURVE",
"613 772 OFFCURVE",
"625 828 CURVE SMOOTH"
);
}
);
width = 700;
}
);
leftKerningGroup = O;
note = Ohookabove;
rightKerningGroup = O;
unicode = 1ECE;
},
{
glyphname = Ohorn;
lastChange = "2015-10-24 11:20:16 +0000";
layers = (
{
layerId = "B67427C8-F911-4143-A2F2-7B953CC18A6E";
name = "Regular Italic";
paths = (
{
closed = 1;
nodes = (
"526 -10 OFFCURVE",
"643 98 OFFCURVE",
"690 319 CURVE SMOOTH",
"705 390 OFFCURVE",
"707 448 OFFCURVE",
"698 496 CURVE",
"792 511 OFFCURVE",
"846 562 OFFCURVE",
"873 688 CURVE",
"776 688 LINE",
"759 609 OFFCURVE",
"728 582 OFFCURVE",
"660 580 CURVE",
"618 631 OFFCURVE",
"547 654 OFFCURVE",
"449 654 CURVE SMOOTH",
"230 654 OFFCURVE",
"114 555 OFFCURVE",
"64 319 CURVE SMOOTH",
"17 98 OFFCURVE",
"109 -10 OFFCURVE",
"307 -10 CURVE SMOOTH"
);
},
{
closed = 1;
nodes = (
"200 105 OFFCURVE",
"170 168 OFFCURVE",
"201 319 CURVE SMOOTH",
"234 480 OFFCURVE",
"303 539 OFFCURVE",
"424 539 CURVE SMOOTH",
"559 539 OFFCURVE",
"589 484 OFFCURVE",
"553 319 CURVE SMOOTH",
"521 174 OFFCURVE",
"453 105 OFFCURVE",
"332 105 CURVE SMOOTH"
);
}
);
width = 780;
}
);
leftKerningGroup = O;
note = Ohorn;
rightKerningGroup = O;
unicode = 01A0;
},
{
glyphname = Ohornacute;
lastChange = "2015-10-24 11:20:15 +0000";
layers = (
{
layerId = "B67427C8-F911-4143-A2F2-7B953CC18A6E";
name = "Regular Italic";
paths = (
{
closed = 1;
nodes = (
"526 -10 OFFCURVE",
"643 98 OFFCURVE",
"690 319 CURVE SMOOTH",
"705 390 OFFCURVE",
"707 448 OFFCURVE",
"698 496 CURVE",
"792 511 OFFCURVE",
"846 562 OFFCURVE",
"873 688 CURVE",
"776 688 LINE",
"759 609 OFFCURVE",
"728 582 OFFCURVE",
"660 580 CURVE",
"618 631 OFFCURVE",
"547 654 OFFCURVE",
"449 654 CURVE SMOOTH",
"230 654 OFFCURVE",
"114 555 OFFCURVE",
"64 319 CURVE SMOOTH",
"17 98 OFFCURVE",
"109 -10 OFFCURVE",
"307 -10 CURVE SMOOTH"
);
},
{
closed = 1;
nodes = (
"200 105 OFFCURVE",
"170 168 OFFCURVE",
"201 319 CURVE SMOOTH",
"234 480 OFFCURVE",
"303 539 OFFCURVE",
"424 539 CURVE SMOOTH",
"559 539 OFFCURVE",
"589 484 OFFCURVE",
"553 319 CURVE SMOOTH",
"521 174 OFFCURVE",
"453 105 OFFCURVE",
"332 105 CURVE SMOOTH"
);
},
{
closed = 1;
nodes = (
"520 688 LINE",
"648 875 LINE",
"531 875 LINE",
"411 688 LINE"
);
}
);
width = 780;
}
);
leftKerningGroup = O;
note = Ohornacute;
rightKerningGroup = O;
unicode = 1EDA;
},
{
glyphname = Ohorndotbelow;
lastChange = "2015-10-24 11:20:15 +0000";
layers = (
{
layerId = "B67427C8-F911-4143-A2F2-7B953CC18A6E";
name = "Regular Italic";
paths = (
{
closed = 1;
nodes = (
"526 -10 OFFCURVE",
"643 98 OFFCURVE",
"690 319 CURVE SMOOTH",
"705 390 OFFCURVE",
"707 448 OFFCURVE",
"698 496 CURVE",
"792 511 OFFCURVE",
"846 562 OFFCURVE",
"873 688 CURVE",
"776 688 LINE",
"759 609 OFFCURVE",
"728 582 OFFCURVE",
"660 580 CURVE",
"618 631 OFFCURVE",
"547 654 OFFCURVE",
"449 654 CURVE SMOOTH",
"230 654 OFFCURVE",
"114 555 OFFCURVE",
"64 319 CURVE SMOOTH",
"17 98 OFFCURVE",
"109 -10 OFFCURVE",
"307 -10 CURVE SMOOTH"
);
},
{
closed = 1;
nodes = (
"200 105 OFFCURVE",
"170 168 OFFCURVE",
"201 319 CURVE SMOOTH",
"234 480 OFFCURVE",
"303 539 OFFCURVE",
"424 539 CURVE SMOOTH",
"559 539 OFFCURVE",
"589 484 OFFCURVE",
"553 319 CURVE SMOOTH",
"521 174 OFFCURVE",
"453 105 OFFCURVE",
"332 105 CURVE SMOOTH"
);
},
{
closed = 1;
nodes = (
"329 -181 LINE",
"350 -82 LINE",
"243 -82 LINE",
"222 -181 LINE"
);
}
);
width = 780;
}
);
leftKerningGroup = O;
note = Ohorndotbelow;
rightKerningGroup = O;
unicode = 1EE2;
},
{
glyphname = Ohorngrave;
lastChange = "2015-10-24 11:20:15 +0000";
layers = (
{
layerId = "B67427C8-F911-4143-A2F2-7B953CC18A6E";
name = "Regular Italic";
paths = (
{
closed = 1;
nodes = (
"526 -10 OFFCURVE",
"643 98 OFFCURVE",
"690 319 CURVE SMOOTH",
"705 390 OFFCURVE",
"707 448 OFFCURVE",
"698 496 CURVE",
"792 511 OFFCURVE",
"846 562 OFFCURVE",
"873 688 CURVE",
"776 688 LINE",
"759 609 OFFCURVE",
"728 582 OFFCURVE",
"660 580 CURVE",
"618 631 OFFCURVE",
"547 654 OFFCURVE",
"449 654 CURVE SMOOTH",
"230 654 OFFCURVE",
"114 555 OFFCURVE",
"64 319 CURVE SMOOTH",
"17 98 OFFCURVE",
"109 -10 OFFCURVE",
"307 -10 CURVE SMOOTH"
);
},
{
closed = 1;
nodes = (
"200 105 OFFCURVE",
"170 168 OFFCURVE",
"201 319 CURVE SMOOTH",
"234 480 OFFCURVE",
"303 539 OFFCURVE",
"424 539 CURVE SMOOTH",
"559 539 OFFCURVE",
"589 484 OFFCURVE",
"553 319 CURVE SMOOTH",
"521 174 OFFCURVE",
"453 105 OFFCURVE",
"332 105 CURVE SMOOTH"
);
},
{
closed = 1;
nodes = (
"536 688 LINE",
"496 875 LINE",
"379 875 LINE",
"427 688 LINE"
);
}
);
width = 780;
}
);
leftKerningGroup = O;
note = Ohorngrave;
rightKerningGroup = O;
unicode = 1EDC;
},
{
glyphname = Ohornhookabove;
lastChange = "2015-10-24 11:20:16 +0000";
layers = (
{
layerId = "B67427C8-F911-4143-A2F2-7B953CC18A6E";
name = "Regular Italic";
paths = (
{
closed = 1;
nodes = (
"526 -10 OFFCURVE",
"643 98 OFFCURVE",
"690 319 CURVE SMOOTH",
"705 390 OFFCURVE",
"707 448 OFFCURVE",
"698 496 CURVE",
"792 511 OFFCURVE",
"846 562 OFFCURVE",
"873 688 CURVE",
"776 688 LINE",
"759 609 OFFCURVE",
"728 582 OFFCURVE",
"660 580 CURVE",
"618 631 OFFCURVE",
"547 654 OFFCURVE",
"449 654 CURVE SMOOTH",
"230 654 OFFCURVE",
"114 555 OFFCURVE",
"64 319 CURVE SMOOTH",
"17 98 OFFCURVE",
"109 -10 OFFCURVE",
"307 -10 CURVE SMOOTH"
);
},
{
closed = 1;
nodes = (
"200 105 OFFCURVE",
"170 168 OFFCURVE",
"201 319 CURVE SMOOTH",
"234 480 OFFCURVE",
"303 539 OFFCURVE",
"424 539 CURVE SMOOTH",
"559 539 OFFCURVE",
"589 484 OFFCURVE",
"553 319 CURVE SMOOTH",
"521 174 OFFCURVE",
"453 105 OFFCURVE",
"332 105 CURVE SMOOTH"
);
},
{
closed = 1;
nodes = (
"641 886 OFFCURVE",
"603 924 OFFCURVE",
"518 924 CURVE SMOOTH",
"479 924 OFFCURVE",
"441 919 OFFCURVE",
"416 911 CURVE",
"401 844 LINE",
"419 851 OFFCURVE",
"447 855 OFFCURVE",
"466 855 CURVE SMOOTH",
"509 855 OFFCURVE",
"532 843 OFFCURVE",
"526 816 CURVE SMOOTH",
"520 786 OFFCURVE",
"500 772 OFFCURVE",
"426 768 CURVE",
"409 687 LINE",
"512 687 LINE",
"522 733 LINE",
"588 745 OFFCURVE",
"617 772 OFFCURVE",
"629 828 CURVE SMOOTH"
);
}
);
width = 780;
}
);
leftKerningGroup = O;
note = Ohornhookabove;
rightKerningGroup = O;
unicode = 1EDE;
},
{
glyphname = Ohorntilde;
lastChange = "2015-10-24 11:20:16 +0000";
layers = (
{
layerId = "B67427C8-F911-4143-A2F2-7B953CC18A6E";
name = "Regular Italic";
paths = (
{
closed = 1;
nodes = (
"526 -10 OFFCURVE",
"643 98 OFFCURVE",
"690 319 CURVE SMOOTH",
"705 390 OFFCURVE",
"707 448 OFFCURVE",
"698 496 CURVE",
"792 511 OFFCURVE",
"846 562 OFFCURVE",
"873 688 CURVE",
"776 688 LINE",
"759 609 OFFCURVE",
"728 582 OFFCURVE",
"660 580 CURVE",
"618 631 OFFCURVE",
"547 654 OFFCURVE",
"449 654 CURVE SMOOTH",
"230 654 OFFCURVE",
"114 555 OFFCURVE",
"64 319 CURVE SMOOTH",
"17 98 OFFCURVE",
"109 -10 OFFCURVE",
"307 -10 CURVE SMOOTH"
);
},
{
closed = 1;
nodes = (
"200 105 OFFCURVE",
"170 168 OFFCURVE",
"201 319 CURVE SMOOTH",
"234 480 OFFCURVE",
"303 539 OFFCURVE",
"424 539 CURVE SMOOTH",
"559 539 OFFCURVE",
"589 484 OFFCURVE",
"553 319 CURVE SMOOTH",
"521 174 OFFCURVE",
"453 105 OFFCURVE",
"332 105 CURVE SMOOTH"
);
},
{
closed = 1;
nodes = (
"592 697 OFFCURVE",
"625 711 OFFCURVE",
"641 729 CURVE",
"662 825 LINE",
"640 801 OFFCURVE",
"609 787 OFFCURVE",
"571 787 CURVE SMOOTH",
"515 787 OFFCURVE",
"479 827 OFFCURVE",
"418 827 CURVE SMOOTH",
"383 827 OFFCURVE",
"347 814 OFFCURVE",
"325 796 CURVE",
"304 700 LINE",
"333 725 OFFCURVE",
"365 737 OFFCURVE",
"402 737 CURVE SMOOTH",
"451 737 OFFCURVE",
"496 697 OFFCURVE",
"555 697 CURVE SMOOTH"
);
}
);
width = 780;
}
);
leftKerningGroup = O;
note = Ohorntilde;
rightKerningGroup = O;
unicode = 1EE0;
},
{
glyphname = Ohungarumlaut;
lastChange = "2015-10-24 11:20:16 +0000";
layers = (
{
layerId = "B67427C8-F911-4143-A2F2-7B953CC18A6E";
name = "Regular Italic";
paths = (
{
closed = 1;
nodes = (
"200 105 OFFCURVE",
"170 168 OFFCURVE",
"201 319 CURVE SMOOTH",
"234 480 OFFCURVE",
"303 539 OFFCURVE",
"424 539 CURVE SMOOTH",
"559 539 OFFCURVE",
"589 484 OFFCURVE",
"553 319 CURVE SMOOTH",
"521 174 OFFCURVE",
"453 105 OFFCURVE",
"332 105 CURVE SMOOTH"
);
},
{
closed = 1;
nodes = (
"526 -10 OFFCURVE",
"643 98 OFFCURVE",
"690 319 CURVE SMOOTH",
"740 555 OFFCURVE",
"651 654 OFFCURVE",
"449 654 CURVE SMOOTH",
"230 654 OFFCURVE",
"114 555 OFFCURVE",
"64 319 CURVE SMOOTH",
"17 98 OFFCURVE",
"109 -10 OFFCURVE",
"307 -10 CURVE SMOOTH"
);
},
{
closed = 1;
nodes = (
"367 687 LINE",
"496 863 LINE",
"377 863 LINE",
"260 687 LINE"
);
},
{
closed = 1;
nodes = (
"594 687 LINE",
"724 863 LINE",
"604 863 LINE",
"487 687 LINE"
);
}
);
width = 700;
}
);
leftKerningGroup = O;
note = Ohungarumlaut;
rightKerningGroup = O;
unicode = 0150;
},
{
glyphname = Omacron;
lastChange = "2015-10-24 11:20:14 +0000";
layers = (
{
layerId = "B67427C8-F911-4143-A2F2-7B953CC18A6E";
name = "Regular Italic";
paths = (
{
closed = 1;
nodes = (
"200 105 OFFCURVE",
"170 168 OFFCURVE",
"201 319 CURVE SMOOTH",
"234 480 OFFCURVE",
"303 539 OFFCURVE",
"424 539 CURVE SMOOTH",
"559 539 OFFCURVE",
"589 484 OFFCURVE",
"553 319 CURVE SMOOTH",
"521 174 OFFCURVE",
"453 105 OFFCURVE",
"332 105 CURVE SMOOTH"
);
},
{
closed = 1;
nodes = (
"526 -10 OFFCURVE",
"643 98 OFFCURVE",
"690 319 CURVE SMOOTH",
"740 555 OFFCURVE",
"651 654 OFFCURVE",
"449 654 CURVE SMOOTH",
"230 654 OFFCURVE",
"114 555 OFFCURVE",
"64 319 CURVE SMOOTH",
"17 98 OFFCURVE",
"109 -10 OFFCURVE",
"307 -10 CURVE SMOOTH"
);
},
{
closed = 1;
nodes = (
"324 806 LINE",
"307 723 LINE",
"614 723 LINE",
"631 806 LINE"
);
}
);
width = 700;
}
);
leftKerningGroup = O;
note = Omacron;
rightKerningGroup = O;
unicode = 014C;
},
{
glyphname = Oslash;
lastChange = "2015-10-24 11:20:15 +0000";
layers = (
{
layerId = "B67427C8-F911-4143-A2F2-7B953CC18A6E";
name = "Regular Italic";
paths = (
{
closed = 1;
nodes = (
"186 -53 LINE",
"217 -1 LINE",
"244 -7 OFFCURVE",
"274 -10 OFFCURVE",
"307 -10 CURVE SMOOTH",
"526 -10 OFFCURVE",
"643 98 OFFCURVE",
"690 319 CURVE SMOOTH",
"726 489 OFFCURVE",
"690 587 OFFCURVE",
"591 629 CURVE",
"629 693 LINE",
"552 693 LINE",
"525 648 LINE",
"502 652 OFFCURVE",
"476 654 OFFCURVE",
"449 654 CURVE SMOOTH",
"230 654 OFFCURVE",
"114 555 OFFCURVE",
"64 319 CURVE SMOOTH",
"31 167 OFFCURVE",
"65 68 OFFCURVE",
"153 22 CURVE",
"109 -53 LINE"
);
},
{
closed = 1;
nodes = (
"313 105 OFFCURVE",
"297 106 OFFCURVE",
"282 109 CURVE",
"525 518 LINE",
"571 490 OFFCURVE",
"577 429 OFFCURVE",
"553 319 CURVE SMOOTH",
"521 174 OFFCURVE",
"453 105 OFFCURVE",
"332 105 CURVE SMOOTH"
);
},
{
closed = 1;
nodes = (
"234 480 OFFCURVE",
"303 539 OFFCURVE",
"424 539 CURVE SMOOTH",
"437 539 OFFCURVE",
"448 538 OFFCURVE",
"459 537 CURVE",
"221 136 LINE",
"186 168 OFFCURVE",
"182 227 OFFCURVE",
"201 319 CURVE SMOOTH"
);
}
);
width = 700;
}
);
leftKerningGroup = O;
note = Oslash;
rightKerningGroup = O;
unicode = 00D8;
},
{
glyphname = Oslashacute;
lastChange = "2015-10-24 11:20:14 +0000";
layers = (
{
layerId = "B67427C8-F911-4143-A2F2-7B953CC18A6E";
name = "Regular Italic";
paths = (
{
closed = 1;
nodes = (
"186 -53 LINE",
"217 -1 LINE",
"244 -7 OFFCURVE",
"274 -10 OFFCURVE",
"307 -10 CURVE SMOOTH",
"526 -10 OFFCURVE",
"643 98 OFFCURVE",
"690 319 CURVE SMOOTH",
"726 489 OFFCURVE",
"690 587 OFFCURVE",
"591 629 CURVE",
"629 693 LINE",
"552 693 LINE",
"525 648 LINE",
"502 652 OFFCURVE",
"476 654 OFFCURVE",
"449 654 CURVE SMOOTH",
"230 654 OFFCURVE",
"114 555 OFFCURVE",
"64 319 CURVE SMOOTH",
"31 167 OFFCURVE",
"65 68 OFFCURVE",
"153 22 CURVE",
"109 -53 LINE"
);
},
{
closed = 1;
nodes = (
"313 105 OFFCURVE",
"297 106 OFFCURVE",
"282 109 CURVE",
"525 518 LINE",
"571 490 OFFCURVE",
"577 429 OFFCURVE",
"553 319 CURVE SMOOTH",
"521 174 OFFCURVE",
"453 105 OFFCURVE",
"332 105 CURVE SMOOTH"
);
},
{
closed = 1;
nodes = (
"234 480 OFFCURVE",
"303 539 OFFCURVE",
"424 539 CURVE SMOOTH",
"437 539 OFFCURVE",
"448 538 OFFCURVE",
"459 537 CURVE",
"221 136 LINE",
"186 168 OFFCURVE",
"182 227 OFFCURVE",
"201 319 CURVE SMOOTH"
);
},
{
closed = 1;
nodes = (
"484 688 LINE",
"612 875 LINE",
"495 875 LINE",
"375 688 LINE"
);
}
);
width = 700;
}
);
leftKerningGroup = O;
note = Oslashacute;
rightKerningGroup = O;
unicode = 01FE;
},
{
glyphname = Otilde;
lastChange = "2015-10-24 11:20:15 +0000";
layers = (
{
layerId = "B67427C8-F911-4143-A2F2-7B953CC18A6E";
name = "Regular Italic";
paths = (
{
closed = 1;
nodes = (
"200 105 OFFCURVE",
"170 168 OFFCURVE",
"201 319 CURVE SMOOTH",
"234 480 OFFCURVE",
"303 539 OFFCURVE",
"424 539 CURVE SMOOTH",
"559 539 OFFCURVE",
"589 484 OFFCURVE",
"553 319 CURVE SMOOTH",
"521 174 OFFCURVE",
"453 105 OFFCURVE",
"332 105 CURVE SMOOTH"
);
},
{
closed = 1;
nodes = (
"526 -10 OFFCURVE",
"643 98 OFFCURVE",
"690 319 CURVE SMOOTH",
"740 555 OFFCURVE",
"651 654 OFFCURVE",
"449 654 CURVE SMOOTH",
"230 654 OFFCURVE",
"114 555 OFFCURVE",
"64 319 CURVE SMOOTH",
"17 98 OFFCURVE",
"109 -10 OFFCURVE",
"307 -10 CURVE SMOOTH"
);
},
{
closed = 1;
nodes = (
"584 710 OFFCURVE",
"617 724 OFFCURVE",
"633 742 CURVE",
"654 838 LINE",
"632 814 OFFCURVE",
"601 800 OFFCURVE",
"563 800 CURVE SMOOTH",
"507 800 OFFCURVE",
"471 840 OFFCURVE",
"410 840 CURVE SMOOTH",
"375 840 OFFCURVE",
"339 827 OFFCURVE",
"317 809 CURVE",
"296 713 LINE",
"325 738 OFFCURVE",
"357 750 OFFCURVE",
"394 750 CURVE SMOOTH",
"443 750 OFFCURVE",
"488 710 OFFCURVE",
"547 710 CURVE SMOOTH"
);
}
);
width = 700;
}
);
leftKerningGroup = O;
note = Otilde;
rightKerningGroup = O;
unicode = 00D5;
},
{
glyphname = OE;
lastChange = "2015-10-24 11:20:16 +0000";
layers = (
{
layerId = "B67427C8-F911-4143-A2F2-7B953CC18A6E";
name = "Regular Italic";
paths = (
{
closed = 1;
nodes = (
"950 0 LINE",
"972 104 LINE",
"645 104 LINE",
"680 270 LINE",
"970 270 LINE",
"992 374 LINE",
"702 374 LINE",
"737 539 LINE",
"1064 539 LINE",
"1086 644 LINE",
"624 644 LINE",
"488 0 LINE"
);
},
{
closed = 1;
nodes = (
"200 105 OFFCURVE",
"170 168 OFFCURVE",
"201 319 CURVE SMOOTH",
"234 480 OFFCURVE",
"303 539 OFFCURVE",
"424 539 CURVE SMOOTH",
"559 539 OFFCURVE",
"589 484 OFFCURVE",
"553 319 CURVE SMOOTH",
"521 174 OFFCURVE",
"453 105 OFFCURVE",
"332 105 CURVE SMOOTH"
);
},
{
closed = 1;
nodes = (
"526 -10 OFFCURVE",
"643 98 OFFCURVE",
"690 319 CURVE SMOOTH",
"740 555 OFFCURVE",
"651 654 OFFCURVE",
"449 654 CURVE SMOOTH",
"230 654 OFFCURVE",
"114 555 OFFCURVE",
"64 319 CURVE SMOOTH",
"17 98 OFFCURVE",
"109 -10 OFFCURVE",
"307 -10 CURVE SMOOTH"
);
}
);
width = 1027;
}
);
leftKerningGroup = O;
note = OE;
rightKerningGroup = E;
unicode = 0152;
},
{
glyphname = P;
lastChange = "2015-10-24 11:20:14 +0000";
layers = (
{
layerId = "B67427C8-F911-4143-A2F2-7B953CC18A6E";
name = "Regular Italic";
paths = (
{
closed = 1;
nodes = (
"655 542 OFFCURVE",
"594 644 OFFCURVE",
"447 644 CURVE SMOOTH",
"153 644 LINE",
"17 0 LINE",
"152 0 LINE",
"194 202 LINE",
"363 202 LINE SMOOTH",
"517 202 OFFCURVE",
"601 291 OFFCURVE",
"629 422 CURVE SMOOTH"
);
},
{
closed = 1;
nodes = (
"217 309 LINE",
"266 537 LINE",
"406 537 LINE SMOOTH",
"494 537 OFFCURVE",
"509 496 OFFCURVE",
"493 422 CURVE SMOOTH",
"479 353 OFFCURVE",
"437 309 OFFCURVE",
"352 309 CURVE SMOOTH"
);
}
);
width = 598;
}
);
note = P;
unicode = 0050;
},
{
glyphname = Thorn;
lastChange = "2015-10-24 11:20:14 +0000";
layers = (
{
layerId = "B67427C8-F911-4143-A2F2-7B953CC18A6E";
name = "Regular Italic";
paths = (
{
closed = 1;
nodes = (
"635 447 OFFCURVE",
"577 542 OFFCURVE",
"434 542 CURVE SMOOTH",
"267 542 LINE",
"288 644 LINE",
"153 644 LINE",
"17 0 LINE",
"152 0 LINE",
"173 100 LINE",
"336 100 LINE SMOOTH",
"494 100 OFFCURVE",
"580 189 OFFCURVE",
"608 320 CURVE SMOOTH"
);
},
{
closed = 1;
nodes = (
"195 207 LINE",
"244 435 LINE",
"384 435 LINE SMOOTH",
"471 435 OFFCURVE",
"487 394 OFFCURVE",
"472 320 CURVE SMOOTH",
"457 251 OFFCURVE",
"415 207 OFFCURVE",
"330 207 CURVE SMOOTH"
);
}
);
width = 617;
}
);
note = Thorn;
unicode = 00DE;
},
{
glyphname = Q;
lastChange = "2015-10-24 11:20:15 +0000";
layers = (
{
layerId = "B67427C8-F911-4143-A2F2-7B953CC18A6E";
name = "Regular Italic";
paths = (
{
closed = 1;
nodes = (
"402 -172 OFFCURVE",
"444 -166 OFFCURVE",
"469 -159 CURVE",
"489 -65 LINE",
"466 -72 OFFCURVE",
"437 -76 OFFCURVE",
"415 -76 CURVE SMOOTH",
"357 -76 OFFCURVE",
"346 -62 OFFCURVE",
"355 -8 CURVE",
"543 7 OFFCURVE",
"646 115 OFFCURVE",
"690 319 CURVE SMOOTH",
"740 555 OFFCURVE",
"651 654 OFFCURVE",
"449 654 CURVE SMOOTH",
"230 654 OFFCURVE",
"114 555 OFFCURVE",
"64 319 CURVE SMOOTH",
"22 124 OFFCURVE",
"89 17 OFFCURVE",
"242 -5 CURVE",
"222 -112 OFFCURVE",
"267 -172 OFFCURVE",
"364 -172 CURVE SMOOTH"
);
},
{
closed = 1;
nodes = (
"200 105 OFFCURVE",
"170 168 OFFCURVE",
"201 319 CURVE SMOOTH",
"234 480 OFFCURVE",
"303 539 OFFCURVE",
"424 539 CURVE SMOOTH",
"559 539 OFFCURVE",
"589 484 OFFCURVE",
"553 319 CURVE SMOOTH",
"521 174 OFFCURVE",
"453 105 OFFCURVE",
"332 105 CURVE SMOOTH"
);
}
);
width = 700;
}
);
leftKerningGroup = O;
note = Q;
rightKerningGroup = O;
unicode = 0051;
},
{
glyphname = R;
lastChange = "2015-10-24 11:20:14 +0000";
layers = (
{
layerId = "B67427C8-F911-4143-A2F2-7B953CC18A6E";
name = "Regular Italic";
paths = (
{
closed = 1;
nodes = (
"660 560 OFFCURVE",
"598 644 OFFCURVE",
"462 644 CURVE SMOOTH",
"153 644 LINE",
"17 0 LINE",
"152 0 LINE",
"197 213 LINE",
"303 213 LINE SMOOTH",
"340 213 OFFCURVE",
"349 202 OFFCURVE",
"356 173 CURVE SMOOTH",
"396 0 LINE",
"536 0 LINE",
"496 180 LINE SMOOTH",
"489 213 OFFCURVE",
"482 230 OFFCURVE",
"465 248 CURVE",
"555 273 OFFCURVE",
"613 341 OFFCURVE",
"631 428 CURVE SMOOTH"
);
},
{
closed = 1;
nodes = (
"221 325 LINE",
"265 532 LINE",
"412 532 LINE SMOOTH",
"493 532 OFFCURVE",
"510 500 OFFCURVE",
"494 428 CURVE SMOOTH",
"479 353 OFFCURVE",
"431 325 OFFCURVE",
"360 325 CURVE SMOOTH"
);
}
);
width = 618;
}
);
note = R;
rightKerningGroup = R;
unicode = 0052;
},
{
glyphname = Racute;
lastChange = "2015-10-24 11:20:14 +0000";
layers = (
{
layerId = "B67427C8-F911-4143-A2F2-7B953CC18A6E";
name = "Regular Italic";
paths = (
{
closed = 1;
nodes = (
"660 560 OFFCURVE",
"598 644 OFFCURVE",
"462 644 CURVE SMOOTH",
"153 644 LINE",
"17 0 LINE",
"152 0 LINE",
"197 213 LINE",
"303 213 LINE SMOOTH",
"340 213 OFFCURVE",
"349 202 OFFCURVE",
"356 173 CURVE SMOOTH",
"396 0 LINE",
"536 0 LINE",
"496 180 LINE SMOOTH",
"489 213 OFFCURVE",
"482 230 OFFCURVE",
"465 248 CURVE",
"555 273 OFFCURVE",
"613 341 OFFCURVE",
"631 428 CURVE SMOOTH"
);
},
{
closed = 1;
nodes = (
"221 325 LINE",
"265 532 LINE",
"412 532 LINE SMOOTH",
"493 532 OFFCURVE",
"510 500 OFFCURVE",
"494 428 CURVE SMOOTH",
"479 353 OFFCURVE",
"431 325 OFFCURVE",
"360 325 CURVE SMOOTH"
);
},
{
closed = 1;
nodes = (
"448 688 LINE",
"576 875 LINE",
"459 875 LINE",
"339 688 LINE"
);
}
);
width = 618;
}
);
note = Racute;
rightKerningGroup = R;
unicode = 0154;
},
{
glyphname = Rcaron;
lastChange = "2015-10-24 11:20:16 +0000";
layers = (
{
layerId = "B67427C8-F911-4143-A2F2-7B953CC18A6E";
name = "Regular Italic";
paths = (
{
closed = 1;
nodes = (
"660 560 OFFCURVE",
"598 644 OFFCURVE",
"462 644 CURVE SMOOTH",
"153 644 LINE",
"17 0 LINE",
"152 0 LINE",
"197 213 LINE",
"303 213 LINE SMOOTH",
"340 213 OFFCURVE",
"349 202 OFFCURVE",
"356 173 CURVE SMOOTH",
"396 0 LINE",
"536 0 LINE",
"496 180 LINE SMOOTH",
"489 213 OFFCURVE",
"482 230 OFFCURVE",
"465 248 CURVE",
"555 273 OFFCURVE",
"613 341 OFFCURVE",
"631 428 CURVE SMOOTH"
);
},
{
closed = 1;
nodes = (
"221 325 LINE",
"265 532 LINE",
"412 532 LINE SMOOTH",
"493 532 OFFCURVE",
"510 500 OFFCURVE",
"494 428 CURVE SMOOTH",
"479 353 OFFCURVE",
"431 325 OFFCURVE",
"360 325 CURVE SMOOTH"
);
},
{
closed = 1;
nodes = (
"622 862 LINE",
"513 862 LINE",
"417 762 LINE",
"367 862 LINE",
"267 862 LINE",
"364 688 LINE",
"450 688 LINE"
);
}
);
width = 618;
}
);
note = Rcaron;
rightKerningGroup = R;
unicode = 0158;
},
{
glyphname = Rcommaaccent;
lastChange = "2015-10-24 11:20:15 +0000";
layers = (
{
layerId = "B67427C8-F911-4143-A2F2-7B953CC18A6E";
name = "Regular Italic";
paths = (
{
closed = 1;
nodes = (
"660 560 OFFCURVE",
"598 644 OFFCURVE",
"462 644 CURVE SMOOTH",
"153 644 LINE",
"17 0 LINE",
"152 0 LINE",
"197 213 LINE",
"303 213 LINE SMOOTH",
"340 213 OFFCURVE",
"349 202 OFFCURVE",
"356 173 CURVE SMOOTH",
"396 0 LINE",
"536 0 LINE",
"496 180 LINE SMOOTH",
"489 213 OFFCURVE",
"482 230 OFFCURVE",
"465 248 CURVE",
"555 273 OFFCURVE",
"613 341 OFFCURVE",
"631 428 CURVE SMOOTH"
);
},
{
closed = 1;
nodes = (
"221 325 LINE",
"265 532 LINE",
"412 532 LINE SMOOTH",
"493 532 OFFCURVE",
"510 500 OFFCURVE",
"494 428 CURVE SMOOTH",
"479 353 OFFCURVE",
"431 325 OFFCURVE",
"360 325 CURVE SMOOTH"
);
},
{
closed = 1;
nodes = (
"211 -238 LINE",
"304 -37 LINE",
"198 -37 LINE",
"125 -238 LINE"
);
}
);
width = 618;
}
);
note = Rcommaaccent;
rightKerningGroup = R;
unicode = 0156;
},
{
glyphname = Rdotbelow;
lastChange = "2015-10-24 11:20:16 +0000";
layers = (
{
layerId = "B67427C8-F911-4143-A2F2-7B953CC18A6E";
name = "Regular Italic";
paths = (
{
closed = 1;
nodes = (
"660 560 OFFCURVE",
"598 644 OFFCURVE",
"462 644 CURVE SMOOTH",
"153 644 LINE",
"17 0 LINE",
"152 0 LINE",
"197 213 LINE",
"303 213 LINE SMOOTH",
"340 213 OFFCURVE",
"349 202 OFFCURVE",
"356 173 CURVE SMOOTH",
"396 0 LINE",
"536 0 LINE",
"496 180 LINE SMOOTH",
"489 213 OFFCURVE",
"482 230 OFFCURVE",
"465 248 CURVE",
"555 273 OFFCURVE",
"613 341 OFFCURVE",
"631 428 CURVE SMOOTH"
);
},
{
closed = 1;
nodes = (
"221 325 LINE",
"265 532 LINE",
"412 532 LINE SMOOTH",
"493 532 OFFCURVE",
"510 500 OFFCURVE",
"494 428 CURVE SMOOTH",
"479 353 OFFCURVE",
"431 325 OFFCURVE",
"360 325 CURVE SMOOTH"
);
},
{
closed = 1;
nodes = (
"287 -181 LINE",
"308 -82 LINE",
"201 -82 LINE",
"180 -181 LINE"
);
}
);
width = 618;
}
);
note = Rdotbelow;
rightKerningGroup = R;
unicode = 1E5A;
},
{
glyphname = Rdotbelowmacron;
lastChange = "2015-10-24 11:20:15 +0000";
layers = (
{
layerId = "B67427C8-F911-4143-A2F2-7B953CC18A6E";
name = "Regular Italic";
paths = (
{
closed = 1;
nodes = (
"660 560 OFFCURVE",
"598 644 OFFCURVE",
"462 644 CURVE SMOOTH",
"153 644 LINE",
"17 0 LINE",
"152 0 LINE",
"197 213 LINE",
"303 213 LINE SMOOTH",
"340 213 OFFCURVE",
"349 202 OFFCURVE",
"356 173 CURVE SMOOTH",
"396 0 LINE",
"536 0 LINE",
"496 180 LINE SMOOTH",
"489 213 OFFCURVE",
"482 230 OFFCURVE",
"465 248 CURVE",
"555 273 OFFCURVE",
"613 341 OFFCURVE",
"631 428 CURVE SMOOTH"
);
},
{
closed = 1;
nodes = (
"221 325 LINE",
"265 532 LINE",
"412 532 LINE SMOOTH",
"493 532 OFFCURVE",
"510 500 OFFCURVE",
"494 428 CURVE SMOOTH",
"479 353 OFFCURVE",
"431 325 OFFCURVE",
"360 325 CURVE SMOOTH"
);
},
{
closed = 1;
nodes = (
"271 800 LINE",
"254 717 LINE",
"561 717 LINE",
"578 800 LINE"
);
},
{
closed = 1;
nodes = (
"270 -181 LINE",
"291 -82 LINE",
"184 -82 LINE",
"163 -181 LINE"
);
}
);
width = 618;
}
);
note = Rdotbelowmacron;
rightKerningGroup = R;
unicode = 1E5C;
},
{
glyphname = Rlinebelow;
lastChange = "2015-10-24 11:20:16 +0000";
layers = (
{
layerId = "B67427C8-F911-4143-A2F2-7B953CC18A6E";
name = "Regular Italic";
paths = (
{
closed = 1;
nodes = (
"660 560 OFFCURVE",
"598 644 OFFCURVE",
"462 644 CURVE SMOOTH",
"153 644 LINE",
"17 0 LINE",
"152 0 LINE",
"197 213 LINE",
"303 213 LINE SMOOTH",
"340 213 OFFCURVE",
"349 202 OFFCURVE",
"356 173 CURVE SMOOTH",
"396 0 LINE",
"536 0 LINE",
"496 180 LINE SMOOTH",
"489 213 OFFCURVE",
"482 230 OFFCURVE",
"465 248 CURVE",
"555 273 OFFCURVE",
"613 341 OFFCURVE",
"631 428 CURVE SMOOTH"
);
},
{
closed = 1;
nodes = (
"221 325 LINE",
"265 532 LINE",
"412 532 LINE SMOOTH",
"493 532 OFFCURVE",
"510 500 OFFCURVE",
"494 428 CURVE SMOOTH",
"479 353 OFFCURVE",
"431 325 OFFCURVE",
"360 325 CURVE SMOOTH"
);
},
{
closed = 1;
nodes = (
"89 -72 LINE",
"72 -155 LINE",
"379 -155 LINE",
"396 -72 LINE"
);
}
);
width = 618;
}
);
note = Rlinebelow;
rightKerningGroup = R;
unicode = 1E5E;
},
{
glyphname = S;
lastChange = "2015-10-24 11:23:01 +0000";
layers = (
{
layerId = "B67427C8-F911-4143-A2F2-7B953CC18A6E";
name = "Regular Italic";
paths = (
{
closed = 1;
nodes = (
"534 268 OFFCURVE",
"508 333 OFFCURVE",
"359 375 CURVE SMOOTH",
"252 405 OFFCURVE",
"223 419 OFFCURVE",
"233 469 CURVE SMOOTH",
"245 526 OFFCURVE",
"299 539 OFFCURVE",
"383 539 CURVE SMOOTH",
"441 539 OFFCURVE",
"499 528 OFFCURVE",
"547 508 CURVE",
"573 627 LINE",
"535 642 OFFCURVE",
"467 654 OFFCURVE",
"390 654 CURVE SMOOTH",
"208 654 OFFCURVE",
"121 587 OFFCURVE",
"96 469 CURVE SMOOTH",
"75 370 OFFCURVE",
"113 320 OFFCURVE",
"240 283 CURVE SMOOTH",
"357 249 OFFCURVE",
"389 234 OFFCURVE",
"377 176 CURVE SMOOTH",
"364 115 OFFCURVE",
"319 104 OFFCURVE",
"226 104 CURVE SMOOTH",
"161 104 OFFCURVE",
"92 120 OFFCURVE",
"39 144 CURVE",
"14 25 LINE",
"61 2 OFFCURVE",
"131 -10 OFFCURVE",
"214 -10 CURVE SMOOTH",
"419 -10 OFFCURVE",
"491 64 OFFCURVE",
"515 176 CURVE SMOOTH"
);
}
);
width = 555;
}
);
leftKerningGroup = S;
note = S;
rightKerningGroup = S;
unicode = 0053;
},
{
glyphname = Sacute;
lastChange = "2015-10-24 11:20:14 +0000";
layers = (
{
layerId = "B67427C8-F911-4143-A2F2-7B953CC18A6E";
name = "Regular Italic";
paths = (
{
closed = 1;
nodes = (
"534 268 OFFCURVE",
"508 333 OFFCURVE",
"359 375 CURVE SMOOTH",
"252 405 OFFCURVE",
"223 419 OFFCURVE",
"233 469 CURVE SMOOTH",
"245 526 OFFCURVE",
"299 539 OFFCURVE",
"383 539 CURVE SMOOTH",
"441 539 OFFCURVE",
"499 528 OFFCURVE",
"547 508 CURVE",
"573 627 LINE",
"535 642 OFFCURVE",
"467 654 OFFCURVE",
"390 654 CURVE SMOOTH",
"208 654 OFFCURVE",
"121 587 OFFCURVE",
"96 469 CURVE SMOOTH",
"75 370 OFFCURVE",
"113 320 OFFCURVE",
"240 283 CURVE SMOOTH",
"357 249 OFFCURVE",
"389 234 OFFCURVE",
"377 176 CURVE SMOOTH",
"364 115 OFFCURVE",
"319 104 OFFCURVE",
"226 104 CURVE SMOOTH",
"161 104 OFFCURVE",
"92 120 OFFCURVE",
"39 144 CURVE",
"14 25 LINE",
"61 2 OFFCURVE",
"131 -10 OFFCURVE",
"214 -10 CURVE SMOOTH",
"419 -10 OFFCURVE",
"491 64 OFFCURVE",
"515 176 CURVE SMOOTH"
);
},
{
closed = 1;
nodes = (
"428 694 LINE",
"556 881 LINE",
"439 881 LINE",
"319 694 LINE"
);
}
);
width = 555;
}
);
leftKerningGroup = S;
note = Sacute;
rightKerningGroup = S;
unicode = 015A;
},
{
glyphname = Scaron;
lastChange = "2015-10-24 11:20:14 +0000";
layers = (
{
layerId = "B67427C8-F911-4143-A2F2-7B953CC18A6E";
name = "Regular Italic";
paths = (
{
closed = 1;
nodes = (
"534 268 OFFCURVE",
"508 333 OFFCURVE",
"359 375 CURVE SMOOTH",
"252 405 OFFCURVE",
"223 419 OFFCURVE",
"233 469 CURVE SMOOTH",
"245 526 OFFCURVE",
"299 539 OFFCURVE",
"383 539 CURVE SMOOTH",
"441 539 OFFCURVE",
"499 528 OFFCURVE",
"547 508 CURVE",
"573 627 LINE",
"535 642 OFFCURVE",
"467 654 OFFCURVE",
"390 654 CURVE SMOOTH",
"208 654 OFFCURVE",
"121 587 OFFCURVE",
"96 469 CURVE SMOOTH",
"75 370 OFFCURVE",
"113 320 OFFCURVE",
"240 283 CURVE SMOOTH",
"357 249 OFFCURVE",
"389 234 OFFCURVE",
"377 176 CURVE SMOOTH",
"364 115 OFFCURVE",
"319 104 OFFCURVE",
"226 104 CURVE SMOOTH",
"161 104 OFFCURVE",
"92 120 OFFCURVE",
"39 144 CURVE",
"14 25 LINE",
"61 2 OFFCURVE",
"131 -10 OFFCURVE",
"214 -10 CURVE SMOOTH",
"419 -10 OFFCURVE",
"491 64 OFFCURVE",
"515 176 CURVE SMOOTH"
);
},
{
closed = 1;
nodes = (
"606 862 LINE",
"497 862 LINE",
"401 762 LINE",
"351 862 LINE",
"251 862 LINE",
"348 688 LINE",
"434 688 LINE"
);
}
);
width = 555;
}
);
leftKerningGroup = S;
note = Scaron;
rightKerningGroup = S;
unicode = 0160;
},
{
glyphname = Scedilla;
lastChange = "2015-10-24 11:20:15 +0000";
layers = (
{
layerId = "B67427C8-F911-4143-A2F2-7B953CC18A6E";
name = "Regular Italic";
paths = (
{
closed = 1;
nodes = (
"342 -80 OFFCURVE",
"315 -45 OFFCURVE",
"244 -45 CURVE",
"264 -8 LINE",
"431 3 OFFCURVE",
"493 73 OFFCURVE",
"515 176 CURVE SMOOTH",
"534 268 OFFCURVE",
"508 333 OFFCURVE",
"359 375 CURVE SMOOTH",
"252 405 OFFCURVE",
"223 419 OFFCURVE",
"233 469 CURVE SMOOTH",
"245 526 OFFCURVE",
"299 539 OFFCURVE",
"383 539 CURVE SMOOTH",
"441 539 OFFCURVE",
"499 528 OFFCURVE",
"547 508 CURVE",
"573 627 LINE",
"535 642 OFFCURVE",
"467 654 OFFCURVE",
"390 654 CURVE SMOOTH",
"208 654 OFFCURVE",
"121 587 OFFCURVE",
"96 469 CURVE SMOOTH",
"75 370 OFFCURVE",
"113 320 OFFCURVE",
"240 283 CURVE SMOOTH",
"357 249 OFFCURVE",
"389 234 OFFCURVE",
"377 176 CURVE SMOOTH",
"364 115 OFFCURVE",
"319 104 OFFCURVE",
"226 104 CURVE SMOOTH",
"161 104 OFFCURVE",
"92 120 OFFCURVE",
"39 144 CURVE",
"14 25 LINE",
"54 5 OFFCURVE",
"110 -6 OFFCURVE",
"176 -9 CURVE",
"132 -98 LINE",
"176 -98 LINE SMOOTH",
"223 -98 OFFCURVE",
"251 -100 OFFCURVE",
"244 -135 CURVE SMOOTH",
"238 -167 OFFCURVE",
"215 -172 OFFCURVE",
"157 -172 CURVE SMOOTH",
"136 -172 OFFCURVE",
"115 -169 OFFCURVE",
"98 -164 CURVE",
"83 -232 LINE",
"97 -236 OFFCURVE",
"134 -240 OFFCURVE",
"157 -240 CURVE SMOOTH",
"261 -240 OFFCURVE",
"317 -202 OFFCURVE",
"331 -136 CURVE SMOOTH"
);
}
);
width = 555;
}
);
leftKerningGroup = S;
note = Scedilla;
rightKerningGroup = S;
unicode = 015E;
},
{
glyphname = Scircumflex;
lastChange = "2015-10-24 11:20:15 +0000";
layers = (
{
layerId = "B67427C8-F911-4143-A2F2-7B953CC18A6E";
name = "Regular Italic";
paths = (
{
closed = 1;
nodes = (
"534 268 OFFCURVE",
"508 333 OFFCURVE",
"359 375 CURVE SMOOTH",
"252 405 OFFCURVE",
"223 419 OFFCURVE",
"233 469 CURVE SMOOTH",
"245 526 OFFCURVE",
"299 539 OFFCURVE",
"383 539 CURVE SMOOTH",
"441 539 OFFCURVE",
"499 528 OFFCURVE",
"547 508 CURVE",
"573 627 LINE",
"535 642 OFFCURVE",
"467 654 OFFCURVE",
"390 654 CURVE SMOOTH",
"208 654 OFFCURVE",
"121 587 OFFCURVE",
"96 469 CURVE SMOOTH",
"75 370 OFFCURVE",
"113 320 OFFCURVE",
"240 283 CURVE SMOOTH",
"357 249 OFFCURVE",
"389 234 OFFCURVE",
"377 176 CURVE SMOOTH",
"364 115 OFFCURVE",
"319 104 OFFCURVE",
"226 104 CURVE SMOOTH",
"161 104 OFFCURVE",
"92 120 OFFCURVE",
"39 144 CURVE",
"14 25 LINE",
"61 2 OFFCURVE",
"131 -10 OFFCURVE",
"214 -10 CURVE SMOOTH",
"419 -10 OFFCURVE",
"491 64 OFFCURVE",
"515 176 CURVE SMOOTH"
);
},
{
closed = 1;
nodes = (
"459 878 LINE",
"373 878 LINE",
"202 704 LINE",
"312 704 LINE",
"405 804 LINE",
"458 704 LINE",
"557 704 LINE"
);
}
);
width = 555;
}
);
leftKerningGroup = S;
note = Scircumflex;
rightKerningGroup = S;
unicode = 015C;
},
{
glyphname = Scommaaccent;
lastChange = "2015-10-24 11:20:15 +0000";
layers = (
{
layerId = "B67427C8-F911-4143-A2F2-7B953CC18A6E";
name = "Regular Italic";
paths = (
{
closed = 1;
nodes = (
"534 268 OFFCURVE",
"508 333 OFFCURVE",
"359 375 CURVE SMOOTH",
"252 405 OFFCURVE",
"223 419 OFFCURVE",
"233 469 CURVE SMOOTH",
"245 526 OFFCURVE",
"299 539 OFFCURVE",
"383 539 CURVE SMOOTH",
"441 539 OFFCURVE",
"499 528 OFFCURVE",
"547 508 CURVE",
"573 627 LINE",
"535 642 OFFCURVE",
"467 654 OFFCURVE",
"390 654 CURVE SMOOTH",
"208 654 OFFCURVE",
"121 587 OFFCURVE",
"96 469 CURVE SMOOTH",
"75 370 OFFCURVE",
"113 320 OFFCURVE",
"240 283 CURVE SMOOTH",
"357 249 OFFCURVE",
"389 234 OFFCURVE",
"377 176 CURVE SMOOTH",
"364 115 OFFCURVE",
"319 104 OFFCURVE",
"226 104 CURVE SMOOTH",
"161 104 OFFCURVE",
"92 120 OFFCURVE",
"39 144 CURVE",
"14 25 LINE",
"61 2 OFFCURVE",
"131 -10 OFFCURVE",
"214 -10 CURVE SMOOTH",
"419 -10 OFFCURVE",
"491 64 OFFCURVE",
"515 176 CURVE SMOOTH"
);
},
{
closed = 1;
nodes = (
"210 -226 LINE",
"290 -47 LINE",
"174 -47 LINE",
"107 -226 LINE"
);
}
);
width = 555;
}
);
leftKerningGroup = S;
note = Scommaaccent;
rightKerningGroup = S;
unicode = 0218;
},
{
glyphname = Sdotaccent;
lastChange = "2015-10-24 11:20:14 +0000";
layers = (
{
layerId = "B67427C8-F911-4143-A2F2-7B953CC18A6E";
name = "Regular Italic";
paths = (
{
closed = 1;
nodes = (
"534 268 OFFCURVE",
"508 333 OFFCURVE",
"359 375 CURVE SMOOTH",
"252 405 OFFCURVE",
"223 419 OFFCURVE",
"233 469 CURVE SMOOTH",
"245 526 OFFCURVE",
"299 539 OFFCURVE",
"383 539 CURVE SMOOTH",
"441 539 OFFCURVE",
"499 528 OFFCURVE",
"547 508 CURVE",
"573 627 LINE",
"535 642 OFFCURVE",
"467 654 OFFCURVE",
"390 654 CURVE SMOOTH",
"208 654 OFFCURVE",
"121 587 OFFCURVE",
"96 469 CURVE SMOOTH",
"75 370 OFFCURVE",
"113 320 OFFCURVE",
"240 283 CURVE SMOOTH",
"357 249 OFFCURVE",
"389 234 OFFCURVE",
"377 176 CURVE SMOOTH",
"364 115 OFFCURVE",
"319 104 OFFCURVE",
"226 104 CURVE SMOOTH",
"161 104 OFFCURVE",
"92 120 OFFCURVE",
"39 144 CURVE",
"14 25 LINE",
"61 2 OFFCURVE",
"131 -10 OFFCURVE",
"214 -10 CURVE SMOOTH",
"419 -10 OFFCURVE",
"491 64 OFFCURVE",
"515 176 CURVE SMOOTH"
);
},
{
closed = 1;
nodes = (
"435 713 LINE",
"456 811 LINE",
"351 811 LINE",
"330 713 LINE"
);
}
);
width = 555;
}
);
leftKerningGroup = S;
note = Sdotaccent;
rightKerningGroup = S;
unicode = 1E60;
},
{
glyphname = Sdotbelow;
lastChange = "2015-10-24 11:20:15 +0000";
layers = (
{
layerId = "B67427C8-F911-4143-A2F2-7B953CC18A6E";
name = "Regular Italic";
paths = (
{
closed = 1;
nodes = (
"534 268 OFFCURVE",
"508 333 OFFCURVE",
"359 375 CURVE SMOOTH",
"252 405 OFFCURVE",
"223 419 OFFCURVE",
"233 469 CURVE SMOOTH",
"245 526 OFFCURVE",
"299 539 OFFCURVE",
"383 539 CURVE SMOOTH",
"441 539 OFFCURVE",
"499 528 OFFCURVE",
"547 508 CURVE",
"573 627 LINE",
"535 642 OFFCURVE",
"467 654 OFFCURVE",
"390 654 CURVE SMOOTH",
"208 654 OFFCURVE",
"121 587 OFFCURVE",
"96 469 CURVE SMOOTH",
"75 370 OFFCURVE",
"113 320 OFFCURVE",
"240 283 CURVE SMOOTH",
"357 249 OFFCURVE",
"389 234 OFFCURVE",
"377 176 CURVE SMOOTH",
"364 115 OFFCURVE",
"319 104 OFFCURVE",
"226 104 CURVE SMOOTH",
"161 104 OFFCURVE",
"92 120 OFFCURVE",
"39 144 CURVE",
"14 25 LINE",
"61 2 OFFCURVE",
"131 -10 OFFCURVE",
"214 -10 CURVE SMOOTH",
"419 -10 OFFCURVE",
"491 64 OFFCURVE",
"515 176 CURVE SMOOTH"
);
},
{
closed = 1;
nodes = (
"250 -181 LINE",
"271 -82 LINE",
"164 -82 LINE",
"143 -181 LINE"
);
}
);
width = 555;
}
);
leftKerningGroup = S;
note = Sdotbelow;
rightKerningGroup = S;
unicode = 1E62;
},
{
glyphname = Germandbls;
lastChange = "2015-10-24 11:20:16 +0000";
layers = (
{
layerId = "B67427C8-F911-4143-A2F2-7B953CC18A6E";
name = "Regular Italic";
paths = (
{
closed = 1;
nodes = (
"452 134 OFFCURVE",
"415 105 OFFCURVE",
"347 105 CURVE SMOOTH",
"308 105 OFFCURVE",
"264 113 OFFCURVE",
"234 127 CURVE",
"210 13 LINE",
"248 -2 OFFCURVE",
"294 -10 OFFCURVE",
"349 -10 CURVE SMOOTH",
"486 -10 OFFCURVE",
"565 75 OFFCURVE",
"589 185 CURVE SMOOTH",
"608 275 OFFCURVE",
"552 339 OFFCURVE",
"469 339 CURVE SMOOTH",
"444 339 LINE",
"620 433 LINE",
"645 553 OFFCURVE",
"580 654 OFFCURVE",
"413 654 CURVE SMOOTH",
"229 654 OFFCURVE",
"132 566 OFFCURVE",
"100 417 CURVE SMOOTH",
"12 0 LINE",
"140 0 LINE",
"229 423 LINE SMOOTH",
"246 503 OFFCURVE",
"297 544 OFFCURVE",
"389 544 CURVE SMOOTH",
"488 544 OFFCURVE",
"508 506 OFFCURVE",
"499 464 CURVE",
"313 362 LINE",
"291 256 LINE",
"385 256 LINE SMOOTH",
"451 256 OFFCURVE",
"474 238 OFFCURVE",
"463 187 CURVE SMOOTH"
);
}
);
width = 627;
}
);
note = uni1E9E;
unicode = 1E9E;
},
{
glyphname = Schwa;
lastChange = "2015-10-24 11:20:16 +0000";
layers = (
{
layerId = "B67427C8-F911-4143-A2F2-7B953CC18A6E";
name = "Regular Italic";
paths = (
{
closed = 1;
nodes = (
"78 382 LINE",
"53 265 LINE SMOOTH",
"18 99 OFFCURVE",
"110 -10 OFFCURVE",
"286 -10 CURVE SMOOTH",
"505 -10 OFFCURVE",
"626 115 OFFCURVE",
"668 314 CURVE SMOOTH",
"715 533 OFFCURVE",
"611 654 OFFCURVE",
"400 654 CURVE SMOOTH",
"316 654 OFFCURVE",
"228 636 OFFCURVE",
"164 613 CURVE",
"143 514 LINE",
"198 536 OFFCURVE",
"288 553 OFFCURVE",
"349 553 CURVE SMOOTH",
"534 553 OFFCURVE",
"577 511 OFFCURVE",
"559 382 CURVE"
);
},
{
closed = 1;
nodes = (
"179 87 OFFCURVE",
"144 141 OFFCURVE",
"165 237 CURVE SMOOTH",
"175 284 LINE",
"538 284 LINE",
"510 152 OFFCURVE",
"433 87 OFFCURVE",
"307 87 CURVE SMOOTH"
);
}
);
width = 679;
}
);
note = uni018F;
unicode = 018F;
},
{
glyphname = T;
lastChange = "2015-10-24 11:20:14 +0000";
layers = (
{
layerId = "B67427C8-F911-4143-A2F2-7B953CC18A6E";
name = "Regular Italic";
paths = (
{
closed = 1;
nodes = (
"621 540 LINE",
"643 644 LINE",
"113 644 LINE",
"91 540 LINE",
"289 540 LINE",
"175 0 LINE",
"310 0 LINE",
"424 540 LINE"
);
}
);
width = 564;
}
);
leftKerningGroup = T;
note = T;
rightKerningGroup = T;
unicode = 0054;
},
{
glyphname = Tbar;
lastChange = "2015-10-24 11:20:16 +0000";
layers = (
{
layerId = "B67427C8-F911-4143-A2F2-7B953CC18A6E";
name = "Regular Italic";
paths = (
{
closed = 1;
nodes = (
"621 540 LINE",
"643 644 LINE",
"113 644 LINE",
"91 540 LINE",
"289 540 LINE",
"258 392 LINE",
"141 392 LINE",
"120 293 LINE",
"237 293 LINE",
"175 0 LINE",
"310 0 LINE",
"372 293 LINE",
"490 293 LINE",
"511 392 LINE",
"393 392 LINE",
"424 540 LINE"
);
}
);
width = 564;
}
);
leftKerningGroup = T;
note = Tbar;
rightKerningGroup = T;
unicode = 0166;
},
{
glyphname = Tcaron;
lastChange = "2015-10-24 11:20:14 +0000";
layers = (
{
layerId = "B67427C8-F911-4143-A2F2-7B953CC18A6E";
name = "Regular Italic";
paths = (
{
closed = 1;
nodes = (
"621 540 LINE",
"643 644 LINE",
"113 644 LINE",
"91 540 LINE",
"289 540 LINE",
"175 0 LINE",
"310 0 LINE",
"424 540 LINE"
);
},
{
closed = 1;
nodes = (
"606 878 LINE",
"497 878 LINE",
"401 778 LINE",
"351 878 LINE",
"251 878 LINE",
"348 704 LINE",
"434 704 LINE"
);
}
);
width = 564;
}
);
leftKerningGroup = T;
note = Tcaron;
rightKerningGroup = T;
unicode = 0164;
},
{
glyphname = Tcedilla;
lastChange = "2015-10-24 11:20:14 +0000";
layers = (
{
layerId = "B67427C8-F911-4143-A2F2-7B953CC18A6E";
name = "Regular Italic";
paths = (
{
closed = 1;
nodes = (
"362 -80 OFFCURVE",
"335 -45 OFFCURVE",
"264 -45 CURVE",
"289 0 LINE",
"310 0 LINE",
"424 540 LINE",
"621 540 LINE",
"643 644 LINE",
"113 644 LINE",
"91 540 LINE",
"289 540 LINE",
"175 0 LINE",
"201 0 LINE",
"152 -98 LINE",
"196 -98 LINE SMOOTH",
"243 -98 OFFCURVE",
"271 -100 OFFCURVE",
"264 -135 CURVE SMOOTH",
"258 -167 OFFCURVE",
"235 -172 OFFCURVE",
"177 -172 CURVE SMOOTH",
"156 -172 OFFCURVE",
"135 -169 OFFCURVE",
"118 -164 CURVE",
"103 -232 LINE",
"117 -236 OFFCURVE",
"154 -240 OFFCURVE",
"177 -240 CURVE SMOOTH",
"281 -240 OFFCURVE",
"337 -202 OFFCURVE",
"351 -136 CURVE SMOOTH"
);
}
);
width = 564;
}
);
leftKerningGroup = T;
note = Tcedilla;
rightKerningGroup = T;
unicode = 0162;
},
{
glyphname = Tcommaaccent;
lastChange = "2015-10-24 11:20:15 +0000";
layers = (
{
layerId = "B67427C8-F911-4143-A2F2-7B953CC18A6E";
name = "Regular Italic";
paths = (
{
closed = 1;
nodes = (
"609 540 LINE",
"631 644 LINE",
"101 644 LINE",
"79 540 LINE",
"277 540 LINE",
"163 0 LINE",
"298 0 LINE",
"412 540 LINE"
);
},
{
closed = 1;
nodes = (
"184 -248 LINE",
"277 -47 LINE",
"171 -47 LINE",
"98 -248 LINE"
);
}
);
width = 552;
}
);
leftKerningGroup = T;
note = Tcommaaccent;
rightKerningGroup = T;
unicode = 021A;
},
{
glyphname = Tdotbelow;
lastChange = "2015-10-24 11:20:16 +0000";
layers = (
{
layerId = "B67427C8-F911-4143-A2F2-7B953CC18A6E";
name = "Regular Italic";
paths = (
{
closed = 1;
nodes = (
"621 540 LINE",
"643 644 LINE",
"113 644 LINE",
"91 540 LINE",
"289 540 LINE",
"175 0 LINE",
"310 0 LINE",
"424 540 LINE"
);
},
{
closed = 1;
nodes = (
"257 -171 LINE",
"278 -72 LINE",
"171 -72 LINE",
"150 -171 LINE"
);
}
);
width = 564;
}
);
leftKerningGroup = T;
note = Tdotbelow;
rightKerningGroup = T;
unicode = 1E6C;
},
{
glyphname = Tlinebelow;
lastChange = "2015-10-24 11:20:13 +0000";
layers = (
{
layerId = "B67427C8-F911-4143-A2F2-7B953CC18A6E";
name = "Regular Italic";
paths = (
{
closed = 1;
nodes = (
"621 540 LINE",
"643 644 LINE",
"113 644 LINE",
"91 540 LINE",
"289 540 LINE",
"175 0 LINE",
"310 0 LINE",
"424 540 LINE"
);
},
{
closed = 1;
nodes = (
"75 -62 LINE",
"58 -145 LINE",
"365 -145 LINE",
"382 -62 LINE"
);
}
);
width = 564;
}
);
leftKerningGroup = T;
note = Tlinebelow;
rightKerningGroup = T;
unicode = 1E6E;
},
{
glyphname = U;
lastChange = "2015-10-24 11:23:26 +0000";
layers = (
{
layerId = "B67427C8-F911-4143-A2F2-7B953CC18A6E";
name = "Regular Italic";
paths = (
{
closed = 1;
nodes = (
"206 105 OFFCURVE",
"177 142 OFFCURVE",
"200 252 CURVE SMOOTH",
"283 644 LINE",
"148 644 LINE",
"63 242 LINE SMOOTH",
"29 83 OFFCURVE",
"131 -10 OFFCURVE",
"297 -10 CURVE SMOOTH",
"493 -10 OFFCURVE",
"602 73 OFFCURVE",
"638 242 CURVE SMOOTH",
"723 644 LINE",
"588 644 LINE",
"505 252 LINE SMOOTH",
"484 153 OFFCURVE",
"430 105 OFFCURVE",
"322 105 CURVE SMOOTH"
);
}
);
width = 679;
}
);
leftKerningGroup = U;
note = U;
rightKerningGroup = U;
unicode = 0055;
},
{
glyphname = Uacute;
lastChange = "2015-10-24 11:20:13 +0000";
layers = (
{
layerId = "B67427C8-F911-4143-A2F2-7B953CC18A6E";
name = "Regular Italic";
paths = (
{
closed = 1;
nodes = (
"206 105 OFFCURVE",
"177 142 OFFCURVE",
"200 252 CURVE SMOOTH",
"283 644 LINE",
"148 644 LINE",
"63 242 LINE SMOOTH",
"29 83 OFFCURVE",
"131 -10 OFFCURVE",
"297 -10 CURVE SMOOTH",
"493 -10 OFFCURVE",
"602 73 OFFCURVE",
"638 242 CURVE SMOOTH",
"723 644 LINE",
"588 644 LINE",
"505 252 LINE SMOOTH",
"484 153 OFFCURVE",
"430 105 OFFCURVE",
"322 105 CURVE SMOOTH"
);
},
{
closed = 1;
nodes = (
"496 688 LINE",
"624 875 LINE",
"507 875 LINE",
"387 688 LINE"
);
}
);
width = 679;
}
);
leftKerningGroup = U;
note = Uacute;
rightKerningGroup = U;
unicode = 00DA;
},
{
glyphname = Ubreve;
lastChange = "2015-10-24 11:20:13 +0000";
layers = (
{
layerId = "B67427C8-F911-4143-A2F2-7B953CC18A6E";
name = "Regular Italic";
paths = (
{
closed = 1;
nodes = (
"206 105 OFFCURVE",
"177 142 OFFCURVE",
"200 252 CURVE SMOOTH",
"283 644 LINE",
"148 644 LINE",
"63 242 LINE SMOOTH",
"29 83 OFFCURVE",
"131 -10 OFFCURVE",
"297 -10 CURVE SMOOTH",
"493 -10 OFFCURVE",
"602 73 OFFCURVE",
"638 242 CURVE SMOOTH",
"723 644 LINE",
"588 644 LINE",
"505 252 LINE SMOOTH",
"484 153 OFFCURVE",
"430 105 OFFCURVE",
"322 105 CURVE SMOOTH"
);
},
{
closed = 1;
nodes = (
"317 845 LINE",
"296 747 OFFCURVE",
"347 688 OFFCURVE",
"439 688 CURVE SMOOTH",
"547 688 OFFCURVE",
"611 747 OFFCURVE",
"632 845 CURVE",
"537 845 LINE",
"528 803 OFFCURVE",
"497 766 OFFCURVE",
"451 766 CURVE SMOOTH",
"398 766 OFFCURVE",
"392 803 OFFCURVE",
"401 845 CURVE"
);
}
);
width = 679;
}
);
leftKerningGroup = U;
note = Ubreve;
rightKerningGroup = U;
unicode = 016C;
},
{
glyphname = Ucaron;
lastChange = "2015-10-24 11:20:15 +0000";
layers = (
{
layerId = "B67427C8-F911-4143-A2F2-7B953CC18A6E";
name = "Regular Italic";
paths = (
{
closed = 1;
nodes = (
"206 105 OFFCURVE",
"177 142 OFFCURVE",
"200 252 CURVE SMOOTH",
"283 644 LINE",
"148 644 LINE",
"63 242 LINE SMOOTH",
"29 83 OFFCURVE",
"131 -10 OFFCURVE",
"297 -10 CURVE SMOOTH",
"493 -10 OFFCURVE",
"602 73 OFFCURVE",
"638 242 CURVE SMOOTH",
"723 644 LINE",
"588 644 LINE",
"505 252 LINE SMOOTH",
"484 153 OFFCURVE",
"430 105 OFFCURVE",
"322 105 CURVE SMOOTH"
);
},
{
closed = 1;
nodes = (
"661 862 LINE",
"552 862 LINE",
"456 762 LINE",
"406 862 LINE",
"306 862 LINE",
"403 688 LINE",
"489 688 LINE"
);
}
);
width = 679;
}
);
leftKerningGroup = U;
note = Ucaron;
rightKerningGroup = U;
unicode = 01D3;
},
{
glyphname = Ucircumflex;
lastChange = "2015-10-24 11:20:14 +0000";
layers = (
{
layerId = "B67427C8-F911-4143-A2F2-7B953CC18A6E";
name = "Regular Italic";
paths = (
{
closed = 1;
nodes = (
"206 105 OFFCURVE",
"177 142 OFFCURVE",
"200 252 CURVE SMOOTH",
"283 644 LINE",
"148 644 LINE",
"63 242 LINE SMOOTH",
"29 83 OFFCURVE",
"131 -10 OFFCURVE",
"297 -10 CURVE SMOOTH",
"493 -10 OFFCURVE",
"602 73 OFFCURVE",
"638 242 CURVE SMOOTH",
"723 644 LINE",
"588 644 LINE",
"505 252 LINE SMOOTH",
"484 153 OFFCURVE",
"430 105 OFFCURVE",
"322 105 CURVE SMOOTH"
);
},
{
closed = 1;
nodes = (
"526 862 LINE",
"440 862 LINE",
"269 688 LINE",
"379 688 LINE",
"472 788 LINE",
"525 688 LINE",
"624 688 LINE"
);
}
);
width = 679;
}
);
leftKerningGroup = U;
note = Ucircumflex;
rightKerningGroup = U;
unicode = 00DB;
},
{
glyphname = Udieresis;
lastChange = "2015-10-24 11:20:15 +0000";
layers = (
{
layerId = "B67427C8-F911-4143-A2F2-7B953CC18A6E";
name = "Regular Italic";
paths = (
{
closed = 1;
nodes = (
"206 105 OFFCURVE",
"177 142 OFFCURVE",
"200 252 CURVE SMOOTH",
"283 644 LINE",
"148 644 LINE",
"63 242 LINE SMOOTH",
"29 83 OFFCURVE",
"131 -10 OFFCURVE",
"297 -10 CURVE SMOOTH",
"493 -10 OFFCURVE",
"602 73 OFFCURVE",
"638 242 CURVE SMOOTH",
"723 644 LINE",
"588 644 LINE",
"505 252 LINE SMOOTH",
"484 153 OFFCURVE",
"430 105 OFFCURVE",
"322 105 CURVE SMOOTH"
);
},
{
closed = 1;
nodes = (
"406 713 LINE",
"427 811 LINE",
"322 811 LINE",
"301 713 LINE"
);
},
{
closed = 1;
nodes = (
"602 713 LINE",
"623 811 LINE",
"517 811 LINE",
"496 713 LINE"
);
}
);
width = 679;
}
);
leftKerningGroup = U;
note = Udieresis;
rightKerningGroup = U;
unicode = 00DC;
},
{
glyphname = Udieresisacute;
lastChange = "2015-10-24 11:20:13 +0000";
layers = (
{
layerId = "B67427C8-F911-4143-A2F2-7B953CC18A6E";
name = "Regular Italic";
paths = (
{
closed = 1;
nodes = (
"206 105 OFFCURVE",
"177 142 OFFCURVE",
"200 252 CURVE SMOOTH",
"283 644 LINE",
"148 644 LINE",
"63 242 LINE SMOOTH",
"29 83 OFFCURVE",
"131 -10 OFFCURVE",
"297 -10 CURVE SMOOTH",
"493 -10 OFFCURVE",
"602 73 OFFCURVE",
"638 242 CURVE SMOOTH",
"723 644 LINE",
"588 644 LINE",
"505 252 LINE SMOOTH",
"484 153 OFFCURVE",
"430 105 OFFCURVE",
"322 105 CURVE SMOOTH"
);
},
{
closed = 1;
nodes = (
"395 688 LINE",
"415 781 LINE",
"315 781 LINE",
"295 688 LINE"
);
},
{
closed = 1;
nodes = (
"596 688 LINE",
"616 781 LINE",
"515 781 LINE",
"495 688 LINE"
);
},
{
closed = 1;
nodes = (
"514 801 LINE",
"607 930 LINE",
"505 930 LINE",
"419 801 LINE"
);
}
);
width = 679;
}
);
leftKerningGroup = U;
note = Udieresisacute;
rightKerningGroup = U;
unicode = 01D7;
},
{
glyphname = Udieresiscaron;
lastChange = "2015-10-24 11:20:15 +0000";
layers = (
{
layerId = "B67427C8-F911-4143-A2F2-7B953CC18A6E";
name = "Regular Italic";
paths = (
{
closed = 1;
nodes = (
"206 105 OFFCURVE",
"177 142 OFFCURVE",
"200 252 CURVE SMOOTH",
"283 644 LINE",
"148 644 LINE",
"63 242 LINE SMOOTH",
"29 83 OFFCURVE",
"131 -10 OFFCURVE",
"297 -10 CURVE SMOOTH",
"493 -10 OFFCURVE",
"602 73 OFFCURVE",
"638 242 CURVE SMOOTH",
"723 644 LINE",
"588 644 LINE",
"505 252 LINE SMOOTH",
"484 153 OFFCURVE",
"430 105 OFFCURVE",
"322 105 CURVE SMOOTH"
);
},
{
closed = 1;
nodes = (
"596 688 LINE",
"616 781 LINE",
"516 781 LINE",
"496 688 LINE"
);
},
{
closed = 1;
nodes = (
"396 688 LINE",
"416 781 LINE",
"315 781 LINE",
"295 688 LINE"
);
},
{
closed = 1;
nodes = (
"654 919 LINE",
"551 919 LINE",
"475 846 LINE",
"431 919 LINE",
"336 919 LINE",
"423 798 LINE",
"516 798 LINE"
);
}
);
width = 679;
}
);
leftKerningGroup = U;
note = Udieresiscaron;
rightKerningGroup = U;
unicode = 01D9;
},
{
glyphname = Udieresisgrave;
lastChange = "2015-10-24 11:20:14 +0000";
layers = (
{
layerId = "B67427C8-F911-4143-A2F2-7B953CC18A6E";
name = "Regular Italic";
paths = (
{
closed = 1;
nodes = (
"206 105 OFFCURVE",
"177 142 OFFCURVE",
"200 252 CURVE SMOOTH",
"283 644 LINE",
"148 644 LINE",
"63 242 LINE SMOOTH",
"29 83 OFFCURVE",
"131 -10 OFFCURVE",
"297 -10 CURVE SMOOTH",
"493 -10 OFFCURVE",
"602 73 OFFCURVE",
"638 242 CURVE SMOOTH",
"723 644 LINE",
"588 644 LINE",
"505 252 LINE SMOOTH",
"484 153 OFFCURVE",
"430 105 OFFCURVE",
"322 105 CURVE SMOOTH"
);
},
{
closed = 1;
nodes = (
"595 688 LINE",
"615 781 LINE",
"514 781 LINE",
"494 688 LINE"
);
},
{
closed = 1;
nodes = (
"394 688 LINE",
"414 781 LINE",
"314 781 LINE",
"294 688 LINE"
);
},
{
closed = 1;
nodes = (
"518 801 LINE",
"486 930 LINE",
"384 930 LINE",
"423 801 LINE"
);
}
);
width = 679;
}
);
leftKerningGroup = U;
note = Udieresisgrave;
rightKerningGroup = U;
unicode = 01DB;
},
{
glyphname = Udieresismacron;
lastChange = "2015-10-24 11:20:15 +0000";
layers = (
{
layerId = "B67427C8-F911-4143-A2F2-7B953CC18A6E";
name = "Regular Italic";
paths = (
{
closed = 1;
nodes = (
"206 105 OFFCURVE",
"177 142 OFFCURVE",
"200 252 CURVE SMOOTH",
"283 644 LINE",
"148 644 LINE",
"63 242 LINE SMOOTH",
"29 83 OFFCURVE",
"131 -10 OFFCURVE",
"297 -10 CURVE SMOOTH",
"493 -10 OFFCURVE",
"602 73 OFFCURVE",
"638 242 CURVE SMOOTH",
"723 644 LINE",
"588 644 LINE",
"505 252 LINE SMOOTH",
"484 153 OFFCURVE",
"430 105 OFFCURVE",
"322 105 CURVE SMOOTH"
);
},
{
closed = 1;
nodes = (
"346 943 LINE",
"329 860 LINE",
"636 860 LINE",
"653 943 LINE"
);
},
{
closed = 1;
nodes = (
"403 702 LINE",
"424 800 LINE",
"319 800 LINE",
"298 702 LINE"
);
},
{
closed = 1;
nodes = (
"599 702 LINE",
"620 800 LINE",
"514 800 LINE",
"493 702 LINE"
);
}
);
width = 679;
}
);
leftKerningGroup = U;
note = Udieresismacron;
rightKerningGroup = U;
unicode = 01D5;
},
{
glyphname = Udotbelow;
lastChange = "2015-10-24 11:20:14 +0000";
layers = (
{
layerId = "B67427C8-F911-4143-A2F2-7B953CC18A6E";
name = "Regular Italic";
paths = (
{
closed = 1;
nodes = (
"206 105 OFFCURVE",
"177 142 OFFCURVE",
"200 252 CURVE SMOOTH",
"283 644 LINE",
"148 644 LINE",
"63 242 LINE SMOOTH",
"29 83 OFFCURVE",
"131 -10 OFFCURVE",
"297 -10 CURVE SMOOTH",
"493 -10 OFFCURVE",
"602 73 OFFCURVE",
"638 242 CURVE SMOOTH",
"723 644 LINE",
"588 644 LINE",
"505 252 LINE SMOOTH",
"484 153 OFFCURVE",
"430 105 OFFCURVE",
"322 105 CURVE SMOOTH"
);
},
{
closed = 1;
nodes = (
"315 -181 LINE",
"336 -82 LINE",
"229 -82 LINE",
"208 -181 LINE"
);
}
);
width = 679;
}
);
leftKerningGroup = U;
note = Udotbelow;
rightKerningGroup = U;
unicode = 1EE4;
},
{
glyphname = Ugrave;
lastChange = "2015-10-24 11:20:14 +0000";
layers = (
{
layerId = "B67427C8-F911-4143-A2F2-7B953CC18A6E";
name = "Regular Italic";
paths = (
{
closed = 1;
nodes = (
"206 105 OFFCURVE",
"177 142 OFFCURVE",
"200 252 CURVE SMOOTH",
"283 644 LINE",
"148 644 LINE",
"63 242 LINE SMOOTH",
"29 83 OFFCURVE",
"131 -10 OFFCURVE",
"297 -10 CURVE SMOOTH",
"493 -10 OFFCURVE",
"602 73 OFFCURVE",
"638 242 CURVE SMOOTH",
"723 644 LINE",
"588 644 LINE",
"505 252 LINE SMOOTH",
"484 153 OFFCURVE",
"430 105 OFFCURVE",
"322 105 CURVE SMOOTH"
);
},
{
closed = 1;
nodes = (
"512 688 LINE",
"472 875 LINE",
"355 875 LINE",
"403 688 LINE"
);
}
);
width = 679;
}
);
leftKerningGroup = U;
note = Ugrave;
rightKerningGroup = U;
unicode = 00D9;
},
{
glyphname = Uhookabove;
lastChange = "2015-10-24 11:20:16 +0000";
layers = (
{
layerId = "B67427C8-F911-4143-A2F2-7B953CC18A6E";
name = "Regular Italic";
paths = (
{
closed = 1;
nodes = (
"206 105 OFFCURVE",
"177 142 OFFCURVE",
"200 252 CURVE SMOOTH",
"283 644 LINE",
"148 644 LINE",
"63 242 LINE SMOOTH",
"29 83 OFFCURVE",
"131 -10 OFFCURVE",
"297 -10 CURVE SMOOTH",
"493 -10 OFFCURVE",
"602 73 OFFCURVE",
"638 242 CURVE SMOOTH",
"723 644 LINE",
"588 644 LINE",
"505 252 LINE SMOOTH",
"484 153 OFFCURVE",
"430 105 OFFCURVE",
"322 105 CURVE SMOOTH"
);
},
{
closed = 1;
nodes = (
"625 886 OFFCURVE",
"587 924 OFFCURVE",
"502 924 CURVE SMOOTH",
"463 924 OFFCURVE",
"425 919 OFFCURVE",
"400 911 CURVE",
"385 844 LINE",
"403 851 OFFCURVE",
"431 855 OFFCURVE",
"450 855 CURVE SMOOTH",
"493 855 OFFCURVE",
"516 843 OFFCURVE",
"510 816 CURVE SMOOTH",
"504 786 OFFCURVE",
"484 772 OFFCURVE",
"410 768 CURVE",
"393 687 LINE",
"496 687 LINE",
"506 733 LINE",
"572 745 OFFCURVE",
"601 772 OFFCURVE",
"613 828 CURVE SMOOTH"
);
}
);
width = 679;
}
);
leftKerningGroup = U;
note = Uhookabove;
rightKerningGroup = U;
unicode = 1EE6;
},
{
glyphname = Uhorn;
lastChange = "2015-10-24 11:20:14 +0000";
layers = (
{
layerId = "B67427C8-F911-4143-A2F2-7B953CC18A6E";
name = "Regular Italic";
paths = (
{
closed = 1;
nodes = (
"206 105 OFFCURVE",
"177 142 OFFCURVE",
"200 252 CURVE SMOOTH",
"283 644 LINE",
"148 644 LINE",
"63 242 LINE SMOOTH",
"29 83 OFFCURVE",
"131 -10 OFFCURVE",
"297 -10 CURVE SMOOTH",
"493 -10 OFFCURVE",
"602 73 OFFCURVE",
"638 242 CURVE SMOOTH",
"690 490 LINE",
"825 492 OFFCURVE",
"894 539 OFFCURVE",
"926 688 CURVE",
"829 688 LINE",
"812 608 OFFCURVE",
"786 581 OFFCURVE",
"709 580 CURVE",
"723 644 LINE",
"588 644 LINE",
"505 252 LINE SMOOTH",
"484 153 OFFCURVE",
"430 105 OFFCURVE",
"322 105 CURVE SMOOTH"
);
}
);
width = 838;
}
);
leftKerningGroup = U;
note = Uhorn;
rightKerningGroup = U;
unicode = 01AF;
},
{
glyphname = Uhornacute;
lastChange = "2015-10-24 11:20:16 +0000";
layers = (
{
layerId = "B67427C8-F911-4143-A2F2-7B953CC18A6E";
name = "Regular Italic";
paths = (
{
closed = 1;
nodes = (
"206 105 OFFCURVE",
"177 142 OFFCURVE",
"200 252 CURVE SMOOTH",
"283 644 LINE",
"148 644 LINE",
"63 242 LINE SMOOTH",
"29 83 OFFCURVE",
"131 -10 OFFCURVE",
"297 -10 CURVE SMOOTH",
"493 -10 OFFCURVE",
"602 73 OFFCURVE",
"638 242 CURVE SMOOTH",
"690 490 LINE",
"825 492 OFFCURVE",
"894 539 OFFCURVE",
"926 688 CURVE",
"829 688 LINE",
"812 608 OFFCURVE",
"786 581 OFFCURVE",
"709 580 CURVE",
"723 644 LINE",
"588 644 LINE",
"505 252 LINE SMOOTH",
"484 153 OFFCURVE",
"430 105 OFFCURVE",
"322 105 CURVE SMOOTH"
);
},
{
closed = 1;
nodes = (
"507 688 LINE",
"635 875 LINE",
"518 875 LINE",
"398 688 LINE"
);
}
);
width = 838;
}
);
leftKerningGroup = U;
note = Uhornacute;
rightKerningGroup = U;
unicode = 1EE8;
},
{
glyphname = Uhorndotbelow;
lastChange = "2015-10-24 11:20:16 +0000";
layers = (
{
layerId = "B67427C8-F911-4143-A2F2-7B953CC18A6E";
name = "Regular Italic";
paths = (
{
closed = 1;
nodes = (
"206 105 OFFCURVE",
"177 142 OFFCURVE",
"200 252 CURVE SMOOTH",
"283 644 LINE",
"148 644 LINE",
"63 242 LINE SMOOTH",
"29 83 OFFCURVE",
"131 -10 OFFCURVE",
"297 -10 CURVE SMOOTH",
"493 -10 OFFCURVE",
"602 73 OFFCURVE",
"638 242 CURVE SMOOTH",
"690 490 LINE",
"825 492 OFFCURVE",
"894 539 OFFCURVE",
"926 688 CURVE",
"829 688 LINE",
"812 608 OFFCURVE",
"786 581 OFFCURVE",
"709 580 CURVE",
"723 644 LINE",
"588 644 LINE",
"505 252 LINE SMOOTH",
"484 153 OFFCURVE",
"430 105 OFFCURVE",
"322 105 CURVE SMOOTH"
);
},
{
closed = 1;
nodes = (
"314 -181 LINE",
"335 -82 LINE",
"228 -82 LINE",
"207 -181 LINE"
);
}
);
width = 838;
}
);
leftKerningGroup = U;
note = Uhorndotbelow;
rightKerningGroup = U;
unicode = 1EF0;
},
{
glyphname = Uhorngrave;
lastChange = "2015-10-24 11:20:14 +0000";
layers = (
{
layerId = "B67427C8-F911-4143-A2F2-7B953CC18A6E";
name = "Regular Italic";
paths = (
{
closed = 1;
nodes = (
"206 105 OFFCURVE",
"177 142 OFFCURVE",
"200 252 CURVE SMOOTH",
"283 644 LINE",
"148 644 LINE",
"63 242 LINE SMOOTH",
"29 83 OFFCURVE",
"131 -10 OFFCURVE",
"297 -10 CURVE SMOOTH",
"493 -10 OFFCURVE",
"602 73 OFFCURVE",
"638 242 CURVE SMOOTH",
"690 490 LINE",
"825 492 OFFCURVE",
"894 539 OFFCURVE",
"926 688 CURVE",
"829 688 LINE",
"812 608 OFFCURVE",
"786 581 OFFCURVE",
"709 580 CURVE",
"723 644 LINE",
"588 644 LINE",
"505 252 LINE SMOOTH",
"484 153 OFFCURVE",
"430 105 OFFCURVE",
"322 105 CURVE SMOOTH"
);
},
{
closed = 1;
nodes = (
"510 688 LINE",
"470 875 LINE",
"353 875 LINE",
"401 688 LINE"
);
}
);
width = 838;
}
);
leftKerningGroup = U;
note = Uhorngrave;
rightKerningGroup = U;
unicode = 1EEA;
},
{
glyphname = Uhornhookabove;
lastChange = "2015-10-24 11:20:16 +0000";
layers = (
{
layerId = "B67427C8-F911-4143-A2F2-7B953CC18A6E";
name = "Regular Italic";
paths = (
{
closed = 1;
nodes = (
"206 105 OFFCURVE",
"177 142 OFFCURVE",
"200 252 CURVE SMOOTH",
"283 644 LINE",
"148 644 LINE",
"63 242 LINE SMOOTH",
"29 83 OFFCURVE",
"131 -10 OFFCURVE",
"297 -10 CURVE SMOOTH",
"493 -10 OFFCURVE",
"602 73 OFFCURVE",
"638 242 CURVE SMOOTH",
"690 490 LINE",
"825 492 OFFCURVE",
"894 539 OFFCURVE",
"926 688 CURVE",
"829 688 LINE",
"812 608 OFFCURVE",
"786 581 OFFCURVE",
"709 580 CURVE",
"723 644 LINE",
"588 644 LINE",
"505 252 LINE SMOOTH",
"484 153 OFFCURVE",
"430 105 OFFCURVE",
"322 105 CURVE SMOOTH"
);
},
{
closed = 1;
nodes = (
"631 886 OFFCURVE",
"593 924 OFFCURVE",
"508 924 CURVE SMOOTH",
"469 924 OFFCURVE",
"431 919 OFFCURVE",
"406 911 CURVE",
"391 844 LINE",
"409 851 OFFCURVE",
"437 855 OFFCURVE",
"456 855 CURVE SMOOTH",
"499 855 OFFCURVE",
"522 843 OFFCURVE",
"516 816 CURVE SMOOTH",
"510 786 OFFCURVE",
"490 772 OFFCURVE",
"416 768 CURVE",
"399 687 LINE",
"502 687 LINE",
"512 733 LINE",
"578 745 OFFCURVE",
"607 772 OFFCURVE",
"619 828 CURVE SMOOTH"
);
}
);
width = 838;
}
);
leftKerningGroup = U;
note = Uhornhookabove;
rightKerningGroup = U;
unicode = 1EEC;
},
{
glyphname = Uhorntilde;
lastChange = "2015-10-24 11:20:16 +0000";
layers = (
{
layerId = "B67427C8-F911-4143-A2F2-7B953CC18A6E";
name = "Regular Italic";
paths = (
{
closed = 1;
nodes = (
"206 105 OFFCURVE",
"177 142 OFFCURVE",
"200 252 CURVE SMOOTH",
"283 644 LINE",
"148 644 LINE",
"63 242 LINE SMOOTH",
"29 83 OFFCURVE",
"131 -10 OFFCURVE",
"297 -10 CURVE SMOOTH",
"493 -10 OFFCURVE",
"602 73 OFFCURVE",
"638 242 CURVE SMOOTH",
"690 490 LINE",
"825 492 OFFCURVE",
"894 539 OFFCURVE",
"926 688 CURVE",
"829 688 LINE",
"812 608 OFFCURVE",
"786 581 OFFCURVE",
"709 580 CURVE",
"723 644 LINE",
"588 644 LINE",
"505 252 LINE SMOOTH",
"484 153 OFFCURVE",
"430 105 OFFCURVE",
"322 105 CURVE SMOOTH"
);
},
{
closed = 1;
nodes = (
"571 697 OFFCURVE",
"604 711 OFFCURVE",
"620 729 CURVE",
"641 825 LINE",
"619 801 OFFCURVE",
"588 787 OFFCURVE",
"550 787 CURVE SMOOTH",
"494 787 OFFCURVE",
"458 827 OFFCURVE",
"397 827 CURVE SMOOTH",
"362 827 OFFCURVE",
"326 814 OFFCURVE",
"304 796 CURVE",
"283 700 LINE",
"312 725 OFFCURVE",
"344 737 OFFCURVE",
"381 737 CURVE SMOOTH",
"430 737 OFFCURVE",
"475 697 OFFCURVE",
"534 697 CURVE SMOOTH"
);
}
);
width = 838;
}
);
leftKerningGroup = U;
note = Uhorntilde;
rightKerningGroup = U;
unicode = 1EEE;
},
{
glyphname = Uhungarumlaut;
lastChange = "2015-10-24 11:20:15 +0000";
layers = (
{
layerId = "B67427C8-F911-4143-A2F2-7B953CC18A6E";
name = "Regular Italic";
paths = (
{
closed = 1;
nodes = (
"206 105 OFFCURVE",
"177 142 OFFCURVE",
"200 252 CURVE SMOOTH",
"283 644 LINE",
"148 644 LINE",
"63 242 LINE SMOOTH",
"29 83 OFFCURVE",
"131 -10 OFFCURVE",
"297 -10 CURVE SMOOTH",
"493 -10 OFFCURVE",
"602 73 OFFCURVE",
"638 242 CURVE SMOOTH",
"723 644 LINE",
"588 644 LINE",
"505 252 LINE SMOOTH",
"484 153 OFFCURVE",
"430 105 OFFCURVE",
"322 105 CURVE SMOOTH"
);
},
{
closed = 1;
nodes = (
"363 687 LINE",
"492 863 LINE",
"373 863 LINE",
"256 687 LINE"
);
},
{
closed = 1;
nodes = (
"590 687 LINE",
"720 863 LINE",
"600 863 LINE",
"483 687 LINE"
);
}
);
width = 679;
}
);
leftKerningGroup = U;
note = Uhungarumlaut;
rightKerningGroup = U;
unicode = 0170;
},
{
glyphname = Umacron;
lastChange = "2015-10-24 11:20:14 +0000";
layers = (
{
layerId = "B67427C8-F911-4143-A2F2-7B953CC18A6E";
name = "Regular Italic";
paths = (
{
closed = 1;
nodes = (
"206 105 OFFCURVE",
"177 142 OFFCURVE",
"200 252 CURVE SMOOTH",
"283 644 LINE",
"148 644 LINE",
"63 242 LINE SMOOTH",
"29 83 OFFCURVE",
"131 -10 OFFCURVE",
"297 -10 CURVE SMOOTH",
"493 -10 OFFCURVE",
"602 73 OFFCURVE",
"638 242 CURVE SMOOTH",
"723 644 LINE",
"588 644 LINE",
"505 252 LINE SMOOTH",
"484 153 OFFCURVE",
"430 105 OFFCURVE",
"322 105 CURVE SMOOTH"
);
},
{
closed = 1;
nodes = (
"317 805 LINE",
"300 722 LINE",
"607 722 LINE",
"624 805 LINE"
);
}
);
width = 679;
}
);
leftKerningGroup = U;
note = Umacron;
rightKerningGroup = U;
unicode = 016A;
},
{
glyphname = Uogonek;
lastChange = "2015-10-24 11:20:14 +0000";
layers = (
{
layerId = "B67427C8-F911-4143-A2F2-7B953CC18A6E";
name = "Regular Italic";
paths = (
{
closed = 1;
nodes = (
"308 -67 OFFCURVE",
"340 -33 OFFCURVE",
"384 -4 CURVE",
"526 18 OFFCURVE",
"607 100 OFFCURVE",
"638 242 CURVE SMOOTH",
"723 644 LINE",
"588 644 LINE",
"505 252 LINE SMOOTH",
"484 153 OFFCURVE",
"430 105 OFFCURVE",
"322 105 CURVE SMOOTH",
"206 105 OFFCURVE",
"177 142 OFFCURVE",
"200 252 CURVE SMOOTH",
"283 644 LINE",
"148 644 LINE",
"63 242 LINE SMOOTH",
"30 90 OFFCURVE",
"122 -1 OFFCURVE",
"275 -9 CURVE",
"230 -41 OFFCURVE",
"200 -84 OFFCURVE",
"190 -129 CURVE SMOOTH",
"177 -191 OFFCURVE",
"225 -220 OFFCURVE",
"286 -220 CURVE SMOOTH",
"319 -220 OFFCURVE",
"353 -214 OFFCURVE",
"373 -206 CURVE",
"389 -130 LINE",
"375 -137 OFFCURVE",
"355 -141 OFFCURVE",
"339 -141 CURVE SMOOTH",
"312 -141 OFFCURVE",
"295 -132 OFFCURVE",
"301 -104 CURVE SMOOTH"
);
}
);
width = 679;
}
);
leftKerningGroup = U;
note = Uogonek;
rightKerningGroup = U;
unicode = 0172;
},
{
glyphname = Uring;
lastChange = "2015-10-24 11:20:15 +0000";
layers = (
{
layerId = "B67427C8-F911-4143-A2F2-7B953CC18A6E";
name = "Regular Italic";
paths = (
{
closed = 1;
nodes = (
"206 105 OFFCURVE",
"177 142 OFFCURVE",
"200 252 CURVE SMOOTH",
"283 644 LINE",
"148 644 LINE",
"63 242 LINE SMOOTH",
"29 83 OFFCURVE",
"131 -10 OFFCURVE",
"297 -10 CURVE SMOOTH",
"493 -10 OFFCURVE",
"602 73 OFFCURVE",
"638 242 CURVE SMOOTH",
"723 644 LINE",
"588 644 LINE",
"505 252 LINE SMOOTH",
"484 153 OFFCURVE",
"430 105 OFFCURVE",
"322 105 CURVE SMOOTH"
);
},
{
closed = 1;
nodes = (
"333 740 OFFCURVE",
"369 688 OFFCURVE",
"445 688 CURVE SMOOTH",
"528 688 OFFCURVE",
"581 740 OFFCURVE",
"595 807 CURVE SMOOTH",
"609 874 OFFCURVE",
"573 927 OFFCURVE",
"495 927 CURVE SMOOTH",
"416 927 OFFCURVE",
"360 874 OFFCURVE",
"347 807 CURVE SMOOTH"
);
},
{
closed = 1;
nodes = (
"419 839 OFFCURVE",
"443 864 OFFCURVE",
"482 864 CURVE SMOOTH",
"519 864 OFFCURVE",
"536 839 OFFCURVE",
"529 807 CURVE SMOOTH",
"522 775 OFFCURVE",
"500 750 OFFCURVE",
"458 750 CURVE SMOOTH",
"423 750 OFFCURVE",
"405 775 OFFCURVE",
"412 807 CURVE SMOOTH"
);
}
);
width = 679;
}
);
leftKerningGroup = U;
note = Uring;
rightKerningGroup = U;
unicode = 016E;
},
{
glyphname = Utilde;
lastChange = "2015-10-24 11:20:14 +0000";
layers = (
{
layerId = "B67427C8-F911-4143-A2F2-7B953CC18A6E";
name = "Regular Italic";
paths = (
{
closed = 1;
nodes = (
"206 105 OFFCURVE",
"177 142 OFFCURVE",
"200 252 CURVE SMOOTH",
"283 644 LINE",
"148 644 LINE",
"63 242 LINE SMOOTH",
"29 83 OFFCURVE",
"131 -10 OFFCURVE",
"297 -10 CURVE SMOOTH",
"493 -10 OFFCURVE",
"602 73 OFFCURVE",
"638 242 CURVE SMOOTH",
"723 644 LINE",
"588 644 LINE",
"505 252 LINE SMOOTH",
"484 153 OFFCURVE",
"430 105 OFFCURVE",
"322 105 CURVE SMOOTH"
);
},
{
closed = 1;
nodes = (
"571 700 OFFCURVE",
"604 714 OFFCURVE",
"620 732 CURVE",
"641 828 LINE",
"619 804 OFFCURVE",
"588 790 OFFCURVE",
"550 790 CURVE SMOOTH",
"494 790 OFFCURVE",
"458 830 OFFCURVE",
"397 830 CURVE SMOOTH",
"362 830 OFFCURVE",
"326 817 OFFCURVE",
"304 799 CURVE",
"283 703 LINE",
"312 728 OFFCURVE",
"344 740 OFFCURVE",
"381 740 CURVE SMOOTH",
"430 740 OFFCURVE",
"475 700 OFFCURVE",
"534 700 CURVE SMOOTH"
);
}
);
width = 679;
}
);
leftKerningGroup = U;
note = Utilde;
rightKerningGroup = U;
unicode = 0168;
},
{
glyphname = V;
lastChange = "2015-10-24 11:21:03 +0000";
layers = (
{
layerId = "B67427C8-F911-4143-A2F2-7B953CC18A6E";
name = "Regular Italic";
paths = (
{
closed = 1;
nodes = (
"344 151 LINE",
"270 644 LINE",
"133 644 LINE",
"243 0 LINE",
"391 0 LINE",
"772 644 LINE",
"627 644 LINE"
);
}
);
width = 713;
}
);
note = V;
unicode = 0056;
},
{
glyphname = W;
lastChange = "2015-10-24 11:23:49 +0000";
layers = (
{
layerId = "B67427C8-F911-4143-A2F2-7B953CC18A6E";
name = "Regular Italic";
paths = (
{
closed = 1;
nodes = (
"525 0 LINE",
"649 0 LINE",
"934 644 LINE",
"802 644 LINE",
"610 208 LINE",
"578 644 LINE",
"468 644 LINE",
"451 560 LINE",
"271 209 LINE",
"266 644 LINE",
"133 644 LINE",
"147 0 LINE",
"280 0 LINE",
"494 412 LINE"
);
}
);
width = 875;
}
);
leftKerningGroup = W;
note = W;
rightKerningGroup = W;
unicode = 0057;
},
{
glyphname = Wacute;
lastChange = "2015-10-24 11:20:16 +0000";
layers = (
{
layerId = "B67427C8-F911-4143-A2F2-7B953CC18A6E";
name = "Regular Italic";
paths = (
{
closed = 1;
nodes = (
"525 0 LINE",
"649 0 LINE",
"934 644 LINE",
"802 644 LINE",
"610 208 LINE",
"578 644 LINE",
"468 644 LINE",
"451 560 LINE",
"271 209 LINE",
"266 644 LINE",
"133 644 LINE",
"147 0 LINE",
"280 0 LINE",
"494 412 LINE"
);
},
{
closed = 1;
nodes = (
"591 688 LINE",
"719 875 LINE",
"602 875 LINE",
"482 688 LINE"
);
}
);
width = 875;
}
);
leftKerningGroup = W;
note = Wacute;
rightKerningGroup = W;
unicode = 1E82;
},
{
glyphname = Wcircumflex;
lastChange = "2015-10-24 11:20:15 +0000";
layers = (
{
layerId = "B67427C8-F911-4143-A2F2-7B953CC18A6E";
name = "Regular Italic";
paths = (
{
closed = 1;
nodes = (
"525 0 LINE",
"649 0 LINE",
"934 644 LINE",
"802 644 LINE",
"610 208 LINE",
"578 644 LINE",
"468 644 LINE",
"451 560 LINE",
"271 209 LINE",
"266 644 LINE",
"133 644 LINE",
"147 0 LINE",
"280 0 LINE",
"494 412 LINE"
);
},
{
closed = 1;
nodes = (
"629 862 LINE",
"543 862 LINE",
"372 688 LINE",
"482 688 LINE",
"575 788 LINE",
"628 688 LINE",
"727 688 LINE"
);
}
);
width = 875;
}
);
leftKerningGroup = W;
note = Wcircumflex;
rightKerningGroup = W;
unicode = 0174;
},
{
glyphname = Wdieresis;
lastChange = "2015-10-24 11:20:14 +0000";
layers = (
{
layerId = "B67427C8-F911-4143-A2F2-7B953CC18A6E";
name = "Regular Italic";
paths = (
{
closed = 1;
nodes = (
"525 0 LINE",
"649 0 LINE",
"934 644 LINE",
"802 644 LINE",
"610 208 LINE",
"578 644 LINE",
"468 644 LINE",
"451 560 LINE",
"271 209 LINE",
"266 644 LINE",
"133 644 LINE",
"147 0 LINE",
"280 0 LINE",
"494 412 LINE"
);
},
{
closed = 1;
nodes = (
"509 713 LINE",
"530 811 LINE",
"425 811 LINE",
"404 713 LINE"
);
},
{
closed = 1;
nodes = (
"705 713 LINE",
"726 811 LINE",
"620 811 LINE",
"599 713 LINE"
);
}
);
width = 875;
}
);
leftKerningGroup = W;
note = Wdieresis;
rightKerningGroup = W;
unicode = 1E84;
},
{
glyphname = Wgrave;
lastChange = "2015-10-24 11:20:14 +0000";
layers = (
{
layerId = "B67427C8-F911-4143-A2F2-7B953CC18A6E";
name = "Regular Italic";
paths = (
{
closed = 1;
nodes = (
"525 0 LINE",
"649 0 LINE",
"934 644 LINE",
"802 644 LINE",
"610 208 LINE",
"578 644 LINE",
"468 644 LINE",
"451 560 LINE",
"271 209 LINE",
"266 644 LINE",
"133 644 LINE",
"147 0 LINE",
"280 0 LINE",
"494 412 LINE"
);
},
{
closed = 1;
nodes = (
"592 688 LINE",
"552 875 LINE",
"435 875 LINE",
"483 688 LINE"
);
}
);
width = 875;
}
);
leftKerningGroup = W;
note = Wgrave;
rightKerningGroup = W;
unicode = 1E80;
},
{
glyphname = X;
lastChange = "2015-10-24 11:24:40 +0000";
layers = (
{
layerId = "B67427C8-F911-4143-A2F2-7B953CC18A6E";
name = "Regular Italic";
paths = (
{
closed = 1;
nodes = (
"625 0 LINE",
"460 323 LINE",
"755 644 LINE",
"596 644 LINE",
"402 429 LINE",
"298 644 LINE",
"139 644 LINE",
"298 323 LINE",
"-3 0 LINE",
"158 0 LINE",
"356 215 LINE",
"464 0 LINE"
);
}
);
width = 702;
}
);
note = X;
unicode = 0058;
},
{
glyphname = Y;
lastChange = "2015-10-24 11:39:01 +0000";
layers = (
{
layerId = "B67427C8-F911-4143-A2F2-7B953CC18A6E";
name = "Regular Italic";
paths = (
{
closed = 1;
nodes = (
"363 0 LINE",
"413 238 LINE",
"730 644 LINE",
"586 644 LINE",
"367 353 LINE",
"270 644 LINE",
"133 644 LINE",
"278 238 LINE",
"228 0 LINE"
);
}
);
width = 671;
}
);
leftKerningGroup = Y;
note = Y;
rightKerningGroup = Y;
unicode = 0059;
},
{
glyphname = Yacute;
lastChange = "2015-10-24 11:20:15 +0000";
layers = (
{
layerId = "B67427C8-F911-4143-A2F2-7B953CC18A6E";
name = "Regular Italic";
paths = (
{
closed = 1;
nodes = (
"363 0 LINE",
"413 238 LINE",
"730 644 LINE",
"586 644 LINE",
"367 353 LINE",
"270 644 LINE",
"133 644 LINE",
"278 238 LINE",
"228 0 LINE"
);
},
{
closed = 1;
nodes = (
"488 688 LINE",
"616 875 LINE",
"499 875 LINE",
"379 688 LINE"
);
}
);
width = 671;
}
);
leftKerningGroup = Y;
note = Yacute;
rightKerningGroup = Y;
unicode = 00DD;
},
{
glyphname = Ycircumflex;
lastChange = "2015-10-24 11:20:15 +0000";
layers = (
{
layerId = "B67427C8-F911-4143-A2F2-7B953CC18A6E";
name = "Regular Italic";
paths = (
{
closed = 1;
nodes = (
"363 0 LINE",
"413 238 LINE",
"730 644 LINE",
"586 644 LINE",
"367 353 LINE",
"270 644 LINE",
"133 644 LINE",
"278 238 LINE",
"228 0 LINE"
);
},
{
closed = 1;
nodes = (
"522 862 LINE",
"436 862 LINE",
"265 688 LINE",
"375 688 LINE",
"468 788 LINE",
"521 688 LINE",
"620 688 LINE"
);
}
);
width = 671;
}
);
leftKerningGroup = Y;
note = Ycircumflex;
rightKerningGroup = Y;
unicode = 0176;
},
{
glyphname = Ydieresis;
lastChange = "2015-10-24 11:20:16 +0000";
layers = (
{
layerId = "B67427C8-F911-4143-A2F2-7B953CC18A6E";
name = "Regular Italic";
paths = (
{
closed = 1;
nodes = (
"363 0 LINE",
"413 238 LINE",
"730 644 LINE",
"586 644 LINE",
"367 353 LINE",
"270 644 LINE",
"133 644 LINE",
"278 238 LINE",
"228 0 LINE"
);
},
{
closed = 1;
nodes = (
"402 713 LINE",
"423 811 LINE",
"318 811 LINE",
"297 713 LINE"
);
},
{
closed = 1;
nodes = (
"598 713 LINE",
"619 811 LINE",
"513 811 LINE",
"492 713 LINE"
);
}
);
width = 671;
}
);
leftKerningGroup = Y;
note = Ydieresis;
rightKerningGroup = Y;
unicode = 0178;
},
{
glyphname = Ydotaccent;
lastChange = "2015-10-24 11:20:16 +0000";
layers = (
{
layerId = "B67427C8-F911-4143-A2F2-7B953CC18A6E";
name = "Regular Italic";
paths = (
{
closed = 1;
nodes = (
"363 0 LINE",
"413 238 LINE",
"730 644 LINE",
"586 644 LINE",
"367 353 LINE",
"270 644 LINE",
"133 644 LINE",
"278 238 LINE",
"228 0 LINE"
);
},
{
closed = 1;
nodes = (
"499 713 LINE",
"520 811 LINE",
"415 811 LINE",
"394 713 LINE"
);
}
);
width = 671;
}
);
leftKerningGroup = Y;
note = Ydotaccent;
rightKerningGroup = Y;
unicode = 1E8E;
},
{
glyphname = Ydotbelow;
lastChange = "2015-10-24 11:20:15 +0000";
layers = (
{
layerId = "B67427C8-F911-4143-A2F2-7B953CC18A6E";
name = "Regular Italic";
paths = (
{
closed = 1;
nodes = (
"363 0 LINE",
"413 238 LINE",
"730 644 LINE",
"586 644 LINE",
"367 353 LINE",
"270 644 LINE",
"133 644 LINE",
"278 238 LINE",
"228 0 LINE"
);
},
{
closed = 1;
nodes = (
"313 -171 LINE",
"334 -72 LINE",
"227 -72 LINE",
"206 -171 LINE"
);
}
);
width = 671;
}
);
leftKerningGroup = Y;
note = Ydotbelow;
rightKerningGroup = Y;
unicode = 1EF4;
},
{
glyphname = Ygrave;
lastChange = "2015-10-24 11:20:16 +0000";
layers = (
{
layerId = "B67427C8-F911-4143-A2F2-7B953CC18A6E";
name = "Regular Italic";
paths = (
{
closed = 1;
nodes = (
"363 0 LINE",
"413 238 LINE",
"730 644 LINE",
"586 644 LINE",
"367 353 LINE",
"270 644 LINE",
"133 644 LINE",
"278 238 LINE",
"228 0 LINE"
);
},
{
closed = 1;
nodes = (
"506 688 LINE",
"466 875 LINE",
"349 875 LINE",
"397 688 LINE"
);
}
);
width = 671;
}
);
leftKerningGroup = Y;
note = Ygrave;
rightKerningGroup = Y;
unicode = 1EF2;
},
{
glyphname = Yhookabove;
lastChange = "2015-10-24 11:20:13 +0000";
layers = (
{
layerId = "B67427C8-F911-4143-A2F2-7B953CC18A6E";
name = "Regular Italic";
paths = (
{
closed = 1;
nodes = (
"363 0 LINE",
"413 238 LINE",
"730 644 LINE",
"586 644 LINE",
"367 353 LINE",
"270 644 LINE",
"133 644 LINE",
"278 238 LINE",
"228 0 LINE"
);
},
{
closed = 1;
nodes = (
"617 886 OFFCURVE",
"579 924 OFFCURVE",
"494 924 CURVE SMOOTH",
"455 924 OFFCURVE",
"417 919 OFFCURVE",
"392 911 CURVE",
"377 844 LINE",
"395 851 OFFCURVE",
"423 855 OFFCURVE",
"442 855 CURVE SMOOTH",
"485 855 OFFCURVE",
"508 843 OFFCURVE",
"502 816 CURVE SMOOTH",
"496 786 OFFCURVE",
"476 772 OFFCURVE",
"402 768 CURVE",
"385 687 LINE",
"488 687 LINE",
"498 733 LINE",
"564 745 OFFCURVE",
"593 772 OFFCURVE",
"605 828 CURVE SMOOTH"
);
}
);
width = 671;
}
);
leftKerningGroup = Y;
note = Yhookabove;
rightKerningGroup = Y;
unicode = 1EF6;
},
{
glyphname = Ytilde;
lastChange = "2015-10-24 11:20:16 +0000";
layers = (
{
layerId = "B67427C8-F911-4143-A2F2-7B953CC18A6E";
name = "Regular Italic";
paths = (
{
closed = 1;
nodes = (
"363 0 LINE",
"413 238 LINE",
"730 644 LINE",
"586 644 LINE",
"367 353 LINE",
"270 644 LINE",
"133 644 LINE",
"278 238 LINE",
"228 0 LINE"
);
},
{
closed = 1;
nodes = (
"567 700 OFFCURVE",
"600 714 OFFCURVE",
"616 732 CURVE",
"637 828 LINE",
"615 804 OFFCURVE",
"584 790 OFFCURVE",
"546 790 CURVE SMOOTH",
"490 790 OFFCURVE",
"454 830 OFFCURVE",
"393 830 CURVE SMOOTH",
"358 830 OFFCURVE",
"322 817 OFFCURVE",
"300 799 CURVE",
"279 703 LINE",
"308 728 OFFCURVE",
"340 740 OFFCURVE",
"377 740 CURVE SMOOTH",
"426 740 OFFCURVE",
"471 700 OFFCURVE",
"530 700 CURVE SMOOTH"
);
}
);
width = 671;
}
);
leftKerningGroup = Y;
note = Ytilde;
rightKerningGroup = Y;
unicode = 1EF8;
},
{
glyphname = Z;
lastChange = "2015-10-24 11:20:16 +0000";
layers = (
{
layerId = "B67427C8-F911-4143-A2F2-7B953CC18A6E";
name = "Regular Italic";
paths = (
{
closed = 1;
nodes = (
"502 0 LINE",
"524 104 LINE",
"198 104 LINE",
"616 562 LINE",
"633 644 LINE",
"149 644 LINE",
"126 532 LINE",
"434 532 LINE",
"11 70 LINE",
"-3 0 LINE"
);
}
);
width = 579;
}
);
leftKerningGroup = Z;
note = Z;
rightKerningGroup = Z;
unicode = 005A;
},
{
glyphname = Zacute;
lastChange = "2015-10-24 11:20:16 +0000";
layers = (
{
layerId = "B67427C8-F911-4143-A2F2-7B953CC18A6E";
name = "Regular Italic";
paths = (
{
closed = 1;
nodes = (
"502 0 LINE",
"524 104 LINE",
"198 104 LINE",
"616 562 LINE",
"633 644 LINE",
"149 644 LINE",
"126 532 LINE",
"434 532 LINE",
"11 70 LINE",
"-3 0 LINE"
);
},
{
closed = 1;
nodes = (
"456 688 LINE",
"584 875 LINE",
"467 875 LINE",
"347 688 LINE"
);
}
);
width = 579;
}
);
leftKerningGroup = Z;
note = Zacute;
rightKerningGroup = Z;
unicode = 0179;
},
{
glyphname = Zcaron;
lastChange = "2015-10-24 11:20:14 +0000";
layers = (
{
layerId = "B67427C8-F911-4143-A2F2-7B953CC18A6E";
name = "Regular Italic";
paths = (
{
closed = 1;
nodes = (
"502 0 LINE",
"524 104 LINE",
"198 104 LINE",
"616 562 LINE",
"633 644 LINE",
"149 644 LINE",
"126 532 LINE",
"434 532 LINE",
"11 70 LINE",
"-3 0 LINE"
);
},
{
closed = 1;
nodes = (
"634 862 LINE",
"525 862 LINE",
"429 762 LINE",
"379 862 LINE",
"279 862 LINE",
"376 688 LINE",
"462 688 LINE"
);
}
);
width = 579;
}
);
leftKerningGroup = Z;
note = Zcaron;
rightKerningGroup = Z;
unicode = 017D;
},
{
glyphname = Zdotaccent;
lastChange = "2015-10-24 11:20:14 +0000";
layers = (
{
layerId = "B67427C8-F911-4143-A2F2-7B953CC18A6E";
name = "Regular Italic";
paths = (
{
closed = 1;
nodes = (
"502 0 LINE",
"524 104 LINE",
"198 104 LINE",
"616 562 LINE",
"633 644 LINE",
"149 644 LINE",
"126 532 LINE",
"434 532 LINE",
"11 70 LINE",
"-3 0 LINE"
);
},
{
closed = 1;
nodes = (
"468 713 LINE",
"489 811 LINE",
"384 811 LINE",
"363 713 LINE"
);
}
);
width = 579;
}
);
leftKerningGroup = Z;
note = Zdotaccent;
rightKerningGroup = Z;
unicode = 017B;
},
{
glyphname = Zdotbelow;
lastChange = "2015-10-24 11:20:15 +0000";
layers = (
{
layerId = "B67427C8-F911-4143-A2F2-7B953CC18A6E";
name = "Regular Italic";
paths = (
{
closed = 1;
nodes = (
"502 0 LINE",
"524 104 LINE",
"198 104 LINE",
"616 562 LINE",
"633 644 LINE",
"149 644 LINE",
"126 532 LINE",
"434 532 LINE",
"11 70 LINE",
"-3 0 LINE"
);
},
{
closed = 1;
nodes = (
"285 -181 LINE",
"306 -82 LINE",
"199 -82 LINE",
"178 -181 LINE"
);
}
);
width = 579;
}
);
leftKerningGroup = Z;
note = Zdotbelow;
rightKerningGroup = Z;
unicode = 1E92;
},
{
glyphname = a;
lastChange = "2015-10-24 11:35:36 +0000";
layers = (
{
layerId = "B67427C8-F911-4143-A2F2-7B953CC18A6E";
name = "Regular Italic";
paths = (
{
closed = 1;
nodes = (
"7 51 OFFCURVE",
"90 -10 OFFCURVE",
"212 -10 CURVE SMOOTH",
"278 -10 OFFCURVE",
"329 8 OFFCURVE",
"378 44 CURVE",
"377 0 LINE",
"493 0 LINE",
"593 474 LINE",
"458 474 LINE",
"452 443 LINE",
"419 474 OFFCURVE",
"382 484 OFFCURVE",
"329 484 CURVE SMOOTH",
"194 484 OFFCURVE",
"78 383 OFFCURVE",
"42 214 CURVE SMOOTH"
);
},
{
closed = 1;
nodes = (
"382 385 OFFCURVE",
"409 371 OFFCURVE",
"430 343 CURVE",
"386 132 LINE",
"349 102 OFFCURVE",
"314 89 OFFCURVE",
"270 89 CURVE SMOOTH",
"184 89 OFFCURVE",
"158 116 OFFCURVE",
"179 214 CURVE SMOOTH",
"203 326 OFFCURVE",
"259 385 OFFCURVE",
"343 385 CURVE SMOOTH"
);
}
);
width = 591;
}
);
leftKerningGroup = a;
note = a;
rightKerningGroup = a;
unicode = 0061;
},
{
glyphname = aacute;
lastChange = "2015-10-24 11:20:15 +0000";
layers = (
{
layerId = "B67427C8-F911-4143-A2F2-7B953CC18A6E";
name = "Regular Italic";
paths = (
{
closed = 1;
nodes = (
"7 51 OFFCURVE",
"90 -10 OFFCURVE",
"212 -10 CURVE SMOOTH",
"278 -10 OFFCURVE",
"329 8 OFFCURVE",
"378 44 CURVE",
"377 0 LINE",
"493 0 LINE",
"593 474 LINE",
"458 474 LINE",
"452 443 LINE",
"419 474 OFFCURVE",
"382 484 OFFCURVE",
"329 484 CURVE SMOOTH",
"194 484 OFFCURVE",
"78 383 OFFCURVE",
"42 214 CURVE SMOOTH"
);
},
{
closed = 1;
nodes = (
"382 385 OFFCURVE",
"409 371 OFFCURVE",
"430 343 CURVE",
"386 132 LINE",
"349 102 OFFCURVE",
"314 89 OFFCURVE",
"270 89 CURVE SMOOTH",
"184 89 OFFCURVE",
"158 116 OFFCURVE",
"179 214 CURVE SMOOTH",
"203 326 OFFCURVE",
"259 385 OFFCURVE",
"343 385 CURVE SMOOTH"
);
},
{
closed = 1;
nodes = (
"409 522 LINE",
"537 709 LINE",
"420 709 LINE",
"300 522 LINE"
);
}
);
width = 554;
}
);
leftKerningGroup = a;
note = aacute;
rightKerningGroup = a;
unicode = 00E1;
},
{
glyphname = abreve;
lastChange = "2015-10-24 11:20:14 +0000";
layers = (
{
layerId = "B67427C8-F911-4143-A2F2-7B953CC18A6E";
name = "Regular Italic";
paths = (
{
closed = 1;
nodes = (
"7 51 OFFCURVE",
"90 -10 OFFCURVE",
"212 -10 CURVE SMOOTH",
"278 -10 OFFCURVE",
"329 8 OFFCURVE",
"378 44 CURVE",
"377 0 LINE",
"493 0 LINE",
"593 474 LINE",
"458 474 LINE",
"452 443 LINE",
"419 474 OFFCURVE",
"382 484 OFFCURVE",
"329 484 CURVE SMOOTH",
"194 484 OFFCURVE",
"78 383 OFFCURVE",
"42 214 CURVE SMOOTH"
);
},
{
closed = 1;
nodes = (
"382 385 OFFCURVE",
"409 371 OFFCURVE",
"430 343 CURVE",
"386 132 LINE",
"349 102 OFFCURVE",
"314 89 OFFCURVE",
"270 89 CURVE SMOOTH",
"184 89 OFFCURVE",
"158 116 OFFCURVE",
"179 214 CURVE SMOOTH",
"203 326 OFFCURVE",
"259 385 OFFCURVE",
"343 385 CURVE SMOOTH"
);
},
{
closed = 1;
nodes = (
"248 679 LINE",
"227 581 OFFCURVE",
"278 522 OFFCURVE",
"370 522 CURVE SMOOTH",
"478 522 OFFCURVE",
"542 581 OFFCURVE",
"563 679 CURVE",
"468 679 LINE",
"459 637 OFFCURVE",
"428 600 OFFCURVE",
"382 600 CURVE SMOOTH",
"329 600 OFFCURVE",
"323 637 OFFCURVE",
"332 679 CURVE"
);
}
);
width = 554;
}
);
leftKerningGroup = a;
note = abreve;
rightKerningGroup = a;
unicode = 0103;
},
{
glyphname = abreveacute;
lastChange = "2015-10-24 11:20:14 +0000";
layers = (
{
layerId = "B67427C8-F911-4143-A2F2-7B953CC18A6E";
name = "Regular Italic";
paths = (
{
closed = 1;
nodes = (
"7 51 OFFCURVE",
"90 -10 OFFCURVE",
"212 -10 CURVE SMOOTH",
"278 -10 OFFCURVE",
"329 8 OFFCURVE",
"378 44 CURVE",
"377 0 LINE",
"493 0 LINE",
"593 474 LINE",
"458 474 LINE",
"452 443 LINE",
"419 474 OFFCURVE",
"382 484 OFFCURVE",
"329 484 CURVE SMOOTH",
"194 484 OFFCURVE",
"78 383 OFFCURVE",
"42 214 CURVE SMOOTH"
);
},
{
closed = 1;
nodes = (
"382 385 OFFCURVE",
"409 371 OFFCURVE",
"430 343 CURVE",
"386 132 LINE",
"349 102 OFFCURVE",
"314 89 OFFCURVE",
"270 89 CURVE SMOOTH",
"184 89 OFFCURVE",
"158 116 OFFCURVE",
"179 214 CURVE SMOOTH",
"203 326 OFFCURVE",
"259 385 OFFCURVE",
"343 385 CURVE SMOOTH"
);
},
{
closed = 1;
nodes = (
"317 593 OFFCURVE",
"303 623 OFFCURVE",
"315 678 CURVE",
"238 678 LINE",
"214 567 OFFCURVE",
"282 522 OFFCURVE",
"370 522 CURVE SMOOTH",
"473 522 OFFCURVE",
"543 567 OFFCURVE",
"567 678 CURVE",
"484 678 LINE",
"472 623 OFFCURVE",
"439 593 OFFCURVE",
"382 593 CURVE SMOOTH"
);
},
{
closed = 1;
nodes = (
"437 652 LINE",
"540 793 LINE",
"438 793 LINE",
"342 652 LINE"
);
}
);
width = 554;
}
);
leftKerningGroup = a;
note = abreveacute;
rightKerningGroup = a;
unicode = 1EAF;
},
{
glyphname = abrevedotbelow;
lastChange = "2015-10-24 11:20:15 +0000";
layers = (
{
layerId = "B67427C8-F911-4143-A2F2-7B953CC18A6E";
name = "Regular Italic";
paths = (
{
closed = 1;
nodes = (
"7 51 OFFCURVE",
"90 -10 OFFCURVE",
"212 -10 CURVE SMOOTH",
"278 -10 OFFCURVE",
"329 8 OFFCURVE",
"378 44 CURVE",
"377 0 LINE",
"493 0 LINE",
"593 474 LINE",
"458 474 LINE",
"452 443 LINE",
"419 474 OFFCURVE",
"382 484 OFFCURVE",
"329 484 CURVE SMOOTH",
"194 484 OFFCURVE",
"78 383 OFFCURVE",
"42 214 CURVE SMOOTH"
);
},
{
closed = 1;
nodes = (
"382 385 OFFCURVE",
"409 371 OFFCURVE",
"430 343 CURVE",
"386 132 LINE",
"349 102 OFFCURVE",
"314 89 OFFCURVE",
"270 89 CURVE SMOOTH",
"184 89 OFFCURVE",
"158 116 OFFCURVE",
"179 214 CURVE SMOOTH",
"203 326 OFFCURVE",
"259 385 OFFCURVE",
"343 385 CURVE SMOOTH"
);
},
{
closed = 1;
nodes = (
"248 679 LINE",
"227 581 OFFCURVE",
"278 522 OFFCURVE",
"370 522 CURVE SMOOTH",
"478 522 OFFCURVE",
"542 581 OFFCURVE",
"563 679 CURVE",
"468 679 LINE",
"459 637 OFFCURVE",
"428 600 OFFCURVE",
"382 600 CURVE SMOOTH",
"329 600 OFFCURVE",
"323 637 OFFCURVE",
"332 679 CURVE"
);
},
{
closed = 1;
nodes = (
"277 -181 LINE",
"298 -82 LINE",
"191 -82 LINE",
"170 -181 LINE"
);
}
);
width = 554;
}
);
leftKerningGroup = a;
note = abrevedotbelow;
rightKerningGroup = a;
unicode = 1EB7;
},
{
glyphname = abrevegrave;
lastChange = "2015-10-24 11:20:16 +0000";
layers = (
{
layerId = "B67427C8-F911-4143-A2F2-7B953CC18A6E";
name = "Regular Italic";
paths = (
{
closed = 1;
nodes = (
"7 51 OFFCURVE",
"90 -10 OFFCURVE",
"212 -10 CURVE SMOOTH",
"278 -10 OFFCURVE",
"329 8 OFFCURVE",
"378 44 CURVE",
"377 0 LINE",
"493 0 LINE",
"593 474 LINE",
"458 474 LINE",
"452 443 LINE",
"419 474 OFFCURVE",
"382 484 OFFCURVE",
"329 484 CURVE SMOOTH",
"194 484 OFFCURVE",
"78 383 OFFCURVE",
"42 214 CURVE SMOOTH"
);
},
{
closed = 1;
nodes = (
"382 385 OFFCURVE",
"409 371 OFFCURVE",
"430 343 CURVE",
"386 132 LINE",
"349 102 OFFCURVE",
"314 89 OFFCURVE",
"270 89 CURVE SMOOTH",
"184 89 OFFCURVE",
"158 116 OFFCURVE",
"179 214 CURVE SMOOTH",
"203 326 OFFCURVE",
"259 385 OFFCURVE",
"343 385 CURVE SMOOTH"
);
},
{
closed = 1;
nodes = (
"447 652 LINE",
"411 793 LINE",
"309 793 LINE",
"352 652 LINE"
);
},
{
closed = 1;
nodes = (
"313 593 OFFCURVE",
"299 623 OFFCURVE",
"311 678 CURVE",
"234 678 LINE",
"210 567 OFFCURVE",
"278 522 OFFCURVE",
"366 522 CURVE SMOOTH",
"469 522 OFFCURVE",
"539 567 OFFCURVE",
"563 678 CURVE",
"480 678 LINE",
"468 623 OFFCURVE",
"435 593 OFFCURVE",
"378 593 CURVE SMOOTH"
);
}
);
width = 554;
}
);
leftKerningGroup = a;
note = abrevegrave;
rightKerningGroup = a;
unicode = 1EB1;
},
{
glyphname = abrevehookabove;
lastChange = "2015-10-24 11:20:13 +0000";
layers = (
{
layerId = "B67427C8-F911-4143-A2F2-7B953CC18A6E";
name = "Regular Italic";
paths = (
{
closed = 1;
nodes = (
"7 51 OFFCURVE",
"90 -10 OFFCURVE",
"212 -10 CURVE SMOOTH",
"278 -10 OFFCURVE",
"329 8 OFFCURVE",
"378 44 CURVE",
"377 0 LINE",
"493 0 LINE",
"593 474 LINE",
"458 474 LINE",
"452 443 LINE",
"419 474 OFFCURVE",
"382 484 OFFCURVE",
"329 484 CURVE SMOOTH",
"194 484 OFFCURVE",
"78 383 OFFCURVE",
"42 214 CURVE SMOOTH"
);
},
{
closed = 1;
nodes = (
"382 385 OFFCURVE",
"409 371 OFFCURVE",
"430 343 CURVE",
"386 132 LINE",
"349 102 OFFCURVE",
"314 89 OFFCURVE",
"270 89 CURVE SMOOTH",
"184 89 OFFCURVE",
"158 116 OFFCURVE",
"179 214 CURVE SMOOTH",
"203 326 OFFCURVE",
"259 385 OFFCURVE",
"343 385 CURVE SMOOTH"
);
},
{
closed = 1;
nodes = (
"553 819 OFFCURVE",
"522 851 OFFCURVE",
"455 851 CURVE SMOOTH",
"422 851 OFFCURVE",
"388 846 OFFCURVE",
"364 839 CURVE",
"352 782 LINE",
"369 789 OFFCURVE",
"389 794 OFFCURVE",
"409 794 CURVE SMOOTH",
"443 794 OFFCURVE",
"457 787 OFFCURVE",
"452 762 CURVE SMOOTH",
"447 738 OFFCURVE",
"426 724 OFFCURVE",
"364 721 CURVE",
"351 661 LINE",
"443 661 LINE",
"450 693 LINE",
"507 704 OFFCURVE",
"533 727 OFFCURVE",
"543 771 CURVE SMOOTH"
);
},
{
closed = 1;
nodes = (
"319 593 OFFCURVE",
"305 623 OFFCURVE",
"317 678 CURVE",
"240 678 LINE",
"216 567 OFFCURVE",
"284 522 OFFCURVE",
"372 522 CURVE SMOOTH",
"475 522 OFFCURVE",
"545 567 OFFCURVE",
"569 678 CURVE",
"486 678 LINE",
"474 623 OFFCURVE",
"441 593 OFFCURVE",
"384 593 CURVE SMOOTH"
);
}
);
width = 554;
}
);
leftKerningGroup = a;
note = abrevehookabove;
rightKerningGroup = a;
unicode = 1EB3;
},
{
glyphname = abrevetilde;
lastChange = "2015-10-24 11:20:14 +0000";
layers = (
{
layerId = "B67427C8-F911-4143-A2F2-7B953CC18A6E";
name = "Regular Italic";
paths = (
{
closed = 1;
nodes = (
"7 51 OFFCURVE",
"90 -10 OFFCURVE",
"212 -10 CURVE SMOOTH",
"278 -10 OFFCURVE",
"329 8 OFFCURVE",
"378 44 CURVE",
"377 0 LINE",
"493 0 LINE",
"593 474 LINE",
"458 474 LINE",
"452 443 LINE",
"419 474 OFFCURVE",
"382 484 OFFCURVE",
"329 484 CURVE SMOOTH",
"194 484 OFFCURVE",
"78 383 OFFCURVE",
"42 214 CURVE SMOOTH"
);
},
{
closed = 1;
nodes = (
"382 385 OFFCURVE",
"409 371 OFFCURVE",
"430 343 CURVE",
"386 132 LINE",
"349 102 OFFCURVE",
"314 89 OFFCURVE",
"270 89 CURVE SMOOTH",
"184 89 OFFCURVE",
"158 116 OFFCURVE",
"179 214 CURVE SMOOTH",
"203 326 OFFCURVE",
"259 385 OFFCURVE",
"343 385 CURVE SMOOTH"
);
},
{
closed = 1;
nodes = (
"538 699 OFFCURVE",
"571 713 OFFCURVE",
"588 731 CURVE",
"605 817 LINE",
"584 793 OFFCURVE",
"553 779 OFFCURVE",
"515 779 CURVE SMOOTH",
"459 779 OFFCURVE",
"424 819 OFFCURVE",
"363 819 CURVE SMOOTH",
"328 819 OFFCURVE",
"291 806 OFFCURVE",
"269 788 CURVE",
"251 702 LINE",
"279 727 OFFCURVE",
"312 739 OFFCURVE",
"349 739 CURVE SMOOTH",
"398 739 OFFCURVE",
"442 699 OFFCURVE",
"501 699 CURVE SMOOTH"
);
},
{
closed = 1;
nodes = (
"325 593 OFFCURVE",
"311 623 OFFCURVE",
"323 678 CURVE",
"246 678 LINE",
"222 567 OFFCURVE",
"290 522 OFFCURVE",
"378 522 CURVE SMOOTH",
"481 522 OFFCURVE",
"551 567 OFFCURVE",
"575 678 CURVE",
"492 678 LINE",
"480 623 OFFCURVE",
"447 593 OFFCURVE",
"390 593 CURVE SMOOTH"
);
}
);
width = 554;
}
);
leftKerningGroup = a;
note = abrevetilde;
rightKerningGroup = a;
unicode = 1EB5;
},
{
glyphname = acaron;
lastChange = "2015-10-24 11:20:14 +0000";
layers = (
{
layerId = "B67427C8-F911-4143-A2F2-7B953CC18A6E";
name = "Regular Italic";
paths = (
{
closed = 1;
nodes = (
"7 51 OFFCURVE",
"90 -10 OFFCURVE",
"212 -10 CURVE SMOOTH",
"278 -10 OFFCURVE",
"329 8 OFFCURVE",
"378 44 CURVE",
"377 0 LINE",
"493 0 LINE",
"593 474 LINE",
"458 474 LINE",
"452 443 LINE",
"419 474 OFFCURVE",
"382 484 OFFCURVE",
"329 484 CURVE SMOOTH",
"194 484 OFFCURVE",
"78 383 OFFCURVE",
"42 214 CURVE SMOOTH"
);
},
{
closed = 1;
nodes = (
"382 385 OFFCURVE",
"409 371 OFFCURVE",
"430 343 CURVE",
"386 132 LINE",
"349 102 OFFCURVE",
"314 89 OFFCURVE",
"270 89 CURVE SMOOTH",
"184 89 OFFCURVE",
"158 116 OFFCURVE",
"179 214 CURVE SMOOTH",
"203 326 OFFCURVE",
"259 385 OFFCURVE",
"343 385 CURVE SMOOTH"
);
},
{
closed = 1;
nodes = (
"572 696 LINE",
"463 696 LINE",
"367 596 LINE",
"317 696 LINE",
"217 696 LINE",
"314 522 LINE",
"400 522 LINE"
);
}
);
width = 554;
}
);
leftKerningGroup = a;
note = acaron;
rightKerningGroup = a;
unicode = 01CE;
},
{
glyphname = acircumflex;
lastChange = "2015-10-24 11:20:15 +0000";
layers = (
{
layerId = "B67427C8-F911-4143-A2F2-7B953CC18A6E";
name = "Regular Italic";
paths = (
{
closed = 1;
nodes = (
"15 51 OFFCURVE",
"98 -10 OFFCURVE",
"220 -10 CURVE SMOOTH",
"286 -10 OFFCURVE",
"337 8 OFFCURVE",
"386 44 CURVE",
"385 0 LINE",
"501 0 LINE",
"601 474 LINE",
"466 474 LINE",
"460 443 LINE",
"427 474 OFFCURVE",
"390 484 OFFCURVE",
"337 484 CURVE SMOOTH",
"202 484 OFFCURVE",
"86 383 OFFCURVE",
"50 214 CURVE SMOOTH"
);
},
{
closed = 1;
nodes = (
"390 385 OFFCURVE",
"417 371 OFFCURVE",
"438 343 CURVE",
"394 132 LINE",
"357 102 OFFCURVE",
"322 89 OFFCURVE",
"278 89 CURVE SMOOTH",
"192 89 OFFCURVE",
"166 116 OFFCURVE",
"187 214 CURVE SMOOTH",
"211 326 OFFCURVE",
"267 385 OFFCURVE",
"351 385 CURVE SMOOTH"
);
},
{
closed = 1;
nodes = (
"447 696 LINE",
"361 696 LINE",
"190 522 LINE",
"300 522 LINE",
"393 622 LINE",
"446 522 LINE",
"545 522 LINE"
);
}
);
width = 562;
}
);
leftKerningGroup = a;
note = acircumflex;
rightKerningGroup = a;
unicode = 00E2;
},
{
glyphname = acircumflexacute;
lastChange = "2015-10-24 11:20:16 +0000";
layers = (
{
layerId = "B67427C8-F911-4143-A2F2-7B953CC18A6E";
name = "Regular Italic";
paths = (
{
closed = 1;
nodes = (
"7 51 OFFCURVE",
"90 -10 OFFCURVE",
"212 -10 CURVE SMOOTH",
"278 -10 OFFCURVE",
"329 8 OFFCURVE",
"378 44 CURVE",
"377 0 LINE",
"493 0 LINE",
"593 474 LINE",
"458 474 LINE",
"452 443 LINE",
"419 474 OFFCURVE",
"382 484 OFFCURVE",
"329 484 CURVE SMOOTH",
"194 484 OFFCURVE",
"78 383 OFFCURVE",
"42 214 CURVE SMOOTH"
);
},
{
closed = 1;
nodes = (
"382 385 OFFCURVE",
"409 371 OFFCURVE",
"430 343 CURVE",
"386 132 LINE",
"349 102 OFFCURVE",
"314 89 OFFCURVE",
"270 89 CURVE SMOOTH",
"184 89 OFFCURVE",
"158 116 OFFCURVE",
"179 214 CURVE SMOOTH",
"203 326 OFFCURVE",
"259 385 OFFCURVE",
"343 385 CURVE SMOOTH"
);
},
{
closed = 1;
nodes = (
"446 656 LINE",
"343 656 LINE",
"189 521 LINE",
"305 521 LINE",
"389 602 LINE",
"440 521 LINE",
"544 521 LINE"
);
},
{
closed = 1;
nodes = (
"587 638 LINE",
"690 779 LINE",
"588 779 LINE",
"493 638 LINE"
);
}
);
width = 554;
}
);
leftKerningGroup = a;
note = acircumflexacute;
rightKerningGroup = a;
unicode = 1EA5;
},
{
glyphname = acircumflexdotbelow;
lastChange = "2015-10-24 11:20:14 +0000";
layers = (
{
layerId = "B67427C8-F911-4143-A2F2-7B953CC18A6E";
name = "Regular Italic";
paths = (
{
closed = 1;
nodes = (
"7 51 OFFCURVE",
"90 -10 OFFCURVE",
"212 -10 CURVE SMOOTH",
"278 -10 OFFCURVE",
"329 8 OFFCURVE",
"378 44 CURVE",
"377 0 LINE",
"493 0 LINE",
"593 474 LINE",
"458 474 LINE",
"452 443 LINE",
"419 474 OFFCURVE",
"382 484 OFFCURVE",
"329 484 CURVE SMOOTH",
"194 484 OFFCURVE",
"78 383 OFFCURVE",
"42 214 CURVE SMOOTH"
);
},
{
closed = 1;
nodes = (
"382 385 OFFCURVE",
"409 371 OFFCURVE",
"430 343 CURVE",
"386 132 LINE",
"349 102 OFFCURVE",
"314 89 OFFCURVE",
"270 89 CURVE SMOOTH",
"184 89 OFFCURVE",
"158 116 OFFCURVE",
"179 214 CURVE SMOOTH",
"203 326 OFFCURVE",
"259 385 OFFCURVE",
"343 385 CURVE SMOOTH"
);
},
{
closed = 1;
nodes = (
"442 696 LINE",
"356 696 LINE",
"185 522 LINE",
"295 522 LINE",
"388 622 LINE",
"441 522 LINE",
"540 522 LINE"
);
},
{
closed = 1;
nodes = (
"268 -181 LINE",
"289 -82 LINE",
"182 -82 LINE",
"161 -181 LINE"
);
}
);
width = 554;
}
);
leftKerningGroup = a;
note = acircumflexdotbelow;
rightKerningGroup = a;
unicode = 1EAD;
},
{
glyphname = acircumflexgrave;
lastChange = "2015-10-24 11:20:14 +0000";
layers = (
{
layerId = "B67427C8-F911-4143-A2F2-7B953CC18A6E";
name = "Regular Italic";
paths = (
{
closed = 1;
nodes = (
"7 51 OFFCURVE",
"90 -10 OFFCURVE",
"212 -10 CURVE SMOOTH",
"278 -10 OFFCURVE",
"329 8 OFFCURVE",
"378 44 CURVE",
"377 0 LINE",
"493 0 LINE",
"593 474 LINE",
"458 474 LINE",
"452 443 LINE",
"419 474 OFFCURVE",
"382 484 OFFCURVE",
"329 484 CURVE SMOOTH",
"194 484 OFFCURVE",
"78 383 OFFCURVE",
"42 214 CURVE SMOOTH"
);
},
{
closed = 1;
nodes = (
"382 385 OFFCURVE",
"409 371 OFFCURVE",
"430 343 CURVE",
"386 132 LINE",
"349 102 OFFCURVE",
"314 89 OFFCURVE",
"270 89 CURVE SMOOTH",
"184 89 OFFCURVE",
"158 116 OFFCURVE",
"179 214 CURVE SMOOTH",
"203 326 OFFCURVE",
"259 385 OFFCURVE",
"343 385 CURVE SMOOTH"
);
},
{
closed = 1;
nodes = (
"283 638 LINE",
"247 779 LINE",
"145 779 LINE",
"188 638 LINE"
);
},
{
closed = 1;
nodes = (
"439 656 LINE",
"336 656 LINE",
"182 521 LINE",
"298 521 LINE",
"382 602 LINE",
"433 521 LINE",
"537 521 LINE"
);
}
);
width = 554;
}
);
leftKerningGroup = a;
note = acircumflexgrave;
rightKerningGroup = a;
unicode = 1EA7;
},
{
glyphname = acircumflexhookabove;
lastChange = "2015-10-24 11:20:16 +0000";
layers = (
{
layerId = "B67427C8-F911-4143-A2F2-7B953CC18A6E";
name = "Regular Italic";
paths = (
{
closed = 1;
nodes = (
"7 51 OFFCURVE",
"90 -10 OFFCURVE",
"212 -10 CURVE SMOOTH",
"278 -10 OFFCURVE",
"329 8 OFFCURVE",
"378 44 CURVE",
"377 0 LINE",
"493 0 LINE",
"593 474 LINE",
"458 474 LINE",
"452 443 LINE",
"419 474 OFFCURVE",
"382 484 OFFCURVE",
"329 484 CURVE SMOOTH",
"194 484 OFFCURVE",
"78 383 OFFCURVE",
"42 214 CURVE SMOOTH"
);
},
{
closed = 1;
nodes = (
"382 385 OFFCURVE",
"409 371 OFFCURVE",
"430 343 CURVE",
"386 132 LINE",
"349 102 OFFCURVE",
"314 89 OFFCURVE",
"270 89 CURVE SMOOTH",
"184 89 OFFCURVE",
"158 116 OFFCURVE",
"179 214 CURVE SMOOTH",
"203 326 OFFCURVE",
"259 385 OFFCURVE",
"343 385 CURVE SMOOTH"
);
},
{
closed = 1;
nodes = (
"691 777 OFFCURVE",
"658 810 OFFCURVE",
"588 810 CURVE SMOOTH",
"551 810 OFFCURVE",
"526 805 OFFCURVE",
"504 798 CURVE",
"490 736 LINE",
"507 743 OFFCURVE",
"526 748 OFFCURVE",
"546 748 CURVE SMOOTH",
"576 748 OFFCURVE",
"589 741 OFFCURVE",
"585 721 CURVE SMOOTH",
"581 699 OFFCURVE",
"565 689 OFFCURVE",
"504 686 CURVE",
"489 616 LINE",
"581 616 LINE",
"588 650 LINE",
"643 658 OFFCURVE",
"672 685 OFFCURVE",
"681 729 CURVE SMOOTH"
);
},
{
closed = 1;
nodes = (
"438 656 LINE",
"335 656 LINE",
"181 521 LINE",
"297 521 LINE",
"381 602 LINE",
"432 521 LINE",
"536 521 LINE"
);
}
);
width = 561;
}
);
leftKerningGroup = a;
note = acircumflexhookabove;
rightKerningGroup = a;
unicode = 1EA9;
},
{
glyphname = acircumflextilde;
lastChange = "2015-10-24 11:20:15 +0000";
layers = (
{
layerId = "B67427C8-F911-4143-A2F2-7B953CC18A6E";
name = "Regular Italic";
paths = (
{
closed = 1;
nodes = (
"7 51 OFFCURVE",
"90 -10 OFFCURVE",
"212 -10 CURVE SMOOTH",
"278 -10 OFFCURVE",
"329 8 OFFCURVE",
"378 44 CURVE",
"377 0 LINE",
"493 0 LINE",
"593 474 LINE",
"458 474 LINE",
"452 443 LINE",
"419 474 OFFCURVE",
"382 484 OFFCURVE",
"329 484 CURVE SMOOTH",
"194 484 OFFCURVE",
"78 383 OFFCURVE",
"42 214 CURVE SMOOTH"
);
},
{
closed = 1;
nodes = (
"382 385 OFFCURVE",
"409 371 OFFCURVE",
"430 343 CURVE",
"386 132 LINE",
"349 102 OFFCURVE",
"314 89 OFFCURVE",
"270 89 CURVE SMOOTH",
"184 89 OFFCURVE",
"158 116 OFFCURVE",
"179 214 CURVE SMOOTH",
"203 326 OFFCURVE",
"259 385 OFFCURVE",
"343 385 CURVE SMOOTH"
);
},
{
closed = 1;
nodes = (
"524 671 OFFCURVE",
"556 685 OFFCURVE",
"572 703 CURVE",
"591 789 LINE",
"569 765 OFFCURVE",
"539 751 OFFCURVE",
"501 751 CURVE SMOOTH",
"445 751 OFFCURVE",
"409 791 OFFCURVE",
"348 791 CURVE SMOOTH",
"313 791 OFFCURVE",
"276 778 OFFCURVE",
"255 760 CURVE",
"236 674 LINE",
"265 699 OFFCURVE",
"297 711 OFFCURVE",
"334 711 CURVE SMOOTH",
"383 711 OFFCURVE",
"428 671 OFFCURVE",
"487 671 CURVE SMOOTH"
);
},
{
closed = 1;
nodes = (
"440 656 LINE",
"337 656 LINE",
"183 521 LINE",
"299 521 LINE",
"383 602 LINE",
"434 521 LINE",
"538 521 LINE"
);
}
);
width = 554;
}
);
leftKerningGroup = a;
note = acircumflextilde;
rightKerningGroup = a;
unicode = 1EAB;
},
{
glyphname = adieresis;
lastChange = "2015-10-24 11:20:16 +0000";
layers = (
{
layerId = "B67427C8-F911-4143-A2F2-7B953CC18A6E";
name = "Regular Italic";
paths = (
{
closed = 1;
nodes = (
"7 51 OFFCURVE",
"90 -10 OFFCURVE",
"212 -10 CURVE SMOOTH",
"278 -10 OFFCURVE",
"329 8 OFFCURVE",
"378 44 CURVE",
"377 0 LINE",
"493 0 LINE",
"593 474 LINE",
"458 474 LINE",
"452 443 LINE",
"419 474 OFFCURVE",
"382 484 OFFCURVE",
"329 484 CURVE SMOOTH",
"194 484 OFFCURVE",
"78 383 OFFCURVE",
"42 214 CURVE SMOOTH"
);
},
{
closed = 1;
nodes = (
"382 385 OFFCURVE",
"409 371 OFFCURVE",
"430 343 CURVE",
"386 132 LINE",
"349 102 OFFCURVE",
"314 89 OFFCURVE",
"270 89 CURVE SMOOTH",
"184 89 OFFCURVE",
"158 116 OFFCURVE",
"179 214 CURVE SMOOTH",
"203 326 OFFCURVE",
"259 385 OFFCURVE",
"343 385 CURVE SMOOTH"
);
},
{
closed = 1;
nodes = (
"327 547 LINE",
"348 645 LINE",
"243 645 LINE",
"222 547 LINE"
);
},
{
closed = 1;
nodes = (
"523 547 LINE",
"544 645 LINE",
"438 645 LINE",
"417 547 LINE"
);
}
);
width = 554;
}
);
leftKerningGroup = a;
note = adieresis;
rightKerningGroup = a;
unicode = 00E4;
},
{
glyphname = adotbelow;
lastChange = "2015-10-24 11:20:16 +0000";
layers = (
{
layerId = "B67427C8-F911-4143-A2F2-7B953CC18A6E";
name = "Regular Italic";
paths = (
{
closed = 1;
nodes = (
"7 51 OFFCURVE",
"90 -10 OFFCURVE",
"212 -10 CURVE SMOOTH",
"278 -10 OFFCURVE",
"329 8 OFFCURVE",
"378 44 CURVE",
"377 0 LINE",
"493 0 LINE",
"593 474 LINE",
"458 474 LINE",
"452 443 LINE",
"419 474 OFFCURVE",
"382 484 OFFCURVE",
"329 484 CURVE SMOOTH",
"194 484 OFFCURVE",
"78 383 OFFCURVE",
"42 214 CURVE SMOOTH"
);
},
{
closed = 1;
nodes = (
"382 385 OFFCURVE",
"409 371 OFFCURVE",
"430 343 CURVE",
"386 132 LINE",
"349 102 OFFCURVE",
"314 89 OFFCURVE",
"270 89 CURVE SMOOTH",
"184 89 OFFCURVE",
"158 116 OFFCURVE",
"179 214 CURVE SMOOTH",
"203 326 OFFCURVE",
"259 385 OFFCURVE",
"343 385 CURVE SMOOTH"
);
},
{
closed = 1;
nodes = (
"274 -181 LINE",
"295 -82 LINE",
"188 -82 LINE",
"167 -181 LINE"
);
}
);
width = 554;
}
);
leftKerningGroup = a;
note = adotbelow;
rightKerningGroup = a;
unicode = 1EA1;
},
{
glyphname = agrave;
lastChange = "2015-10-24 11:20:16 +0000";
layers = (
{
layerId = "B67427C8-F911-4143-A2F2-7B953CC18A6E";
name = "Regular Italic";
paths = (
{
closed = 1;
nodes = (
"7 51 OFFCURVE",
"90 -10 OFFCURVE",
"212 -10 CURVE SMOOTH",
"278 -10 OFFCURVE",
"329 8 OFFCURVE",
"378 44 CURVE",
"377 0 LINE",
"493 0 LINE",
"593 474 LINE",
"458 474 LINE",
"452 443 LINE",
"419 474 OFFCURVE",
"382 484 OFFCURVE",
"329 484 CURVE SMOOTH",
"194 484 OFFCURVE",
"78 383 OFFCURVE",
"42 214 CURVE SMOOTH"
);
},
{
closed = 1;
nodes = (
"382 385 OFFCURVE",
"409 371 OFFCURVE",
"430 343 CURVE",
"386 132 LINE",
"349 102 OFFCURVE",
"314 89 OFFCURVE",
"270 89 CURVE SMOOTH",
"184 89 OFFCURVE",
"158 116 OFFCURVE",
"179 214 CURVE SMOOTH",
"203 326 OFFCURVE",
"259 385 OFFCURVE",
"343 385 CURVE SMOOTH"
);
},
{
closed = 1;
nodes = (
"422 522 LINE",
"382 709 LINE",
"265 709 LINE",
"313 522 LINE"
);
}
);
width = 554;
}
);
leftKerningGroup = a;
note = agrave;
rightKerningGroup = a;
unicode = 00E0;
},
{
glyphname = ahookabove;
lastChange = "2015-10-24 11:20:13 +0000";
layers = (
{
layerId = "B67427C8-F911-4143-A2F2-7B953CC18A6E";
name = "Regular Italic";
paths = (
{
closed = 1;
nodes = (
"7 51 OFFCURVE",
"90 -10 OFFCURVE",
"212 -10 CURVE SMOOTH",
"278 -10 OFFCURVE",
"329 8 OFFCURVE",
"378 44 CURVE",
"377 0 LINE",
"493 0 LINE",
"593 474 LINE",
"458 474 LINE",
"452 443 LINE",
"419 474 OFFCURVE",
"382 484 OFFCURVE",
"329 484 CURVE SMOOTH",
"194 484 OFFCURVE",
"78 383 OFFCURVE",
"42 214 CURVE SMOOTH"
);
},
{
closed = 1;
nodes = (
"382 385 OFFCURVE",
"409 371 OFFCURVE",
"430 343 CURVE",
"386 132 LINE",
"349 102 OFFCURVE",
"314 89 OFFCURVE",
"270 89 CURVE SMOOTH",
"184 89 OFFCURVE",
"158 116 OFFCURVE",
"179 214 CURVE SMOOTH",
"203 326 OFFCURVE",
"259 385 OFFCURVE",
"343 385 CURVE SMOOTH"
);
},
{
closed = 1;
nodes = (
"533 720 OFFCURVE",
"495 758 OFFCURVE",
"410 758 CURVE SMOOTH",
"371 758 OFFCURVE",
"333 753 OFFCURVE",
"308 745 CURVE",
"293 678 LINE",
"311 685 OFFCURVE",
"339 689 OFFCURVE",
"358 689 CURVE SMOOTH",
"401 689 OFFCURVE",
"424 677 OFFCURVE",
"418 650 CURVE SMOOTH",
"412 620 OFFCURVE",
"392 606 OFFCURVE",
"318 602 CURVE",
"301 521 LINE",
"404 521 LINE",
"414 567 LINE",
"480 579 OFFCURVE",
"509 606 OFFCURVE",
"521 662 CURVE SMOOTH"
);
}
);
width = 554;
}
);
leftKerningGroup = a;
note = ahookabove;
rightKerningGroup = a;
unicode = 1EA3;
},
{
glyphname = "alpha-latin";
lastChange = "2015-10-24 11:20:15 +0000";
layers = (
{
layerId = "B67427C8-F911-4143-A2F2-7B953CC18A6E";
name = "Regular Italic";
paths = (
{
closed = 1;
nodes = (
"7 51 OFFCURVE",
"90 -10 OFFCURVE",
"212 -10 CURVE SMOOTH",
"278 -10 OFFCURVE",
"329 8 OFFCURVE",
"378 44 CURVE",
"377 0 LINE",
"493 0 LINE",
"593 474 LINE",
"458 474 LINE",
"452 443 LINE",
"419 474 OFFCURVE",
"382 484 OFFCURVE",
"329 484 CURVE SMOOTH",
"194 484 OFFCURVE",
"78 383 OFFCURVE",
"42 214 CURVE SMOOTH"
);
},
{
closed = 1;
nodes = (
"382 385 OFFCURVE",
"409 371 OFFCURVE",
"430 343 CURVE",
"386 132 LINE",
"349 102 OFFCURVE",
"314 89 OFFCURVE",
"270 89 CURVE SMOOTH",
"184 89 OFFCURVE",
"158 116 OFFCURVE",
"179 214 CURVE SMOOTH",
"203 326 OFFCURVE",
"259 385 OFFCURVE",
"343 385 CURVE SMOOTH"
);
}
);
width = 591;
}
);
leftKerningGroup = a;
note = ascript;
rightKerningGroup = a;
unicode = 0251;
},
{
glyphname = amacron;
lastChange = "2015-10-24 11:20:13 +0000";
layers = (
{
layerId = "B67427C8-F911-4143-A2F2-7B953CC18A6E";
name = "Regular Italic";
paths = (
{
closed = 1;
nodes = (
"7 51 OFFCURVE",
"90 -10 OFFCURVE",
"212 -10 CURVE SMOOTH",
"278 -10 OFFCURVE",
"329 8 OFFCURVE",
"378 44 CURVE",
"377 0 LINE",
"493 0 LINE",
"593 474 LINE",
"458 474 LINE",
"452 443 LINE",
"419 474 OFFCURVE",
"382 484 OFFCURVE",
"329 484 CURVE SMOOTH",
"194 484 OFFCURVE",
"78 383 OFFCURVE",
"42 214 CURVE SMOOTH"
);
},
{
closed = 1;
nodes = (
"382 385 OFFCURVE",
"409 371 OFFCURVE",
"430 343 CURVE",
"386 132 LINE",
"349 102 OFFCURVE",
"314 89 OFFCURVE",
"270 89 CURVE SMOOTH",
"184 89 OFFCURVE",
"158 116 OFFCURVE",
"179 214 CURVE SMOOTH",
"203 326 OFFCURVE",
"259 385 OFFCURVE",
"343 385 CURVE SMOOTH"
);
},
{
closed = 1;
nodes = (
"237 624 LINE",
"220 541 LINE",
"527 541 LINE",
"544 624 LINE"
);
}
);
width = 554;
}
);
leftKerningGroup = a;
note = amacron;
rightKerningGroup = a;
unicode = 0101;
},
{
glyphname = aogonek;
lastChange = "2015-10-24 11:20:15 +0000";
layers = (
{
layerId = "B67427C8-F911-4143-A2F2-7B953CC18A6E";
name = "Regular Italic";
paths = (
{
closed = 1;
nodes = (
"412 -66 OFFCURVE",
"446 -30 OFFCURVE",
"493 0 CURVE",
"593 474 LINE",
"458 474 LINE",
"452 443 LINE",
"419 474 OFFCURVE",
"382 484 OFFCURVE",
"329 484 CURVE SMOOTH",
"194 484 OFFCURVE",
"78 383 OFFCURVE",
"42 214 CURVE SMOOTH",
"7 51 OFFCURVE",
"90 -10 OFFCURVE",
"212 -10 CURVE SMOOTH",
"278 -10 OFFCURVE",
"329 8 OFFCURVE",
"378 44 CURVE",
"377 0 LINE",
"345 -27 OFFCURVE",
"305 -72 OFFCURVE",
"293 -129 CURVE SMOOTH",
"280 -191 OFFCURVE",
"328 -220 OFFCURVE",
"389 -220 CURVE SMOOTH",
"422 -220 OFFCURVE",
"456 -214 OFFCURVE",
"476 -206 CURVE",
"492 -130 LINE",
"478 -137 OFFCURVE",
"458 -141 OFFCURVE",
"442 -141 CURVE SMOOTH",
"415 -141 OFFCURVE",
"398 -132 OFFCURVE",
"404 -104 CURVE SMOOTH"
);
},
{
closed = 1;
nodes = (
"382 385 OFFCURVE",
"409 371 OFFCURVE",
"430 343 CURVE",
"386 132 LINE",
"349 102 OFFCURVE",
"314 89 OFFCURVE",
"270 89 CURVE SMOOTH",
"184 89 OFFCURVE",
"158 116 OFFCURVE",
"179 214 CURVE SMOOTH",
"203 326 OFFCURVE",
"259 385 OFFCURVE",
"343 385 CURVE SMOOTH"
);
}
);
width = 554;
}
);
leftKerningGroup = a;
note = aogonek;
rightKerningGroup = a;
unicode = 0105;
},
{
glyphname = aring;
lastChange = "2015-10-24 11:20:15 +0000";
layers = (
{
layerId = "B67427C8-F911-4143-A2F2-7B953CC18A6E";
name = "Regular Italic";
paths = (
{
closed = 1;
nodes = (
"7 51 OFFCURVE",
"90 -10 OFFCURVE",
"212 -10 CURVE SMOOTH",
"278 -10 OFFCURVE",
"329 8 OFFCURVE",
"378 44 CURVE",
"377 0 LINE",
"493 0 LINE",
"593 474 LINE",
"458 474 LINE",
"452 443 LINE",
"419 474 OFFCURVE",
"382 484 OFFCURVE",
"329 484 CURVE SMOOTH",
"194 484 OFFCURVE",
"78 383 OFFCURVE",
"42 214 CURVE SMOOTH"
);
},
{
closed = 1;
nodes = (
"382 385 OFFCURVE",
"409 371 OFFCURVE",
"430 343 CURVE",
"386 132 LINE",
"349 102 OFFCURVE",
"314 89 OFFCURVE",
"270 89 CURVE SMOOTH",
"184 89 OFFCURVE",
"158 116 OFFCURVE",
"179 214 CURVE SMOOTH",
"203 326 OFFCURVE",
"259 385 OFFCURVE",
"343 385 CURVE SMOOTH"
);
},
{
closed = 1;
nodes = (
"259 574 OFFCURVE",
"295 522 OFFCURVE",
"371 522 CURVE SMOOTH",
"454 522 OFFCURVE",
"507 574 OFFCURVE",
"521 641 CURVE SMOOTH",
"535 708 OFFCURVE",
"499 761 OFFCURVE",
"421 761 CURVE SMOOTH",
"342 761 OFFCURVE",
"286 708 OFFCURVE",
"273 641 CURVE SMOOTH"
);
},
{
closed = 1;
nodes = (
"345 673 OFFCURVE",
"369 698 OFFCURVE",
"408 698 CURVE SMOOTH",
"445 698 OFFCURVE",
"462 673 OFFCURVE",
"455 641 CURVE SMOOTH",
"448 609 OFFCURVE",
"426 584 OFFCURVE",
"384 584 CURVE SMOOTH",
"349 584 OFFCURVE",
"331 609 OFFCURVE",
"338 641 CURVE SMOOTH"
);
}
);
width = 554;
}
);
leftKerningGroup = a;
note = aring;
rightKerningGroup = a;
unicode = 00E5;
},
{
glyphname = aringacute;
lastChange = "2015-10-24 11:20:13 +0000";
layers = (
{
layerId = "B67427C8-F911-4143-A2F2-7B953CC18A6E";
name = "Regular Italic";
paths = (
{
closed = 1;
nodes = (
"7 51 OFFCURVE",
"90 -10 OFFCURVE",
"212 -10 CURVE SMOOTH",
"278 -10 OFFCURVE",
"329 8 OFFCURVE",
"378 44 CURVE",
"377 0 LINE",
"493 0 LINE",
"593 474 LINE",
"458 474 LINE",
"452 443 LINE",
"419 474 OFFCURVE",
"382 484 OFFCURVE",
"329 484 CURVE SMOOTH",
"194 484 OFFCURVE",
"78 383 OFFCURVE",
"42 214 CURVE SMOOTH"
);
},
{
closed = 1;
nodes = (
"382 385 OFFCURVE",
"409 371 OFFCURVE",
"430 343 CURVE",
"386 132 LINE",
"349 102 OFFCURVE",
"314 89 OFFCURVE",
"270 89 CURVE SMOOTH",
"184 89 OFFCURVE",
"158 116 OFFCURVE",
"179 214 CURVE SMOOTH",
"203 326 OFFCURVE",
"259 385 OFFCURVE",
"343 385 CURVE SMOOTH"
);
},
{
closed = 1;
nodes = (
"248 569 OFFCURVE",
"284 517 OFFCURVE",
"360 517 CURVE SMOOTH",
"443 517 OFFCURVE",
"496 569 OFFCURVE",
"510 636 CURVE SMOOTH",
"524 703 OFFCURVE",
"488 756 OFFCURVE",
"410 756 CURVE SMOOTH",
"331 756 OFFCURVE",
"275 703 OFFCURVE",
"262 636 CURVE SMOOTH"
);
},
{
closed = 1;
nodes = (
"334 668 OFFCURVE",
"358 693 OFFCURVE",
"397 693 CURVE SMOOTH",
"434 693 OFFCURVE",
"451 668 OFFCURVE",
"444 636 CURVE SMOOTH",
"437 604 OFFCURVE",
"415 579 OFFCURVE",
"373 579 CURVE SMOOTH",
"338 579 OFFCURVE",
"320 604 OFFCURVE",
"327 636 CURVE SMOOTH"
);
},
{
closed = 1;
nodes = (
"490 786 LINE",
"618 935 LINE",
"501 935 LINE",
"381 786 LINE"
);
}
);
width = 554;
}
);
leftKerningGroup = a;
note = aringacute;
rightKerningGroup = a;
unicode = 01FB;
},
{
glyphname = atilde;
lastChange = "2015-10-24 11:20:14 +0000";
layers = (
{
layerId = "B67427C8-F911-4143-A2F2-7B953CC18A6E";
name = "Regular Italic";
paths = (
{
closed = 1;
nodes = (
"7 51 OFFCURVE",
"90 -10 OFFCURVE",
"212 -10 CURVE SMOOTH",
"278 -10 OFFCURVE",
"329 8 OFFCURVE",
"378 44 CURVE",
"377 0 LINE",
"493 0 LINE",
"593 474 LINE",
"458 474 LINE",
"452 443 LINE",
"419 474 OFFCURVE",
"382 484 OFFCURVE",
"329 484 CURVE SMOOTH",
"194 484 OFFCURVE",
"78 383 OFFCURVE",
"42 214 CURVE SMOOTH"
);
},
{
closed = 1;
nodes = (
"382 385 OFFCURVE",
"409 371 OFFCURVE",
"430 343 CURVE",
"386 132 LINE",
"349 102 OFFCURVE",
"314 89 OFFCURVE",
"270 89 CURVE SMOOTH",
"184 89 OFFCURVE",
"158 116 OFFCURVE",
"179 214 CURVE SMOOTH",
"203 326 OFFCURVE",
"259 385 OFFCURVE",
"343 385 CURVE SMOOTH"
);
},
{
closed = 1;
nodes = (
"494 534 OFFCURVE",
"527 548 OFFCURVE",
"543 566 CURVE",
"564 662 LINE",
"542 638 OFFCURVE",
"511 624 OFFCURVE",
"473 624 CURVE SMOOTH",
"417 624 OFFCURVE",
"381 664 OFFCURVE",
"320 664 CURVE SMOOTH",
"285 664 OFFCURVE",
"249 651 OFFCURVE",
"227 633 CURVE",
"206 537 LINE",
"235 562 OFFCURVE",
"267 574 OFFCURVE",
"304 574 CURVE SMOOTH",
"353 574 OFFCURVE",
"398 534 OFFCURVE",
"457 534 CURVE SMOOTH"
);
}
);
width = 554;
}
);
leftKerningGroup = a;
note = atilde;
rightKerningGroup = a;
unicode = 00E3;
},
{
glyphname = ae;
lastChange = "2015-10-24 11:20:13 +0000";
layers = (
{
layerId = "B67427C8-F911-4143-A2F2-7B953CC18A6E";
name = "Regular Italic";
paths = (
{
closed = 1;
nodes = (
"453 16 OFFCURVE",
"529 -10 OFFCURVE",
"601 -10 CURVE SMOOTH",
"670 -10 OFFCURVE",
"733 0 OFFCURVE",
"781 20 CURVE",
"801 113 LINE",
"760 98 OFFCURVE",
"700 88 OFFCURVE",
"650 88 CURVE SMOOTH",
"549 88 OFFCURVE",
"500 114 OFFCURVE",
"502 190 CURVE",
"845 190 LINE",
"863 276 LINE SMOOTH",
"890 400 OFFCURVE",
"827 484 OFFCURVE",
"680 484 CURVE SMOOTH",
"610 484 OFFCURVE",
"544 466 OFFCURVE",
"497 432 CURVE",
"467 468 OFFCURVE",
"417 484 OFFCURVE",
"340 484 CURVE SMOOTH",
"265 484 OFFCURVE",
"198 471 OFFCURVE",
"150 454 CURVE",
"130 359 LINE",
"181 375 OFFCURVE",
"238 384 OFFCURVE",
"291 384 CURVE SMOOTH",
"389 384 OFFCURVE",
"409 362 OFFCURVE",
"397 304 CURVE SMOOTH",
"394 291 LINE",
"254 291 LINE SMOOTH",
"124 291 OFFCURVE",
"45 230 OFFCURVE",
"26 137 CURVE SMOOTH",
"5 39 OFFCURVE",
"83 -10 OFFCURVE",
"175 -10 CURVE SMOOTH",
"290 -10 OFFCURVE",
"354 17 OFFCURVE",
"424 67 CURVE"
);
},
{
closed = 1;
nodes = (
"360 128 LINE",
"324 98 OFFCURVE",
"279 79 OFFCURVE",
"219 79 CURVE SMOOTH",
"152 79 OFFCURVE",
"138 102 OFFCURVE",
"147 142 CURVE SMOOTH",
"156 186 OFFCURVE",
"186 207 OFFCURVE",
"239 207 CURVE SMOOTH",
"376 207 LINE"
);
},
{
closed = 1;
nodes = (
"749 387 OFFCURVE",
"762 353 OFFCURVE",
"750 299 CURVE SMOOTH",
"745 273 LINE",
"520 273 LINE",
"537 353 OFFCURVE",
"575 387 OFFCURVE",
"664 387 CURVE SMOOTH"
);
}
);
width = 882;
}
);
leftKerningGroup = a;
note = ae;
rightKerningGroup = e;
unicode = 00E6;
},
{
glyphname = aeacute;
lastChange = "2015-10-24 11:20:15 +0000";
layers = (
{
layerId = "B67427C8-F911-4143-A2F2-7B953CC18A6E";
name = "Regular Italic";
paths = (
{
closed = 1;
nodes = (
"453 16 OFFCURVE",
"529 -10 OFFCURVE",
"601 -10 CURVE SMOOTH",
"670 -10 OFFCURVE",
"733 0 OFFCURVE",
"781 20 CURVE",
"801 113 LINE",
"760 98 OFFCURVE",
"700 88 OFFCURVE",
"650 88 CURVE SMOOTH",
"549 88 OFFCURVE",
"500 114 OFFCURVE",
"502 190 CURVE",
"845 190 LINE",
"863 276 LINE SMOOTH",
"890 400 OFFCURVE",
"827 484 OFFCURVE",
"680 484 CURVE SMOOTH",
"610 484 OFFCURVE",
"544 466 OFFCURVE",
"497 432 CURVE",
"467 468 OFFCURVE",
"417 484 OFFCURVE",
"340 484 CURVE SMOOTH",
"265 484 OFFCURVE",
"198 471 OFFCURVE",
"150 454 CURVE",
"130 359 LINE",
"181 375 OFFCURVE",
"238 384 OFFCURVE",
"291 384 CURVE SMOOTH",
"389 384 OFFCURVE",
"409 362 OFFCURVE",
"397 304 CURVE SMOOTH",
"394 291 LINE",
"254 291 LINE SMOOTH",
"124 291 OFFCURVE",
"45 230 OFFCURVE",
"26 137 CURVE SMOOTH",
"5 39 OFFCURVE",
"83 -10 OFFCURVE",
"175 -10 CURVE SMOOTH",
"290 -10 OFFCURVE",
"354 17 OFFCURVE",
"424 67 CURVE"
);
},
{
closed = 1;
nodes = (
"360 128 LINE",
"324 98 OFFCURVE",
"279 79 OFFCURVE",
"219 79 CURVE SMOOTH",
"152 79 OFFCURVE",
"138 102 OFFCURVE",
"147 142 CURVE SMOOTH",
"156 186 OFFCURVE",
"186 207 OFFCURVE",
"239 207 CURVE SMOOTH",
"376 207 LINE"
);
},
{
closed = 1;
nodes = (
"749 387 OFFCURVE",
"762 353 OFFCURVE",
"750 299 CURVE SMOOTH",
"745 273 LINE",
"520 273 LINE",
"537 353 OFFCURVE",
"575 387 OFFCURVE",
"664 387 CURVE SMOOTH"
);
},
{
closed = 1;
nodes = (
"563 522 LINE",
"691 709 LINE",
"574 709 LINE",
"454 522 LINE"
);
}
);
width = 882;
}
);
leftKerningGroup = a;
note = aeacute;
rightKerningGroup = e;
unicode = 01FD;
},
{
glyphname = b;
lastChange = "2015-10-24 11:20:14 +0000";
layers = (
{
layerId = "B67427C8-F911-4143-A2F2-7B953CC18A6E";
name = "Regular Italic";
paths = (
{
closed = 1;
nodes = (
"598 408 OFFCURVE",
"517 484 OFFCURVE",
"394 484 CURVE SMOOTH",
"342 484 OFFCURVE",
"291 472 OFFCURVE",
"247 448 CURVE",
"295 674 LINE",
"160 674 LINE",
"17 0 LINE",
"134 0 LINE",
"150 44 LINE",
"180 11 OFFCURVE",
"226 -10 OFFCURVE",
"293 -10 CURVE SMOOTH",
"438 -10 OFFCURVE",
"529 70 OFFCURVE",
"564 241 CURVE SMOOTH"
);
},
{
closed = 1;
nodes = (
"429 385 OFFCURVE",
"449 346 OFFCURVE",
"427 241 CURVE SMOOTH",
"405 139 OFFCURVE",
"362 89 OFFCURVE",
"276 89 CURVE SMOOTH",
"235 89 OFFCURVE",
"200 104 OFFCURVE",
"180 132 CURVE",
"226 350 LINE",
"256 373 OFFCURVE",
"296 385 OFFCURVE",
"338 385 CURVE SMOOTH"
);
}
);
width = 590;
}
);
note = b;
unicode = 0062;
},
{
glyphname = c;
lastChange = "2015-10-24 11:33:52 +0000";
layers = (
{
layerId = "B67427C8-F911-4143-A2F2-7B953CC18A6E";
name = "Regular Italic";
paths = (
{
closed = 1;
nodes = (
"445 119 LINE",
"402 100 OFFCURVE",
"354 91 OFFCURVE",
"308 91 CURVE SMOOTH",
"186 91 OFFCURVE",
"162 135 OFFCURVE",
"184 237 CURVE SMOOTH",
"207 348 OFFCURVE",
"270 383 OFFCURVE",
"371 383 CURVE SMOOTH",
"421 383 OFFCURVE",
"465 373 OFFCURVE",
"494 357 CURVE",
"515 454 LINE",
"474 475 OFFCURVE",
"432 484 OFFCURVE",
"365 484 CURVE SMOOTH",
"191 484 OFFCURVE",
"82 404 OFFCURVE",
"47 237 CURVE SMOOTH",
"12 75 OFFCURVE",
"103 -10 OFFCURVE",
"256 -10 CURVE SMOOTH",
"319 -10 OFFCURVE",
"373 -1 OFFCURVE",
"424 19 CURVE"
);
}
);
width = 497;
}
);
leftKerningGroup = c;
note = c;
rightKerningGroup = c;
unicode = 0063;
},
